<?xml version="1.0" encoding="UTF-8"?>
<svg id="Capa_2" data-name="Capa 2" xmlns="http://www.w3.org/2000/svg" viewBox="0 0 635.9 71.75">
  <defs>
    <style>
      .cls-1 {
        fill: #fff;
      }
    </style>
  </defs>
  <g id="Capa_1-2" data-name="Capa 1">
    <g>
      <g>
        <path class="cls-1" d="M28.17,38.07c9.17-2.55,18.29-3.95,27.59-4.09.14-.16.27-.29.38-.44,2.77-3.93,5.28-8.14,6.82-12.71,1.29-3.86,2.46-8.72-1.01-11.81-1.9-1.69-4.37-2.8-6.81-3.45-3.35-.9-6.75-1.18-10.21-.99-8.25.47-15.89,2.91-22.99,7.1-3.5,2.06-6.62,4.59-9.24,7.72-1.35,1.61-2.5,3.35-3.38,5.26-.94,2.02-1.5,4.14-1.43,6.39.03.89.23,1.77.36,2.65.04.29.1.57.18.97-.24-.07-.41-.06-.48-.14-.22-.25-.44-.51-.6-.8-.72-1.25-1.13-2.6-1.28-4.02-.2-1.92,0-3.79.58-5.64.83-2.68,2.22-5.05,3.94-7.23,2.35-2.99,5.16-5.49,8.27-7.66C25.01,4.87,31.77,2.05,39.18.79,42.78.17,46.38,0,50.01.42c2.57.3,5.06.93,7.43,2.01,3.5,1.6,6.48,4.38,8.17,7.85,3.63,7.46.05,16.25-3.95,22.77-.19.31-.48.57-.47,1.06.23.03.44.07.64.09,1.75.17,3.49.33,5.24.53,1.28.15,1.84.76,1.96,2.02.01.15.01.3-.03.44-.06.23-.2.42-.47.39-.33-.03-.66-.09-.99-.16-2.6-.57-5.25-.74-7.9-.82-.11,0-.22.04-.35.07-.16.19-.33.38-.49.59-4.47,5.92-9.75,10.99-15.75,15.34-5.01,3.63-10.31,6.73-16.05,9.06-3.26,1.32-6.61,2.35-10.08,2.94-3.68.62-7.35.74-11.01-.14-4.3-1.03-7.06-5.14-5.43-9.53.35-.95.89-1.81,1.5-2.61,4.57-6.07,12.1-9.19,18.97-11.83.6-.23.97-.57,1.23-1.17,3.28-7.36,6.58-14.71,9.88-22.06.63-1.4,1.28-2.78,1.93-4.17.08-.17.16-.34.25-.5.46-.84.85-1.01,1.73-.68.89.34,1.63.9,2.19,1.68.3.42.39.88.21,1.38-.15.42-.31.84-.49,1.25-2.18,4.91-4.36,9.82-6.55,14.73-.94,2.11-1.91,4.21-2.86,6.32-.09.2-.15.41-.3.82ZM20.15,43.77c-.22.04-.43.13-.64.21-5.75,2.21-11.65,5.2-15.43,10.25-.72.96-1.31,1.99-1.68,3.14-.48,1.46-.72,3.72.83,4.63.98.58,2.39.62,3.5.73,1.29.13,2.59.17,3.88.13,2.6-.09,5.18-.52,7.69-1.22,4.63-1.28,8.97-3.25,13.13-5.63,5.78-3.3,10.94-7.39,15.71-12,2.18-2.1,4.21-4.34,6.11-6.69.15-.19.41-.35.23-.73-.19,0-.41-.01-.63,0-2.42.19-4.85.3-7.25.58-4.82.56-9.59,1.46-14.29,2.7-1.41.37-2.79.82-4.19,1.21-.35.1-.59.28-.73.62-.09.24-.22.47-.33.71-2.17,4.63-4.33,9.25-6.5,13.88-.22.47-.47.93-.69,1.41-.42.92-1.17,1.21-2.11,1.1-.6-.07-1.17-.23-1.68-.57-.52-.35-.66-.63-.49-1.23.15-.54.36-1.06.58-1.57,1.48-3.46,2.98-6.92,4.47-10.38.18-.42.39-.86.51-1.3Z"/>
        <path class="cls-1" d="M70.37,34.01c1.46-.19,2.76-.49,4.01-.98.45-.18.89-.38,1.35-.55.74-.29,1.3-.1,1.68.59.16.29.25.62.39.96-.13.22-.25.44-.4.65-1.92,2.71-3.66,5.54-5.28,8.44-1.05,1.87-1.79,3.85-2.03,6-.06.49-.06,1,.02,1.48.06.34.16,1.27.61,1.33.11.02.21-.01.32-.04.98-.29,1.89-.81,2.64-1.5,1.11-1,2.22-2,3.25-3.07,2.47-2.55,4.69-5.32,6.88-8.11,1.11-1.41,2.18-2.84,3.27-4.27.67-.88,1.3-.85,1.88.1.19.31.23.63.02.95-.16.25-.33.5-.51.74-3.04,4.06-6.26,7.99-9.61,11.81-.99,1.12-2.09,2.14-3.26,3.07-.79.63-1.66,1.13-2.59,1.54-2.2.95-4.69-.26-5.58-2.18-.5-1.08-.66-2.2-.52-3.38.27-2.19,1-4.21,2.2-6.05,1.02-1.56,2.12-3.07,3.19-4.6.21-.3.43-.59.75-1.03-.57.1-.97.18-1.36.24-2.82.43-5.42-1.05-6.6-3.41-.43-.86-.57-1.78-.29-2.72.57-1.91,1.73-3.35,3.52-4.28.88-.46,1.73-.37,2.57.09.16.09.32.19.47.31,1.95,1.55,2.21,3.1,1,5.07-.47.76-1.04,1.45-1.56,2.18-.12.17-.22.35-.4.64ZM71.4,27.62c-.42-.2-.76-.06-1.08.15-1.43.92-2.42,2.19-3.01,3.77-.19.52-.28,1.08-.15,1.65.08.37.32.64.67.63.2,0,.44-.1.59-.23,1.35-1.21,2.31-2.71,3.01-4.37.22-.51.26-1.08-.04-1.59Z"/>
        <path class="cls-1" d="M95.11,49.52c-.13.47-.19.92-.37,1.32-.56,1.25-1.65,1.7-2.95,1.24-.83-.29-1.53-.77-2.07-1.46-.72-.92-.75-1.92-.13-2.91.61-.96,1.73-1.48,2.79-1.21.97.25,1.78.78,2.29,1.67.23.41.31.9.45,1.35Z"/>
        <path class="cls-1" d="M134.03,34.18c.57-1.89,1.15-3.73,1.29-5.68.1-1.32,0-2.61-.36-3.88-.51-1.78-1.62-2.99-3.4-3.58-1.54-.51-3.13-.7-4.75-.58-2.45.18-4.77.85-7.02,1.8-2.12.91-6.59,3.69-6.3-.99.05-.87.31-1.68.75-2.44.48-.81,1.05-1.54,1.71-2.2,1.32-1.33,2.79-2.48,4.41-3.42,3.02-1.76,6.25-3,9.58-4.03,3.11-.96,6.29-1.63,9.48-2.24,3.67-.71,7.39-1.09,11.11-1.39,2.16-.17,4.32-.39,6.48-.56,1.34-.11,2.68-.2,4.03-.26,5.04-.22,10.08-.35,15.12,0,2.31.16,4.62.35,6.93.5.6.04.98.31,1.19.85.36.9.42,1.82.18,2.74-.14.54-.42.71-1.01.63-1.33-.19-2.66-.42-3.99-.56-2.12-.22-4.24-.45-6.36-.57-5.04-.28-10.09-.23-15.13,0-2.72.13-5.44.37-8.16.56-.18.01-.37.05-.56.07-.14.02-.57,1.62-.64,1.81-.22.63-.45,1.26-.67,1.88-.45,1.25-.9,2.51-1.36,3.76-.92,2.51-1.85,5.01-2.8,7.5-.57,1.5-1.14,3-1.71,4.5-.29.75-.58,1.5-.86,2.26-.14.38-.29.75-.43,1.13-.13.33-.39.78-.39,1.12.79.13,1.65-.07,2.43-.14.91-.08,1.81-.15,2.72-.2,1.79-.1,3.58-.15,5.38-.11,2.77.06,5.53.21,8.26.64.48.07.94.22,1.4.36.59.17.94.59,1.1,1.17.06.21.13.43.16.65.14,1.15-.16,1.52-1.33,1.47-1.08-.05-2.16-.19-3.23-.32-3.2-.4-6.4-.48-9.62-.45-2.58.03-5.15.24-7.71.53-.33.04-.66.11-1.04.18-.16.38-.32.75-.47,1.13-3.55,9.07-7.13,18.12-10.88,27.1-.24.59-.51,1.16-.73,1.76-.19.52-.58.76-1.09.85-.84.14-1.64-.04-2.37-.46-.49-.28-.59-.57-.4-1.13.29-.81.58-1.61.9-2.41,3.21-8.16,6.42-16.31,9.62-24.47.17-.44.39-.87.49-1.39-.2,0-.35-.03-.49,0-2.54.64-5.05,1.37-7.4,2.52-1.04.51-2.02,1.12-3.03,1.69-.19.11-.37.26-.56.36-.3.16-.57.11-.81-.15-.37-.4-.56-.88-.61-1.41-.03-.32.08-.59.31-.81.25-.23.5-.45.76-.66,1.15-.91,2.41-1.63,3.73-2.26,2.23-1.07,4.56-1.85,6.95-2.47.39-.1.79-.21,1.19-.31ZM138.14,27.57c2.59-6.14,5.09-12.08,7.59-18.02.02-.05-.03-.14-.07-.25-.17,0-.35-.02-.53,0-4.46.46-8.87,1.27-13.21,2.37-3.52.89-6.93,2.08-10.16,3.78-1.87.98-3.55,2.21-5.08,3.64-.17.16-.42.29-.45.67.42-.21.78-.39,1.14-.57,2.85-1.47,5.86-2.17,9.08-2,1.86.1,3.63.54,5.24,1.45,1.13.63,2.19,1.39,3.11,2.3.89.88,1.63,1.9,2.17,3.03.25.53.46,1.08.63,1.64.19.64.28,1.33.54,1.95Z"/>
        <path class="cls-1" d="M167.52,40.54c-.21,1.68-.11,3.28.71,4.79.6,1.12,1.49,1.72,2.79,1.7.64-.01,1.28-.04,1.87-.28,1.07-.43,2.17-.82,3.17-1.39,2.54-1.45,4.85-3.21,6.92-5.28.86-.85,1.66-1.76,2.41-2.71.75-.95,1.38-1.97,2.1-2.95.11-.15.15-.19.35-.18.16.01.32.05.47.12.27.12.52.3.73.51.46.44.71.92.4,1.47-.33.58-.68,1.16-1.07,1.7-2.43,3.26-5.45,5.92-8.88,8.13-.91.59-1.86,1.1-2.82,1.61-2.74,1.45-5.52,1.36-8.31.19-3.14-1.32-4.67-3.77-4.69-7.1-.03-3.78,1.5-6.94,4.22-9.54,1.23-1.18,2.66-2.05,4.3-2.52,1.87-.54,3.54-.13,4.99,1.17.25.22.46.49.65.77.5.74.56,1.54.15,2.33-.22.43-.47.85-.77,1.23-2.39,3.02-5.37,5.14-9.16,6.02-.18.04-.34.13-.54.21ZM167.86,39.19c1.06-.41,1.86-.88,2.64-1.37,1.74-1.1,3.35-2.36,4.63-3.98.41-.52.76-1.1,1.09-1.68.24-.42.37-.89.14-1.4-.37-.24-.78-.26-1.18-.14-.53.16-1.07.34-1.55.61-2.89,1.65-4.72,4.14-5.7,7.29-.05.17-.04.35-.08.68Z"/>
        <path class="cls-1" d="M205.36,35.84c-.33.62-.7,1.23-1.06,1.84-3.22,5.56-6.64,11.01-10.72,15.99-2.04,2.48-4.62,5.64-8.24,5.05-1.95-.32-2.32-1.81-2.63-3.51-.22-1.19-.21-2.37-.09-3.57.31-3.13,1.05-6.18,2-9.17,3-9.45,6.93-18.65,11.88-27.25,1.68-2.92,3.35-5.86,5.24-8.66.42-.63,1.24-2.29,2.21-1.56.47.35.85,1.64.4,2.12-.18.37-.36.74-.55,1.1-1.27,2.37-2.57,4.72-3.81,7.1-3.29,6.32-6.35,12.75-8.98,19.38-2.43,6.12-4.57,12.58-5.15,19.21-.04.49-.06.98-.01,1.47.05.53.21.94.5,1.09.24.13.57.08,1-.23,2.11-1.54,3.9-3.56,5.55-5.57,1.65-2.01,3.14-4.15,4.61-6.3,1.15-1.69,2.26-3.41,3.33-5.15.54-.89,1.07-1.78,1.59-2.68.44-.75.77-1.5,1.53-1.99.94-.61,1.96.28,1.42,1.28Z"/>
        <path class="cls-1" d="M220.98,35.85c-.03.18-.13.35-.2.52-1.33,2.86-2.97,5.52-5.12,7.84-.81.88-1.7,1.68-2.68,2.38-.82.59-1.71,1.06-2.66,1.41-2.83,1.03-5.69-.49-6.86-2.58-.48-.86-.78-1.77-.9-2.75-.25-2,.04-3.95.55-5.87.62-2.32,1.57-4.51,2.81-6.56.27-.44.58-.87.92-1.26.41-.46.86-.53,1.42-.26.59.28,1.05.71,1.37,1.28.25.46.23.94.03,1.4-.22.51-.47,1.02-.73,1.51-1.17,2.27-2.08,4.62-2.63,7.12-.31,1.43-.45,2.87-.35,4.34.05.67.18,1.33.47,1.95.23.5.62.72,1.17.67.68-.07,1.32-.25,1.93-.54,1.13-.52,2.14-1.22,3.06-2.05,2.67-2.41,4.7-5.29,6.22-8.54.22-.47.44-.93.66-1.4.77-.08,1.18.34,1.49.86.08.14.07.36.04.53ZM208.72,26.6c-.2-.24-.28-.52-.16-.83.06-.14.08-.29.15-.42.54-.94,1.05-1.89,1.64-2.8.47-.72.85-.8,1.61-.4.39.21.72.51,1.05.81.13.11.18.32.27.5-.05.14-.08.29-.14.42-.56,1.09-1.12,2.19-1.7,3.27-.25.47-.48.56-1.01.45-.68-.14-1.26-.47-1.7-1Z"/>
        <path class="cls-1" d="M242.01,36.42c-2.53.56-5.18.83-7.77,1.5-.12.23-.25.45-.36.68-1.61,3.48-3.99,6.38-6.88,8.87-.85.74-1.81,1.31-2.84,1.78-1.43.65-2.7.42-3.8-.68-.42-.42-.77-.9-1.15-1.37-.22-.04-.18.17-.24.28-.07.13-.11.28-.16.42-2.32,7.01-5.02,13.89-7.63,20.8-.24.63-.52,1.24-.74,1.87-.18.53-.55.78-1.07.85-.65.09-1.27-.04-1.84-.35-.41-.22-.52-.49-.39-.93.05-.18.14-.35.2-.52,2.66-7.6,5.35-15.2,7.98-22.81,2.07-5.99,3.96-12.04,5.71-18.14.28-.97.6-1.92.93-2.87.14-.42.32-.84.52-1.23.31-.6.67-.72,1.29-.4.36.19.69.44.99.72.55.5.66,1.08.44,1.82-.8,2.72-1.54,5.45-2.3,8.18-.03.1,0,.22,0,.55.32-.45.52-.72.7-.99,1.04-1.51,2.16-2.95,3.4-4.3.68-.75,1.42-1.43,2.3-1.95,1.67-.99,2.91-.81,4.15.68,1.19,1.42,1.86,3.05,1.75,4.94-.02.37-.03.73-.05,1.16.47.08.86-.02,1.25-.09,1.25-.21,2.51-.41,3.76-.63.43-.08.81.02,1.19.2.39.18.68.44.84.85.16.39.04.73-.19,1.13ZM229.49,39.5c-.1.03-.2.04-.3.08-2.15.9-4.07,2.16-5.81,3.7-.7.62-1.32,1.32-1.73,2.17-.21.43-.33.9-.46,1.36-.03.12.05.27.09.48.29-.11.54-.19.76-.3,1.21-.59,2.3-1.37,3.29-2.29,1.56-1.45,2.9-3.09,4.14-4.81.07-.1.22-.23.02-.39ZM233.18,31.35c-.02-.53-.11-1.03-.47-1.46-.63-.23-1.17.01-1.7.3-.93.5-1.71,1.18-2.46,1.91-2.53,2.45-4.62,5.24-6.35,8.31-.02.04.03.13.05.2,5.23-3.6,4.77-3.02,9.73-4.88.3-.81.62-1.6.89-2.41.21-.64.33-1.29.31-1.98Z"/>
        <path class="cls-1" d="M242.84,40.54c-.21,1.68-.11,3.28.71,4.79.6,1.12,1.49,1.72,2.79,1.7.64-.01,1.28-.04,1.87-.28,1.07-.43,2.17-.82,3.17-1.39,2.54-1.45,4.85-3.21,6.92-5.28.86-.85,1.66-1.76,2.41-2.71.75-.95,1.38-1.97,2.1-2.95.11-.15.15-.19.35-.18.16.01.32.05.47.12.27.12.52.3.73.51.46.44.71.92.4,1.47-.33.58-.68,1.16-1.07,1.7-2.43,3.26-5.45,5.92-8.88,8.13-.91.59-1.86,1.1-2.82,1.61-2.74,1.45-5.52,1.36-8.31.19-3.14-1.32-4.67-3.77-4.69-7.1-.03-3.78,1.5-6.94,4.22-9.54,1.23-1.18,2.66-2.05,4.3-2.52,1.87-.54,3.54-.13,4.99,1.17.25.22.46.49.65.77.5.74.56,1.54.15,2.33-.22.43-.47.85-.77,1.23-2.39,3.02-5.37,5.14-9.16,6.02-.18.04-.34.13-.54.21ZM243.18,39.19c1.06-.41,1.86-.88,2.64-1.37,1.74-1.1,3.35-2.36,4.63-3.98.41-.52.76-1.1,1.09-1.68.24-.42.37-.89.14-1.4-.37-.24-.78-.26-1.18-.14-.53.16-1.07.34-1.55.61-2.89,1.65-4.72,4.14-5.7,7.29-.05.17-.04.35-.08.68Z"/>
        <path class="cls-1" d="M308.76,7.18c-1.11,2.65-2,5.38-3.3,7.95-.28.56-.44,1.19-.68,1.77-1.23,3-2.49,5.99-3.69,9.01-2.99,7.53-5.63,15.18-7.28,23.13-.79,3.8-1.52,7.61-1.92,11.47-.06.59-.18,1.17-.27,1.76-.67.46-1.37.39-2.05.15-.51-.18-.76-.62-.77-1.13-.01-.56.04-1.12.1-1.67.24-2.3.63-4.58,1.01-6.86.77-4.57,1.77-9.08,3.14-13.5.19-.6.37-1.2.44-1.87-.1.12-.22.23-.31.35-.97,1.41-1.91,2.85-2.93,4.24-.64.87-1.37,1.68-2.11,2.46-.41.42-.91.78-1.42,1.08-.96.56-1.99.62-3.02.18-2.1-.9-3.43-2.42-3.49-4.76-.09-3.82.91-7.32,3.42-10.28,1.22-1.45,2.8-2.19,4.75-2.02,1.37.12,2.7,1.23,3.07,2.58.02.06-.04.14-.07.2-.06.02-.14.09-.19.07-1.17-.48-2.2-.13-3.16.54-.65.45-1.16,1.05-1.6,1.71-1.26,1.89-2.08,3.95-2.37,6.22-.13,1.03-.32,2.06-.11,3.19.19-.05.37-.05.51-.13.87-.54,1.57-1.26,2.24-2.02,2.03-2.31,3.75-4.84,5.23-7.52,1.91-3.46,3.76-6.96,5.63-10.45.92-1.71,1.82-3.43,2.72-5.15,1.68-3.21,3.14-6.52,4.44-9.9.59-1.53,1.22-3.05,1.84-4.56.39-.94.91-1.03,1.52-.22.9,1.2,1.3,2.49.68,3.98Z"/>
        <path class="cls-1" d="M304.56,40.54c-.21,1.68-.11,3.28.71,4.79.6,1.12,1.49,1.72,2.79,1.7.64-.01,1.28-.04,1.87-.28,1.07-.43,2.17-.82,3.17-1.39,2.54-1.45,4.85-3.21,6.92-5.28.86-.85,1.66-1.76,2.41-2.71.75-.95,1.38-1.97,2.1-2.95.11-.15.15-.19.35-.18.16.01.32.05.47.12.27.12.52.3.73.51.46.44.71.92.4,1.47-.33.58-.68,1.16-1.07,1.7-2.43,3.26-5.45,5.92-8.88,8.13-.91.59-1.86,1.1-2.82,1.61-2.74,1.45-5.52,1.36-8.31.19-3.14-1.32-4.67-3.77-4.69-7.1-.03-3.78,1.5-6.94,4.22-9.54,1.23-1.18,2.66-2.05,4.3-2.52,1.87-.54,3.54-.13,4.99,1.17.25.22.46.49.65.77.5.74.56,1.54.15,2.33-.22.43-.47.85-.77,1.23-2.39,3.02-5.37,5.14-9.16,6.02-.18.04-.34.13-.54.21ZM304.89,39.19c1.06-.41,1.86-.88,2.64-1.37,1.74-1.1,3.35-2.36,4.63-3.98.41-.52.76-1.1,1.09-1.68.24-.42.37-.89.14-1.4-.37-.24-.78-.26-1.18-.14-.53.16-1.07.34-1.55.61-2.89,1.65-4.72,4.14-5.7,7.29-.05.17-.04.35-.08.68Z"/>
        <path class="cls-1" d="M381.37,37.25c-1.63.17-3.28.28-4.9.51-2.86.41-5.7,1.1-8.49,1.84-.92.24-4.71,1.18-5.15,2.2-2.36,5.49-5.28,10.73-8.73,15.6-1.73,2.45-3.56,4.92-5.62,7.11-1.91,2.02-3.73,4.29-6.12,5.8-2.68,1.68-5.77,2.12-8.38.06-2.05-1.62-3.06-4.3-2.84-6.88.18-2.11.83-4.09,1.83-5.95,1.02-1.89,2.31-3.57,3.83-5.08,3.77-3.73,8.03-6.79,12.75-9.21,2.5-1.28,5.05-2.42,7.69-3.35.25-.09.49-.19.74-.25.62-.16,1.02-.51,1.27-1.12.46-1.14,1.01-2.25,1.48-3.38,1.93-4.61,3.81-9.24,5.42-13.97,1.16-3.41,1.85-6.92,1.82-10.53,0-1.19-.14-2.38-.36-3.56-.32-1.73-1.32-2.75-2.99-3.25-1.66-.5-3.31-.53-4.97-.07-3.32.92-6.33,2.45-8.94,4.71-2.09,1.82-3.96,3.86-5.54,6.14-2.82,4.08-4.27,8.59-4.12,13.57.03.75.06,1.5.15,2.24.06.49.7,2.19-.29,1.45-.51-.38-.63-1.29-.79-1.83-.35-1.25-.47-2.55-.56-3.84-.38-5.29.96-10.13,3.94-14.51,1.41-2.07,3.03-3.98,4.83-5.72,2.57-2.48,5.58-4.23,8.95-5.38,1.65-.57,3.36-.75,5.08-.45,3.3.56,5.61,2.87,6.73,5.96,2.69,7.5.45,16.37-1.93,23.7-.68,2.09-1.4,4.17-2.11,6.25-.12.37.36.68.86.61,2.83-.35,5.57-1.14,8.39-1.56,1.7-.25,3.41-.43,5.11-.62.22-.02.47-.03.66.05,1.07.5,1.64.73,1.91,1.9.12.51-.1.75-.64.81ZM355.93,44.35c-.27.12-.59.23-.89.38-1.6.79-3.22,1.57-4.8,2.4-3.72,1.97-7.01,4.54-10.06,7.42-.57.54-1.1,1.12-1.6,1.72-1.4,1.67-2.52,3.51-3.16,5.62-.41,1.37-.68,2.76-.55,4.19.07.72.09,2.12.83,2.29.18.04.39.01.66-.11,4.25-1.95,7.21-5.54,10.07-9.12,3.05-3.81,5.8-7.85,8.28-12.05.4-.67.79-1.35,1.17-2.04.06-.1.1-.2.16-.3.08-.14.1-.27-.12-.4Z"/>
        <path class="cls-1" d="M382.4,40.54c-.21,1.68-.11,3.28.71,4.79.6,1.12,1.49,1.72,2.79,1.7.64-.01,1.28-.04,1.87-.28,1.07-.43,2.17-.82,3.17-1.39,2.54-1.45,4.85-3.21,6.92-5.28.86-.85,1.66-1.76,2.41-2.71.75-.95,1.38-1.97,2.1-2.95.11-.15.15-.19.35-.18.16.01.32.05.47.12.27.12.52.3.73.51.46.44.71.92.4,1.47-.33.58-.68,1.16-1.07,1.7-2.43,3.26-5.45,5.92-8.88,8.13-.91.59-1.86,1.1-2.82,1.61-2.74,1.45-5.52,1.36-8.31.19-3.14-1.32-4.67-3.77-4.69-7.1-.03-3.78,1.5-6.94,4.22-9.54,1.23-1.18,2.66-2.05,4.3-2.52,1.87-.54,3.54-.13,4.99,1.17.25.22.46.49.65.77.5.74.56,1.54.15,2.33-.22.43-.47.85-.77,1.23-2.39,3.02-5.37,5.14-9.16,6.02-.18.04-.34.13-.54.21ZM382.73,39.19c1.06-.41,1.86-.88,2.64-1.37,1.74-1.1,3.35-2.36,4.63-3.98.41-.52.76-1.1,1.09-1.68.24-.42.37-.89.14-1.4-.37-.24-.78-.26-1.18-.14-.53.16-1.07.34-1.55.61-2.89,1.65-4.72,4.14-5.7,7.29-.05.17-.04.35-.08.68Z"/>
        <path class="cls-1" d="M417.79,36.74c-1.53.62-3.08,1.25-4.65,1.74-1.54.57-3.06,1.17-4.58,1.8-.1.04-.19.11-.37.22,0,.24,0,.91,0,1.1.04,1.5-.51,2.78-1.49,3.87-2.27,2.54-6.89,4.39-9.9,1.9-.82-.68-.93-1.62-.29-2.48.56-.76,1.29-1.35,2.08-1.86,1.66-1.08,3.4-2.03,5.17-2.9.33-.16.66-.33,1.02-.51.1-.05-.11-.98-.14-1.09-.09-.36-.22-.71-.38-1.04-.34-.68-.85-1.19-1.37-1.73-.84-.85-1.66-1.75-2.23-2.81-.63-1.17-.64-2.35-.02-3.54.37-.7.81-1.34,1.42-1.86,1.07-.92,2.28-1.58,3.65-1.86,1.69-.34,3.18.11,4.38,1.38.21.23.41.51.4.83,0,.48-.46.39-.83.33-1.65-.26-3.72.4-4.83,1.52-1.07,1.07-1.75,3.27-.53,4.7.53.62,1.13,1.24,1.67,1.87.35.4.65.84.96,1.28.35.49.48.9,1.1.66,2.7-1.05,5.47-1.97,8.14-3.1.95-.4,2.56-1.26,3.48-.37,1.07,1.03-1.2,1.69-1.85,1.95ZM403.91,42.38c-.3.03-.68.25-.96.36-.44.17-.88.36-1.3.58-1.29.64-2.95,1.48-3.29,3.02-.04.18-.02.31.05.4.3.43,1.57-.02,1.94-.15,1.24-.46,2.45-1.4,3.27-2.43.23-.29,1.13-1.84.3-1.77Z"/>
        <path class="cls-1" d="M448.28,37.12c-.38.53-.77,1.05-1.17,1.56-1.72,2.18-3.64,4.17-5.85,5.84-1.05.79-2.15,1.48-3.34,2.03-1.17.54-2.38.87-3.68.8-2.87-.16-5.15-2.32-5.42-5.17-.06-.66,0-1.34,0-1.97-.27-.18-.39,0-.51.12-1.08,1.09-2.23,2.1-3.48,2.99-.92.65-1.87,1.23-2.95,1.57-1.27.4-2.5.33-3.71-.23-1.34-.62-2.07-1.66-2.16-3.14-.07-1.05.06-2.09.36-3.1,1.02-3.46,2.81-6.49,5.19-9.18.12-.14.26-.26.4-.39.31-.3.67-.5,1.11-.32.54.21.99.55,1.14,1.14.04.16-.01.38-.09.53-.25.5-.51,1-.79,1.48-1.01,1.74-1.95,3.53-2.73,5.39-.62,1.48-1.13,3-1.3,4.61-.07.63-.08,1.26.2,1.83.52.11.92-.13,1.32-.31,1.19-.56,2.24-1.34,3.2-2.24,2.68-2.53,4.92-5.41,6.75-8.6.39-.68.76-1.37,1.1-2.08.21-.45.55-.6,1-.37.46.24.87.57,1.26.91.34.29.43.7.28,1.12-.17.49-.36.98-.56,1.46-.74,1.8-1.36,3.63-1.78,5.53-.33,1.47-.47,2.94-.35,4.44.05.6.19,1.17.45,1.72.2.41.51.61.97.63.72.02,1.41-.14,2.09-.36,1.74-.55,3.23-1.54,4.63-2.68,2.69-2.18,4.88-4.82,6.83-7.67.08-.12.15-.26.23-.38.25-.36.46-.41.85-.18.48.28.89.71,1.09,1.24.2.53-.26,1.03-.55,1.43Z"/>
        <path class="cls-1" d="M462.63,36.74c-1.53.62-3.08,1.25-4.65,1.74-1.54.57-3.06,1.17-4.58,1.8-.1.04-.19.11-.37.22,0,.24,0,.91,0,1.1.04,1.5-.51,2.78-1.49,3.87-2.27,2.54-6.89,4.39-9.9,1.9-.82-.68-.93-1.62-.29-2.48.56-.76,1.29-1.35,2.08-1.86,1.66-1.08,3.4-2.03,5.17-2.9.33-.16.66-.33,1.02-.51.1-.05-.11-.98-.14-1.09-.09-.36-.22-.71-.38-1.04-.34-.68-.85-1.19-1.37-1.73-.84-.85-1.66-1.75-2.23-2.81-.63-1.17-.64-2.35-.02-3.54.37-.7.81-1.34,1.42-1.86,1.07-.92,2.28-1.58,3.65-1.86,1.69-.34,3.18.11,4.38,1.38.21.23.41.51.4.83,0,.48-.46.39-.83.33-1.65-.26-3.72.4-4.83,1.52-1.07,1.07-1.75,3.27-.53,4.7.53.62,1.13,1.24,1.67,1.87.35.4.65.84.96,1.28.35.49.48.9,1.1.66,2.7-1.05,5.47-1.97,8.14-3.1.95-.4,2.56-1.26,3.48-.37,1.07,1.03-1.2,1.69-1.85,1.95ZM448.75,42.38c-.3.03-.68.25-.96.36-.44.17-.88.36-1.3.58-1.29.64-2.95,1.48-3.29,3.02-.04.18-.02.31.05.4.3.43,1.57-.02,1.94-.15,1.24-.46,2.45-1.4,3.27-2.43.23-.29,1.13-1.84.3-1.77Z"/>
        <path class="cls-1" d="M509.66,37.4c.09.11.12.18.18.22,3.43,2.26,6.68,4.77,9.97,7.25,2.03,1.53,4.14,2.94,6.3,4.28,1.71,1.06,3.46,2.07,5.19,3.11,3.71,2.26,7.77,3.43,12.07,3.81,2.64.23,5.22-.17,7.7-1.1.17-.07.34-.15.52-.21.54-.19.85-.09,1.06.46.38.98.34,1.97-.09,2.94-.14.32-.4.54-.74.63-2.31.62-4.61,1.27-7.03,1.33-1.65.04-3.28-.23-4.9-.48-2.42-.38-4.69-1.21-6.88-2.28-4.78-2.34-9.27-5.14-13.5-8.36-2.35-1.79-4.7-3.56-7.08-5.31-1.87-1.37-3.83-2.59-5.97-3.52-2.98-1.3-6.04-1.61-9.21-.95-.8.17-1.6.36-2.39.59-.57.17-1.13.4-1.66.66-1.47.72-1.57.83-2.18,2.36-1.76,4.44-3.51,8.88-5.27,13.32-.26.66-.54,1.31-.78,1.98-.21.58-.63.82-1.2.83-.33,0-.67-.05-1-.12-1.07-.26-1.38-.68-1.24-1.75.07-.55.18-1.11.35-1.64.7-2.2,1.39-4.41,2.14-6.6.64-1.87,1.35-3.71,2.03-5.57,1.38-3.75,3.04-7.38,4.76-10.98.97-2.02,1.97-4.02,2.91-6.05,1.7-3.7,3.75-7.21,5.71-10.78.27-.49.6-.94.94-1.39.36-.47.84-.58,1.4-.35.83.34,1.44.93,1.84,1.72.21.42.18.86-.07,1.28-1.98,3.38-3.6,6.96-5.34,10.46-1.16,2.34-2.25,4.71-3.36,7.08-.13.28-.38.55-.27,1,.31-.09.58-.17.86-.26,1.72-.56,3.47-.81,5.29-.75,1.18.04,2.38-.17,3.56-.37,5.62-.95,10.87-2.93,15.78-5.81,3.17-1.87,6.08-4.07,8.53-6.85,1.12-1.27,2.07-2.65,2.88-4.12.56-1.02.91-2.12,1.11-3.27.23-1.33-.07-2.51-.92-3.57-.71-.88-1.56-1.61-2.51-2.21-1.82-1.16-3.81-1.88-5.91-2.31-3.62-.76-7.26-.77-10.92-.28-6.23.83-12.04,2.87-17.42,6.1-2.38,1.43-4.57,3.1-6.51,5.1-1.57,1.62-2.92,3.4-3.89,5.44-.7,1.47-1.08,3.02-1.05,4.65.04,1.99.74,3.71,2.15,5.13.34.34.72.65,1.08.98.21.2.4.42.72.76-.3,0-.44.04-.54,0-.85-.41-1.59-.98-2.27-1.62-3.24-3.03-4.3-6.71-3.19-11,.59-2.28,1.73-4.28,3.16-6.12,2.04-2.62,4.52-4.76,7.25-6.62,4.92-3.33,10.32-5.51,16.11-6.78,3.56-.78,7.16-1.07,10.8-.89,2.59.13,5.12.6,7.53,1.57.9.36,1.78.78,2.61,1.28,3.36,2.04,5.3,5.06,6.01,8.9.51,2.76.16,5.41-.88,8.01-1.13,2.83-2.94,5.18-5.13,7.26-3.18,3.02-6.87,5.25-10.87,6.99-2.44,1.06-4.96,1.86-7.54,2.49-.18.04-.36.09-.54.15-.07.02-.12.08-.25.15Z"/>
        <path class="cls-1" d="M562.46,36.57c-2.43,2.33-4.93,4.57-7.85,6.29-1,.58-2.03,1.1-3.08,1.59-.85.4-1.76.59-2.71.65-2.33.16-4.48-1.66-5-3.71-.24-.95-.33-1.91-.15-2.88.04-.24.05-.49.1-.91-.32.25-.52.39-.7.56-.82.76-1.61,1.57-2.46,2.28-.8.67-1.65,1.28-2.52,1.86-.81.54-1.73.88-2.71,1-.77.1-1.48-.06-2.14-.48-.97-.61-1.72-1.43-2.21-2.47-.62-1.3-.53-2.65.04-3.91,1.03-2.28,2.67-4.07,5.01-5.05,2.05-.86,3.87-.28,5.21,1.16.25.27.53.54.41,1.04-.24.01-.49.06-.73.03-1.63-.19-3.01.34-4.21,1.42-1.19,1.06-2.08,2.34-2.7,3.8-.32.76-.33.98-.23,1.9.21-.01.43.03.62-.04.59-.22,1.19-.44,1.74-.75,1.54-.86,2.91-1.96,4.16-3.2,1.3-1.29,2.55-2.63,3.81-3.94.16-.16.31-.32.46-.49.45-.56.75-.72,1.49-.05.89.79,1.11,1.83.92,2.95-.18,1.03-.49,2.03-.65,3.06-.15.95-.23,1.93-.26,2.89-.02.51.1,1.04.19,1.55.08.42.38.62.79.67.68.08,1.34-.07,1.99-.24,1.01-.27,1.97-.68,2.89-1.2,2.06-1.16,3.91-2.61,5.67-4.17,1.14-1.01,2.23-2.1,3.33-3.16.4-.39.68-.43,1.04-.05.25.26.47.58.64.91.25.49.2.71-.2,1.09Z"/>
        <path class="cls-1" d="M600.83,36.77c-.35.49-.89.88-1.32,1.29-.48.44-.95.89-1.43,1.32-.96.88-1.92,1.75-2.91,2.6-1.04.9-2.09,1.79-3.17,2.66-.87.7-1.83,1.29-2.78,1.87-.5.3-1.09.49-1.65.69-.75.26-1.47.13-2.15-.25-1.79-.99-2.87-3.22-2.5-5.22.21-1.1.55-2.17,1.03-3.19.35-.74.72-1.47,1.08-2.21.11-.23.19-.47.34-.82-.24.04-.38.03-.49.09-.53.27-1.07.54-1.58.85-2.48,1.49-4.74,3.25-6.63,5.45-.41.48-.84.96-1.28,1.4-.34.34-.56.33-.98.03-.55-.39-1.1-.77-1.51-1.32-.42-.56-.58-1.15-.51-1.88.18-1.89.71-3.65,1.53-5.35.69-1.44,1.4-2.88,2.11-4.32-.18-.19-.34-.05-.49.05-.69.45-1.4.87-2.05,1.36-3.6,2.75-6.95,5.78-9.75,9.36-1.04,1.32-2.04,2.67-3.03,4.03-.3.42-.5.91-.72,1.38-.16.35-.4.52-.77.54-.92.04-1.68-.29-2.3-.95-.24-.26-.35-.56-.21-.92.25-.66.45-1.34.73-2,1.43-3.44,2.86-6.89,4.34-10.31.56-1.3,1.25-2.54,1.89-3.81.1-.2.22-.39.34-.58.19-.29.47-.37.78-.28.79.23,1.38.73,1.78,1.44.18.31.15.66.03.98-.19.52-.41,1.04-.62,1.56-.55,1.34-1.11,2.69-1.66,4.03-.08.19-.13.4-.2.6.04.03.08.05.12.08.12-.11.26-.22.37-.35,1.91-2.16,4-4.13,6.16-6.02,1.92-1.68,3.99-3.14,6.41-4.04.14-.05.28-.09.42-.15,1.12-.49,1.64-.11,2.22.65.69.9.89,1.87.37,2.93-.26.54-.5,1.08-.77,1.62-1.02,2.04-1.93,4.12-2.73,6.25-.15.41-.39.81-.31,1.38.23-.24.42-.41.58-.6,1.73-1.99,3.77-3.61,6.03-4.96.71-.43,1.48-.69,2.3-.84.64-.12,1.19.06,1.63.52.82.86,1.28,1.84.87,3.05-.33.99-.7,1.97-1.03,2.96-.39,1.17-.77,2.34-1.12,3.51-.1.34-.48,1.86.11,1.8,1.08-.1,2.18-.88,3.08-1.46,1.38-.88,2.57-1.97,3.81-3.02,1.37-1.16,2.73-2.32,4.09-3.48.65-.56,1.31-1.12,1.96-1.67.17-.15.33-.31.5-.45.47-.39.69-.39,1.18,0,.56.44.92,1.52.47,2.14Z"/>
        <path class="cls-1" d="M619.5,36.67c-.06.04-.12.09-.18.14-2.59,1.96-5.64,4.14-9.03,4.46-.48.05-.96.12-1.49.19-.17.21-.35.45-.54.67-1.39,1.65-3.02,2.99-5,3.88-.83.37-1.68.63-2.58.68-1.48.08-2.82-.33-3.98-1.22-1.42-1.09-2.02-2.56-1.74-4.34.31-1.96,1.32-3.54,2.78-4.85.19-.17.42-.32.64-.46.5-.32,1.03-.43,1.58-.13.12.06.25.09.49.16-.07-.31-.11-.52-.17-.73-.58-2.41.31-4.38,2.5-5.52.67-.35,1.36-.6,2.12-.68,1.78-.18,3.25.45,4.39,1.78,1.8,2.09,2.29,4.47,1.38,7.1-.1.28-.21.56-.34.89.97,0,1.9-.41,2.77-.79.98-.44,1.93-.95,2.85-1.51.79-.49,1.56-1.01,2.32-1.54.45-.31.91-.74,1.41-.23.49.5.38,1.66-.18,2.05ZM604.69,40.5c-.65-.52-1.29-.98-1.86-1.5-.57-.53-1.07-1.12-1.59-1.68-.27.35-.52.67-.77.99-.74.95-1.35,1.96-1.75,3.09-.26.74-.42,1.5-.36,2.3.03.41.07.82.42,1.14.56.14,1.1,0,1.58-.28.63-.38,1.28-.78,1.82-1.28.77-.7,1.46-1.49,2.16-2.25.14-.15.23-.36.34-.53ZM608.6,32.53c-.26-.15-.51-.33-.79-.4-1.57-.37-3.05-.16-4.3.91-1.24,1.06-1.43,2.66-.53,4.02.69,1.04,1.64,1.69,2.85,1.91.1-.06.18-.09.22-.15,1.06-1.4,1.9-2.93,2.58-4.54.16-.37.2-.79.26-1.19.04-.24-.08-.44-.28-.57Z"/>
        <path class="cls-1" d="M633.77,36.74c-1.53.62-3.08,1.25-4.65,1.74-1.54.57-3.06,1.17-4.58,1.8-.1.04-.19.11-.37.22,0,.24,0,.91,0,1.1.04,1.5-.51,2.78-1.49,3.87-2.27,2.54-6.89,4.39-9.9,1.9-.82-.68-.93-1.62-.29-2.48.56-.76,1.29-1.35,2.08-1.86,1.66-1.08,3.4-2.03,5.17-2.9.33-.16.66-.33,1.02-.51.1-.05-.11-.98-.14-1.09-.09-.36-.22-.71-.38-1.04-.35-.68-.85-1.19-1.38-1.73-.84-.85-1.66-1.75-2.23-2.81-.63-1.17-.64-2.35-.02-3.54.37-.7.81-1.34,1.42-1.86,1.07-.92,2.28-1.58,3.65-1.86,1.69-.34,3.18.11,4.38,1.38.21.23.41.51.4.83,0,.48-.46.39-.83.33-1.65-.26-3.72.4-4.83,1.52-1.07,1.07-1.75,3.27-.53,4.7.53.62,1.13,1.24,1.67,1.87.35.4.65.84.96,1.28.35.49.48.9,1.1.66,2.7-1.05,5.47-1.97,8.14-3.1.95-.4,2.56-1.26,3.48-.37,1.07,1.03-1.2,1.69-1.85,1.95ZM619.89,42.38c-.3.03-.68.25-.96.36-.44.17-.88.36-1.3.58-1.29.64-2.95,1.48-3.29,3.02-.04.18-.02.31.05.4.3.43,1.57-.02,1.94-.15,1.24-.46,2.45-1.4,3.27-2.43.23-.29,1.13-1.84.3-1.77Z"/>
      </g>
      <path class="cls-1" d="M429.31,25l1.02-2.04c.15-.3.22-.63.13-.96-.08-.29-.3-.6-.57-.75-.29-.15-.64-.23-.96-.13-.3.1-.6.28-.75.57l-1.02,2.04c-.15.3-.22.63-.13.96.08.29.3.6.57.75.29.15.64.23.96.13.3-.1.6-.28.75-.57h0Z"/>
    </g>
  </g>
</svg>