<?xml version="1.0" encoding="UTF-8"?>
<svg id="Capa_2" data-name="Capa 2" xmlns="http://www.w3.org/2000/svg" viewBox="0 0 195.31 22.03">
  <defs>
    <style>
      .cls-1 {
        fill: #fff;
      }
    </style>
  </defs>
  <g id="Capa_1-2" data-name="Capa 1">
    <g>
      <path class="cls-1" d="M8.65,11.69c2.82-.78,5.62-1.21,8.47-1.26.04-.05.08-.09.12-.14.85-1.21,1.62-2.5,2.09-3.9.4-1.18.75-2.68-.31-3.63-.58-.52-1.34-.86-2.09-1.06-1.03-.27-2.07-.36-3.14-.3-2.53.14-4.88.89-7.06,2.18-1.07.63-2.03,1.41-2.84,2.37-.41.49-.77,1.03-1.04,1.62-.29.62-.46,1.27-.44,1.96,0,.27.07.54.11.81.01.09.03.18.05.3-.07-.02-.12-.02-.15-.04-.07-.08-.13-.16-.18-.25-.22-.38-.35-.8-.39-1.24-.06-.59,0-1.16.18-1.73.25-.82.68-1.55,1.21-2.22.72-.92,1.58-1.69,2.54-2.35C7.68,1.49,9.76.63,12.03.24,13.14.05,14.24,0,15.36.13c.79.09,1.55.28,2.28.62,1.07.49,1.99,1.34,2.51,2.41,1.12,2.29.01,4.99-1.21,6.99-.06.09-.15.18-.15.32.07,0,.13.02.2.03.54.05,1.07.1,1.61.16.39.05.57.23.6.62,0,.04,0,.09,0,.14-.02.07-.06.13-.14.12-.1-.01-.2-.03-.3-.05-.8-.17-1.61-.23-2.42-.25-.03,0-.07.01-.11.02-.05.06-.1.12-.15.18-1.37,1.82-2.99,3.38-4.84,4.71-1.54,1.11-3.17,2.07-4.93,2.78-1,.41-2.03.72-3.1.9-1.13.19-2.26.23-3.38-.04-1.32-.32-2.17-1.58-1.67-2.93.11-.29.27-.55.46-.8,1.4-1.86,3.72-2.82,5.82-3.63.18-.07.3-.18.38-.36,1.01-2.26,2.02-4.52,3.04-6.77.19-.43.39-.85.59-1.28.02-.05.05-.1.08-.15.14-.26.26-.31.53-.21.27.1.5.28.67.52.09.13.12.27.06.42-.05.13-.09.26-.15.38-.67,1.51-1.34,3.02-2.01,4.52-.29.65-.58,1.29-.88,1.94-.03.06-.05.13-.09.25ZM6.19,13.44c-.07.01-.13.04-.2.06-1.77.68-3.58,1.6-4.74,3.15-.22.3-.4.61-.52.96-.15.45-.22,1.14.26,1.42.3.18.74.19,1.08.23.4.04.79.05,1.19.04.8-.03,1.59-.16,2.36-.37,1.42-.39,2.75-1,4.03-1.73,1.77-1.01,3.36-2.27,4.82-3.69.67-.65,1.29-1.33,1.88-2.06.05-.06.13-.11.07-.22-.06,0-.13,0-.19,0-.74.06-1.49.09-2.23.18-1.48.17-2.94.45-4.39.83-.43.11-.86.25-1.29.37-.11.03-.18.09-.22.19-.03.07-.07.14-.1.22-.67,1.42-1.33,2.84-2,4.26-.07.15-.15.29-.21.43-.13.28-.36.37-.65.34-.18-.02-.36-.07-.52-.17-.16-.11-.2-.19-.15-.38.05-.16.11-.33.18-.48.46-1.06.91-2.12,1.37-3.19.06-.13.12-.26.16-.4Z"/>
      <path class="cls-1" d="M21.61,10.44c.45-.06.85-.15,1.23-.3.14-.05.27-.12.41-.17.23-.09.4-.03.52.18.05.09.08.19.12.3-.04.07-.08.14-.12.2-.59.83-1.12,1.7-1.62,2.59-.32.57-.55,1.18-.62,1.84-.02.15-.02.31,0,.46.02.11.05.39.19.41.03,0,.07,0,.1-.01.3-.09.58-.25.81-.46.34-.31.68-.61,1-.94.76-.78,1.44-1.63,2.11-2.49.34-.43.67-.87,1-1.31.21-.27.4-.26.58.03.06.1.07.19,0,.29-.05.08-.1.15-.16.23-.94,1.25-1.92,2.45-2.95,3.63-.3.35-.64.66-1,.94-.24.19-.51.35-.79.47-.68.29-1.44-.08-1.71-.67-.15-.33-.2-.68-.16-1.04.08-.67.31-1.29.67-1.86.31-.48.65-.94.98-1.41.06-.09.13-.18.23-.32-.18.03-.3.06-.42.07-.87.13-1.66-.32-2.03-1.05-.13-.26-.17-.55-.09-.84.18-.59.53-1.03,1.08-1.31.27-.14.53-.11.79.03.05.03.1.06.14.09.6.48.68.95.31,1.56-.14.23-.32.45-.48.67-.04.05-.07.11-.12.2ZM21.93,8.48c-.13-.06-.23-.02-.33.04-.44.28-.74.67-.92,1.16-.06.16-.08.33-.05.51.03.11.1.2.21.19.06,0,.14-.03.18-.07.42-.37.71-.83.93-1.34.07-.16.08-.33-.01-.49Z"/>
      <path class="cls-1" d="M29.21,15.21c-.04.14-.06.28-.11.4-.17.38-.51.52-.91.38-.25-.09-.47-.24-.64-.45-.22-.28-.23-.59-.04-.89.19-.3.53-.45.86-.37.3.08.55.24.7.51.07.12.09.28.14.42Z"/>
      <path class="cls-1" d="M41.16,10.5c.17-.58.35-1.15.4-1.75.03-.4,0-.8-.11-1.19-.16-.54-.5-.92-1.04-1.1-.47-.16-.96-.22-1.46-.18-.75.06-1.46.26-2.15.55-.65.28-2.02,1.13-1.93-.3.02-.27.09-.52.23-.75.15-.25.32-.47.53-.68.41-.41.86-.76,1.36-1.05.93-.54,1.92-.92,2.94-1.24.95-.29,1.93-.5,2.91-.69,1.13-.22,2.27-.34,3.41-.43.66-.05,1.33-.12,1.99-.17.41-.03.82-.06,1.24-.08,1.55-.07,3.1-.11,4.64,0,.71.05,1.42.11,2.13.15.18.01.3.1.37.26.11.27.13.56.06.84-.04.17-.13.22-.31.19-.41-.06-.82-.13-1.23-.17-.65-.07-1.3-.14-1.95-.17-1.55-.09-3.1-.07-4.65,0-.84.04-1.67.11-2.51.17-.06,0-.11.01-.17.02-.04,0-.17.5-.2.56-.07.19-.14.39-.21.58-.14.39-.28.77-.42,1.15-.28.77-.57,1.54-.86,2.3-.17.46-.35.92-.53,1.38-.09.23-.18.46-.27.69-.04.12-.09.23-.13.35-.04.1-.12.24-.12.35.24.04.51-.02.75-.04.28-.02.56-.05.84-.06.55-.03,1.1-.05,1.65-.03.85.02,1.7.06,2.54.2.15.02.29.07.43.11.18.05.29.18.34.36.02.07.04.13.05.2.04.35-.05.47-.41.45-.33-.02-.66-.06-.99-.1-.98-.12-1.97-.15-2.96-.14-.79,0-1.58.07-2.37.16-.1.01-.2.03-.32.05-.05.12-.1.23-.14.35-1.09,2.78-2.19,5.56-3.34,8.32-.08.18-.16.36-.22.54-.06.16-.18.23-.33.26-.26.04-.5-.01-.73-.14-.15-.09-.18-.18-.12-.35.09-.25.18-.5.28-.74.98-2.5,1.97-5.01,2.96-7.51.05-.14.12-.27.15-.43-.06,0-.11,0-.15,0-.78.2-1.55.42-2.27.78-.32.16-.62.34-.93.52-.06.03-.11.08-.17.11-.09.05-.18.03-.25-.04-.11-.12-.17-.27-.19-.43,0-.1.02-.18.09-.25.08-.07.15-.14.23-.2.35-.28.74-.5,1.14-.69.68-.33,1.4-.57,2.13-.76.12-.03.24-.06.36-.09ZM42.43,8.47c.79-1.89,1.56-3.71,2.33-5.53,0-.02-.01-.04-.02-.08-.05,0-.11,0-.16,0-1.37.14-2.72.39-4.06.73-1.08.27-2.13.64-3.12,1.16-.57.3-1.09.68-1.56,1.12-.05.05-.13.09-.14.21.13-.07.24-.12.35-.18.87-.45,1.8-.67,2.79-.61.57.03,1.11.17,1.61.44.35.19.67.43.96.71.27.27.5.58.67.93.08.16.14.33.19.5.06.2.09.41.17.6Z"/>
      <path class="cls-1" d="M51.45,12.45c-.07.52-.03,1.01.22,1.47.18.34.46.53.86.52.2,0,.39-.01.58-.08.33-.13.67-.25.97-.43.78-.44,1.49-.99,2.13-1.62.26-.26.51-.54.74-.83.23-.29.42-.61.64-.91.04-.05.05-.06.11-.05.05,0,.1.02.14.04.08.04.16.09.22.16.14.13.22.28.12.45-.1.18-.21.36-.33.52-.74,1-1.67,1.82-2.73,2.5-.28.18-.57.34-.86.49-.84.45-1.7.42-2.55.06-.96-.4-1.43-1.16-1.44-2.18,0-1.16.46-2.13,1.3-2.93.38-.36.82-.63,1.32-.77.57-.17,1.09-.04,1.53.36.08.07.14.15.2.24.15.23.17.47.05.72-.07.13-.14.26-.24.38-.73.93-1.65,1.58-2.81,1.85-.05.01-.1.04-.17.06ZM51.56,12.03c.33-.12.57-.27.81-.42.53-.34,1.03-.72,1.42-1.22.13-.16.23-.34.33-.52.07-.13.11-.27.04-.43-.11-.07-.24-.08-.36-.04-.16.05-.33.1-.47.19-.89.51-1.45,1.27-1.75,2.24-.02.05-.01.11-.03.21Z"/>
      <path class="cls-1" d="M63.07,11.01c-.1.19-.22.38-.33.57-.99,1.71-2.04,3.38-3.29,4.91-.63.76-1.42,1.73-2.53,1.55-.6-.1-.71-.56-.81-1.08-.07-.36-.07-.73-.03-1.1.1-.96.32-1.9.61-2.81.92-2.9,2.13-5.73,3.65-8.37.52-.9,1.03-1.8,1.61-2.66.13-.19.38-.7.68-.48.15.11.26.5.12.65-.06.11-.11.23-.17.34-.39.73-.79,1.45-1.17,2.18-1.01,1.94-1.95,3.92-2.76,5.95-.75,1.88-1.4,3.86-1.58,5.9-.01.15-.02.3,0,.45.02.16.07.29.15.33.07.04.18.02.31-.07.65-.47,1.2-1.09,1.71-1.71.51-.62.97-1.27,1.42-1.93.35-.52.69-1.05,1.02-1.58.17-.27.33-.55.49-.82.13-.23.24-.46.47-.61.29-.19.6.08.44.39Z"/>
      <path class="cls-1" d="M67.87,11.01c0,.06-.04.11-.06.16-.41.88-.91,1.7-1.57,2.41-.25.27-.52.52-.82.73-.25.18-.52.33-.82.43-.87.32-1.75-.15-2.11-.79-.15-.26-.24-.54-.28-.84-.08-.61.01-1.21.17-1.8.19-.71.48-1.38.86-2.02.08-.14.18-.27.28-.39.12-.14.26-.16.44-.08.18.09.32.22.42.39.08.14.07.29,0,.43-.07.16-.14.31-.22.46-.36.7-.64,1.42-.81,2.19-.1.44-.14.88-.11,1.33.01.21.05.41.14.6.07.15.19.22.36.21.21-.02.4-.08.59-.17.35-.16.66-.38.94-.63.82-.74,1.44-1.62,1.91-2.62.07-.14.14-.29.2-.43.24-.02.36.1.46.26.03.04.02.11.01.16ZM64.11,8.17c-.06-.07-.09-.16-.05-.26.02-.04.02-.09.05-.13.17-.29.32-.58.5-.86.14-.22.26-.25.49-.12.12.06.22.16.32.25.04.04.05.1.08.15-.01.04-.02.09-.04.13-.17.34-.34.67-.52,1.01-.08.15-.15.17-.31.14-.21-.04-.39-.14-.52-.31Z"/>
      <path class="cls-1" d="M74.33,11.19c-.78.17-1.59.25-2.38.46-.04.07-.08.14-.11.21-.5,1.07-1.22,1.96-2.11,2.72-.26.23-.56.4-.87.55-.44.2-.83.13-1.17-.21-.13-.13-.24-.28-.35-.42-.07-.01-.06.05-.07.09-.02.04-.03.09-.05.13-.71,2.15-1.54,4.27-2.34,6.39-.07.19-.16.38-.23.58-.06.16-.17.24-.33.26-.2.03-.39-.01-.56-.11-.13-.07-.16-.15-.12-.29.02-.05.04-.11.06-.16.82-2.33,1.64-4.67,2.45-7.01.63-1.84,1.22-3.7,1.75-5.57.08-.3.18-.59.28-.88.04-.13.1-.26.16-.38.09-.18.21-.22.4-.12.11.06.21.14.3.22.17.15.2.33.14.56-.25.83-.47,1.67-.71,2.51,0,.03,0,.07,0,.17.1-.14.16-.22.22-.3.32-.46.66-.91,1.04-1.32.21-.23.44-.44.71-.6.51-.31.89-.25,1.27.21.36.44.57.94.54,1.52,0,.11-.01.22-.02.35.14.02.26,0,.38-.03.38-.07.77-.12,1.15-.19.13-.02.25,0,.37.06.12.06.21.14.26.26.05.12.01.22-.06.35ZM70.49,12.13s-.06.01-.09.02c-.66.28-1.25.66-1.78,1.13-.22.19-.41.41-.53.67-.06.13-.1.28-.14.42,0,.04.01.08.03.15.09-.03.17-.06.23-.09.37-.18.71-.42,1.01-.7.48-.44.89-.95,1.27-1.48.02-.03.07-.07,0-.12ZM71.62,9.63c0-.16-.03-.32-.14-.45-.19-.07-.36,0-.52.09-.29.15-.53.36-.76.59-.78.75-1.42,1.61-1.95,2.55,0,.01,0,.04.01.06,1.61-1.11,1.46-.93,2.99-1.5.09-.25.19-.49.27-.74.06-.2.1-.4.09-.61Z"/>
      <path class="cls-1" d="M74.59,12.45c-.07.52-.03,1.01.22,1.47.18.34.46.53.86.52.2,0,.39-.01.58-.08.33-.13.67-.25.97-.43.78-.44,1.49-.99,2.13-1.62.26-.26.51-.54.74-.83.23-.29.42-.61.64-.91.04-.05.05-.06.11-.05.05,0,.1.02.14.04.08.04.16.09.22.16.14.13.22.28.12.45-.1.18-.21.36-.33.52-.74,1-1.67,1.82-2.73,2.5-.28.18-.57.34-.86.49-.84.45-1.7.42-2.55.06-.96-.4-1.43-1.16-1.44-2.18,0-1.16.46-2.13,1.3-2.93.38-.36.82-.63,1.32-.77.57-.17,1.09-.04,1.53.36.08.07.14.15.2.24.15.23.17.47.05.72-.07.13-.14.26-.24.38-.73.93-1.65,1.58-2.81,1.85-.05.01-.1.04-.17.06ZM74.69,12.03c.33-.12.57-.27.81-.42.53-.34,1.03-.72,1.42-1.22.13-.16.23-.34.33-.52.07-.13.11-.27.04-.43-.11-.07-.24-.08-.36-.04-.16.05-.33.1-.47.19-.89.51-1.45,1.27-1.75,2.24-.02.05-.01.11-.03.21Z"/>
      <path class="cls-1" d="M94.83,2.2c-.34.81-.62,1.65-1.01,2.44-.09.17-.13.36-.21.54-.38.92-.77,1.84-1.13,2.77-.92,2.31-1.73,4.66-2.24,7.1-.24,1.17-.47,2.34-.59,3.52-.02.18-.05.36-.08.54-.21.14-.42.12-.63.05-.16-.05-.23-.19-.24-.35,0-.17.01-.34.03-.51.07-.71.19-1.41.31-2.11.24-1.4.54-2.79.96-4.15.06-.18.12-.37.14-.57-.03.04-.07.07-.09.11-.3.43-.59.88-.9,1.3-.2.27-.42.52-.65.76-.12.13-.28.24-.43.33-.29.17-.61.19-.93.06-.64-.28-1.05-.74-1.07-1.46-.03-1.17.28-2.25,1.05-3.16.38-.44.86-.67,1.46-.62.42.04.83.38.94.79,0,.02-.01.04-.02.06-.02,0-.04.03-.06.02-.36-.15-.67-.04-.97.17-.2.14-.36.32-.49.52-.39.58-.64,1.21-.73,1.91-.04.32-.1.63-.03.98.06-.01.12-.02.16-.04.27-.17.48-.39.69-.62.62-.71,1.15-1.49,1.61-2.31.59-1.06,1.15-2.14,1.73-3.21.28-.53.56-1.05.83-1.58.52-.99.96-2,1.36-3.04.18-.47.37-.94.57-1.4.12-.29.28-.32.47-.07.28.37.4.77.21,1.22Z"/>
      <path class="cls-1" d="M93.54,12.45c-.07.52-.03,1.01.22,1.47.18.34.46.53.86.52.2,0,.39-.01.58-.08.33-.13.67-.25.97-.43.78-.44,1.49-.99,2.13-1.62.26-.26.51-.54.74-.83.23-.29.42-.61.64-.91.04-.05.05-.06.11-.05.05,0,.1.02.14.04.08.04.16.09.22.16.14.13.22.28.12.45-.1.18-.21.36-.33.52-.74,1-1.67,1.82-2.73,2.5-.28.18-.57.34-.86.49-.84.45-1.7.42-2.55.06-.96-.4-1.43-1.16-1.44-2.18,0-1.16.46-2.13,1.3-2.93.38-.36.82-.63,1.32-.77.57-.17,1.09-.04,1.53.36.08.07.14.15.2.24.15.23.17.47.05.72-.07.13-.14.26-.24.38-.73.93-1.65,1.58-2.81,1.85-.05.01-.1.04-.17.06ZM93.65,12.03c.33-.12.57-.27.81-.42.53-.34,1.03-.72,1.42-1.22.13-.16.23-.34.33-.52.07-.13.11-.27.04-.43-.11-.07-.24-.08-.36-.04-.16.05-.33.1-.47.19-.89.51-1.45,1.27-1.75,2.24-.02.05-.01.11-.03.21Z"/>
      <path class="cls-1" d="M117.13,11.44c-.5.05-1.01.09-1.5.16-.88.13-1.75.34-2.61.56-.28.07-1.45.36-1.58.68-.72,1.68-1.62,3.29-2.68,4.79-.53.75-1.09,1.51-1.73,2.18-.59.62-1.14,1.32-1.88,1.78-.82.52-1.77.65-2.57.02-.63-.5-.94-1.32-.87-2.11.06-.65.25-1.25.56-1.83.31-.58.71-1.1,1.18-1.56,1.16-1.15,2.47-2.08,3.92-2.83.77-.39,1.55-.74,2.36-1.03.08-.03.15-.06.23-.08.19-.05.32-.16.39-.34.14-.35.31-.69.46-1.04.59-1.42,1.17-2.84,1.66-4.29.36-1.05.57-2.12.56-3.23,0-.37-.04-.73-.11-1.09-.1-.53-.41-.84-.92-1-.51-.15-1.02-.16-1.53-.02-1.02.28-1.94.75-2.75,1.45-.64.56-1.22,1.19-1.7,1.89-.87,1.25-1.31,2.64-1.27,4.17,0,.23.02.46.05.69.02.15.21.67-.09.45-.16-.12-.19-.4-.24-.56-.11-.38-.14-.78-.17-1.18-.12-1.62.29-3.11,1.21-4.46.43-.64.93-1.22,1.48-1.76.79-.76,1.71-1.3,2.75-1.65.51-.17,1.03-.23,1.56-.14,1.01.17,1.72.88,2.07,1.83.83,2.3.14,5.03-.59,7.28-.21.64-.43,1.28-.65,1.92-.04.11.11.21.26.19.87-.11,1.71-.35,2.58-.48.52-.08,1.05-.13,1.57-.19.07,0,.14-.01.2.02.33.15.5.22.59.58.04.16-.03.23-.2.25ZM109.32,13.62c-.08.04-.18.07-.27.12-.49.24-.99.48-1.47.74-1.14.61-2.15,1.39-3.09,2.28-.17.16-.34.34-.49.53-.43.51-.78,1.08-.97,1.72-.13.42-.21.85-.17,1.29.02.22.03.65.26.7.05.01.12,0,.2-.03,1.3-.6,2.21-1.7,3.09-2.8.94-1.17,1.78-2.41,2.54-3.7.12-.21.24-.42.36-.62.02-.03.03-.06.05-.09.02-.04.03-.08-.04-.12Z"/>
      <path class="cls-1" d="M117.45,12.45c-.07.52-.03,1.01.22,1.47.18.34.46.53.86.52.2,0,.39-.01.58-.08.33-.13.67-.25.97-.43.78-.44,1.49-.99,2.13-1.62.26-.26.51-.54.74-.83.23-.29.42-.61.64-.91.04-.05.05-.06.11-.05.05,0,.1.02.14.04.08.04.16.09.22.16.14.13.22.28.12.45-.1.18-.21.36-.33.52-.74,1-1.67,1.82-2.73,2.5-.28.18-.57.34-.86.49-.84.45-1.7.42-2.55.06-.96-.4-1.43-1.16-1.44-2.18,0-1.16.46-2.13,1.3-2.93.38-.36.82-.63,1.32-.77.57-.17,1.09-.04,1.53.36.08.07.14.15.2.24.15.23.17.47.05.72-.07.13-.14.26-.24.38-.73.93-1.65,1.58-2.81,1.85-.05.01-.1.04-.17.06ZM117.55,12.03c.33-.12.57-.27.81-.42.53-.34,1.03-.72,1.42-1.22.13-.16.23-.34.33-.52.07-.13.11-.27.04-.43-.11-.07-.24-.08-.36-.04-.16.05-.33.1-.47.19-.89.51-1.45,1.27-1.75,2.24-.02.05-.01.11-.03.21Z"/>
      <path class="cls-1" d="M128.32,11.28c-.47.19-.95.38-1.43.53-.47.17-.94.36-1.41.55-.03.01-.06.03-.11.07,0,.07,0,.28,0,.34.01.46-.16.85-.46,1.19-.7.78-2.12,1.35-3.04.58-.25-.21-.29-.5-.09-.76.17-.23.4-.41.64-.57.51-.33,1.04-.62,1.59-.89.1-.05.2-.1.31-.16.03-.02-.04-.3-.04-.34-.03-.11-.07-.22-.12-.32-.11-.21-.26-.37-.42-.53-.26-.26-.51-.54-.69-.86-.19-.36-.2-.72,0-1.09.11-.22.25-.41.43-.57.33-.28.7-.49,1.12-.57.52-.11.98.03,1.34.42.07.07.13.16.12.25,0,.15-.14.12-.26.1-.51-.08-1.14.12-1.48.47-.33.33-.54,1-.16,1.44.16.19.35.38.51.57.11.12.2.26.29.39.11.15.15.28.34.2.83-.32,1.68-.61,2.5-.95.29-.12.79-.39,1.07-.11.33.32-.37.52-.57.6ZM124.06,13.01c-.09,0-.21.08-.29.11-.14.05-.27.11-.4.18-.4.2-.91.45-1.01.93-.01.05,0,.09.01.12.09.13.48,0,.59-.05.38-.14.75-.43,1-.75.07-.09.35-.56.09-.54Z"/>
      <path class="cls-1" d="M137.68,11.4c-.12.16-.24.32-.36.48-.53.67-1.12,1.28-1.8,1.79-.32.24-.66.46-1.03.62-.36.17-.73.27-1.13.25-.88-.05-1.58-.71-1.67-1.59-.02-.2,0-.41,0-.61-.08-.06-.12,0-.16.04-.33.34-.68.65-1.07.92-.28.2-.57.38-.91.48-.39.12-.77.1-1.14-.07-.41-.19-.63-.51-.66-.96-.02-.32.02-.64.11-.95.31-1.06.86-1.99,1.59-2.82.04-.04.08-.08.12-.12.1-.09.21-.15.34-.1.17.07.3.17.35.35.01.05,0,.12-.03.16-.08.15-.16.31-.24.45-.31.54-.6,1.08-.84,1.65-.19.46-.35.92-.4,1.42-.02.19-.03.39.06.56.16.03.28-.04.41-.1.37-.17.69-.41.98-.69.82-.78,1.51-1.66,2.07-2.64.12-.21.23-.42.34-.64.07-.14.17-.18.31-.11.14.07.27.18.39.28.11.09.13.21.09.35-.05.15-.11.3-.17.45-.23.55-.42,1.12-.55,1.7-.1.45-.14.9-.11,1.37.01.18.06.36.14.53.06.13.16.19.3.19.22,0,.43-.04.64-.11.53-.17.99-.47,1.42-.82.83-.67,1.5-1.48,2.1-2.35.03-.04.05-.08.07-.12.08-.11.14-.13.26-.06.15.09.27.22.33.38.06.16-.08.32-.17.44Z"/>
      <path class="cls-1" d="M142.09,11.28c-.47.19-.95.38-1.43.53-.47.17-.94.36-1.41.55-.03.01-.06.03-.11.07,0,.07,0,.28,0,.34.01.46-.16.85-.46,1.19-.7.78-2.12,1.35-3.04.58-.25-.21-.29-.5-.09-.76.17-.23.4-.41.64-.57.51-.33,1.04-.62,1.59-.89.1-.05.2-.1.31-.16.03-.02-.04-.3-.04-.34-.03-.11-.07-.22-.12-.32-.11-.21-.26-.37-.42-.53-.26-.26-.51-.54-.69-.86-.19-.36-.2-.72,0-1.09.11-.22.25-.41.43-.57.33-.28.7-.49,1.12-.57.52-.11.98.03,1.34.42.07.07.13.16.12.25,0,.15-.14.12-.26.1-.51-.08-1.14.12-1.48.47-.33.33-.54,1-.16,1.44.16.19.35.38.51.57.11.12.2.26.29.39.11.15.15.28.34.2.83-.32,1.68-.61,2.5-.95.29-.12.79-.39,1.07-.11.33.32-.37.52-.57.6ZM137.83,13.01c-.09,0-.21.08-.29.11-.14.05-.27.11-.4.18-.4.2-.91.45-1.01.93-.01.05,0,.09.01.12.09.13.48,0,.59-.05.38-.14.75-.43,1-.75.07-.09.35-.56.09-.54Z"/>
      <path class="cls-1" d="M156.54,11.48s.04.06.06.07c1.05.69,2.05,1.47,3.06,2.22.62.47,1.27.9,1.93,1.31.53.33,1.06.63,1.59.96,1.14.69,2.39,1.05,3.71,1.17.81.07,1.6-.05,2.37-.34.05-.02.11-.05.16-.07.17-.06.26-.03.33.14.12.3.1.6-.03.9-.04.1-.12.17-.23.19-.71.19-1.42.39-2.16.41-.51.01-1.01-.07-1.5-.15-.74-.12-1.44-.37-2.11-.7-1.47-.72-2.85-1.58-4.15-2.57-.72-.55-1.44-1.09-2.17-1.63-.57-.42-1.18-.79-1.83-1.08-.91-.4-1.85-.49-2.83-.29-.25.05-.49.11-.73.18-.17.05-.35.12-.51.2-.45.22-.48.26-.67.73-.54,1.36-1.08,2.73-1.62,4.09-.08.2-.17.4-.24.61-.06.18-.2.25-.37.26-.1,0-.21-.01-.31-.04-.33-.08-.42-.21-.38-.54.02-.17.06-.34.11-.5.21-.68.43-1.35.66-2.03.2-.57.42-1.14.62-1.71.42-1.15.93-2.27,1.46-3.37.3-.62.6-1.23.89-1.86.52-1.14,1.15-2.22,1.75-3.31.08-.15.18-.29.29-.43.11-.15.26-.18.43-.11.25.11.44.28.56.53.06.13.05.26-.02.39-.61,1.04-1.11,2.14-1.64,3.21-.36.72-.69,1.45-1.03,2.17-.04.09-.12.17-.08.31.09-.03.18-.05.26-.08.53-.17,1.07-.25,1.62-.23.36.01.73-.05,1.09-.11,1.73-.29,3.34-.9,4.85-1.78.97-.57,1.87-1.25,2.62-2.1.34-.39.63-.81.88-1.27.17-.31.28-.65.34-1,.07-.41-.02-.77-.28-1.1-.22-.27-.48-.49-.77-.68-.56-.35-1.17-.58-1.82-.71-1.11-.23-2.23-.24-3.35-.09-1.91.26-3.7.88-5.35,1.87-.73.44-1.4.95-2,1.57-.48.5-.9,1.04-1.19,1.67-.21.45-.33.93-.32,1.43.01.61.23,1.14.66,1.58.11.11.22.2.33.3.06.06.12.13.22.23-.09,0-.13.01-.17,0-.26-.12-.49-.3-.7-.5-1-.93-1.32-2.06-.98-3.38.18-.7.53-1.31.97-1.88.62-.8,1.39-1.46,2.23-2.03,1.51-1.02,3.17-1.69,4.95-2.08,1.09-.24,2.2-.33,3.32-.27.8.04,1.57.19,2.31.48.28.11.55.24.8.39,1.03.63,1.63,1.55,1.85,2.73.16.85.05,1.66-.27,2.46-.35.87-.9,1.59-1.58,2.23-.98.93-2.11,1.61-3.34,2.15-.75.33-1.52.57-2.32.76-.06.01-.11.03-.17.05-.02,0-.04.02-.08.05Z"/>
      <path class="cls-1" d="M172.75,11.23c-.75.72-1.51,1.4-2.41,1.93-.31.18-.62.34-.95.49-.26.12-.54.18-.83.2-.72.05-1.38-.51-1.53-1.14-.07-.29-.1-.59-.05-.89.01-.07.02-.15.03-.28-.1.08-.16.12-.21.17-.25.23-.49.48-.76.7-.25.21-.51.39-.77.57-.25.17-.53.27-.83.31-.24.03-.46-.02-.66-.15-.3-.19-.53-.44-.68-.76-.19-.4-.16-.81.01-1.2.32-.7.82-1.25,1.54-1.55.63-.26,1.19-.09,1.6.36.08.08.16.17.12.32-.07,0-.15.02-.22,0-.5-.06-.92.1-1.29.44-.36.33-.64.72-.83,1.17-.1.23-.1.3-.07.58.06,0,.13,0,.19-.01.18-.07.37-.14.54-.23.47-.26.89-.6,1.28-.98.4-.4.78-.81,1.17-1.21.05-.05.1-.1.14-.15.14-.17.23-.22.46-.02.27.24.34.56.28.91-.06.32-.15.62-.2.94-.05.29-.07.59-.08.89,0,.16.03.32.06.48.02.13.12.19.24.21.21.03.41-.02.61-.08.31-.08.61-.21.89-.37.63-.36,1.2-.8,1.74-1.28.35-.31.68-.64,1.02-.97.12-.12.21-.13.32-.01.08.08.14.18.19.28.08.15.06.22-.06.34Z"/>
      <path class="cls-1" d="M184.54,11.29c-.11.15-.27.27-.41.4-.15.14-.29.27-.44.41-.29.27-.59.54-.89.8-.32.28-.64.55-.97.82-.27.21-.56.4-.85.57-.16.09-.33.15-.51.21-.23.08-.45.04-.66-.08-.55-.3-.88-.99-.77-1.6.06-.34.17-.67.32-.98.11-.23.22-.45.33-.68.03-.07.06-.14.1-.25-.07.01-.12.01-.15.03-.16.08-.33.17-.48.26-.76.46-1.46,1-2.04,1.67-.13.15-.26.29-.39.43-.1.1-.17.1-.3,0-.17-.12-.34-.24-.46-.41-.13-.17-.18-.35-.16-.58.05-.58.22-1.12.47-1.64.21-.44.43-.88.65-1.33-.06-.06-.1-.02-.15.01-.21.14-.43.27-.63.42-1.11.85-2.13,1.77-2.99,2.87-.32.41-.63.82-.93,1.24-.09.13-.15.28-.22.42-.05.11-.12.16-.24.17-.28.01-.52-.09-.71-.29-.08-.08-.11-.17-.07-.28.08-.2.14-.41.22-.61.44-1.06.88-2.11,1.33-3.17.17-.4.39-.78.58-1.17.03-.06.07-.12.1-.18.06-.09.15-.11.24-.09.24.07.42.22.55.44.05.1.05.2,0,.3-.06.16-.13.32-.19.48-.17.41-.34.83-.51,1.24-.02.06-.04.12-.06.19l.04.02s.08-.07.11-.11c.59-.66,1.23-1.27,1.89-1.85.59-.52,1.23-.96,1.97-1.24.04-.02.09-.03.13-.05.35-.15.5-.03.68.2.21.28.27.57.11.9-.08.16-.15.33-.24.5-.31.62-.59,1.26-.84,1.92-.05.12-.12.25-.1.42.07-.07.13-.13.18-.18.53-.61,1.16-1.11,1.85-1.52.22-.13.46-.21.71-.26.2-.04.37.02.5.16.25.26.39.56.27.94-.1.3-.21.6-.32.91-.12.36-.24.72-.34,1.08-.03.1-.15.57.03.55.33-.03.67-.27.95-.45.42-.27.79-.6,1.17-.93.42-.36.84-.71,1.25-1.07.2-.17.4-.34.6-.51.05-.04.1-.09.15-.14.14-.12.21-.12.36,0,.17.14.28.47.14.66Z"/>
      <path class="cls-1" d="M190.28,11.26s-.04.03-.05.04c-.79.6-1.73,1.27-2.77,1.37-.15.01-.29.04-.46.06-.05.07-.11.14-.17.21-.43.51-.93.92-1.54,1.19-.25.11-.51.19-.79.21-.45.02-.87-.1-1.22-.38-.44-.34-.62-.79-.53-1.33.1-.6.41-1.09.85-1.49.06-.05.13-.1.2-.14.15-.1.31-.13.49-.04.04.02.08.03.15.05-.02-.1-.04-.16-.05-.23-.18-.74.1-1.34.77-1.7.2-.11.42-.19.65-.21.55-.05,1,.14,1.35.55.55.64.7,1.37.42,2.18-.03.09-.06.17-.1.27.3,0,.58-.12.85-.24.3-.13.59-.29.88-.46.24-.15.48-.31.71-.47.14-.1.28-.23.43-.07.15.15.12.51-.06.63ZM185.73,12.44c-.2-.16-.4-.3-.57-.46-.17-.16-.33-.35-.49-.52-.08.11-.16.21-.24.3-.23.29-.42.6-.54.95-.08.23-.13.46-.11.71,0,.13.02.25.13.35.17.04.34,0,.49-.09.2-.12.39-.24.56-.39.24-.21.45-.46.67-.69.04-.05.07-.11.11-.16ZM186.93,9.99c-.08-.05-.16-.1-.24-.12-.48-.11-.94-.05-1.32.28-.38.33-.44.82-.16,1.23.21.32.5.52.88.59.03-.02.05-.03.07-.04.32-.43.58-.9.79-1.4.05-.11.06-.24.08-.37.01-.07-.02-.14-.09-.17Z"/>
      <path class="cls-1" d="M194.66,11.28c-.47.19-.95.38-1.43.53-.47.17-.94.36-1.41.55-.03.01-.06.03-.11.07,0,.07,0,.28,0,.34.01.46-.16.85-.46,1.19-.7.78-2.12,1.35-3.04.58-.25-.21-.29-.5-.09-.76.17-.23.4-.41.64-.57.51-.33,1.04-.62,1.59-.89.1-.05.2-.1.31-.16.03-.02-.04-.3-.04-.34-.03-.11-.07-.22-.12-.32-.11-.21-.26-.37-.42-.53-.26-.26-.51-.54-.69-.86-.19-.36-.2-.72,0-1.09.11-.22.25-.41.43-.57.33-.28.7-.49,1.12-.57.52-.11.98.03,1.34.42.07.07.13.16.12.25,0,.15-.14.12-.26.1-.51-.08-1.14.12-1.48.47-.33.33-.54,1-.16,1.44.16.19.35.38.51.57.11.12.2.26.29.39.11.15.15.28.34.2.83-.32,1.68-.61,2.5-.95.29-.12.79-.39,1.07-.11.33.32-.37.52-.57.6ZM190.4,13.01c-.09,0-.21.08-.29.11-.14.05-.27.11-.4.18-.4.2-.91.45-1.01.93-.01.05,0,.09.01.12.09.13.48,0,.59-.05.38-.14.75-.43,1-.75.07-.09.35-.56.09-.54Z"/>
    </g>
  </g>
</svg>