<?xml version="1.0" encoding="UTF-8"?>
<svg id="Capa_2" data-name="Capa 2" xmlns="http://www.w3.org/2000/svg" viewBox="0 0 862.01 180.57">
  <defs>
    <style>
      .cls-1 {
        fill: #fff;
      }
    </style>
  </defs>
  <g id="Layer_1" data-name="Layer 1">
    <g>
      <path class="cls-1" d="M244.84,72.23l12.47-9.03c17.61-12.57,54.37-8.89,57.42,16.64,1.64,13.77,1.56,47.99.17,61.95-.92,9.24-14.42,7.53-20.57,4.45-1.85-17.87.78-36.78-.45-54.55-1.04-15.13-3.84-21.32-20.55-19.47-10.47,1.16-21.65,9.95-28.29,17.71-2.11,9.51,2.55,51.14-1.28,56.72-2.9,4.23-23.08,4.76-20.97-4.87l.97-121.12c3.35-3.86,21.07-5.56,21.07,1.07v50.5Z"/>
      <path class="cls-1" d="M177.53,59.54c2.93,3.14,4.87,13.1-2.04,12.62-11.03-.77-26.68-7.1-37.16.06-19.07,13.04,27.97,24.66,34.73,28.29,21.19,11.38,21.15,33.44-.86,43.57-18.85,8.68-39.73,5.06-59.22,1.01l-.54-14.97c1.37-1.03,18.5,4.23,22.2,4.81,9.33,1.46,24.18,2.89,30.21-6.2,3.34-5.04.89-10.08-3.67-13.34-12.87-9.23-44.09-11.93-47.89-30.11-4.38-20.94,18.37-28.92,35.07-30.05,5.81-.39,25.38.24,29.17,4.3Z"/>
      <path class="cls-1" d="M50.84,98.22c35.82,2.57,39.53,40.18,3.03,48.54-17.06,3.91-34.8,2.1-51.9-.67.29-3.19-4.24-12.48-.48-13.73s19.52,3.44,24.86,3.85c8.43.65,27.88-.15,31.55-9.41,4.85-12.21-7.57-19.39-17.82-21.32-5.09-.96-14.46-.26-18.55-1.45s-2.98-8.58-1.56-11.66c9.76-.26,34.25.5,35.83-12.73.74-6.23-3.16-8.73-8.53-10.35-14.84-4.46-31.03-.21-45.44,3.93,2.72-7.96-2.13-13.68,7.96-16.53,14.39-4.06,47.68-3.37,59.54,6.54,8.33,6.96,7.32,19.43-1.17,25.83l-17.33,9.16Z"/>
      <path class="cls-1" d="M555.12,58.45c-20.55-7.45-39.15-1.23-54.76,12.78-.99-13.18-7.6-17.53-20.05-12.05l-.46,117.54c.9,5.66,21,4.24,21,1v-38.5c18.34,12.35,43.75,14.64,61.48-.02,23.8-19.68,24.92-69.11-7.2-80.75ZM531.34,135.21c-8.04.67-28.91-3.89-30.44-13.54-.56-3.55-.42-35.72.43-37.45,6.5-5.45,15.71-11.48,24.27-12.73,17.11-2.5,28.59,5.94,30.22,23.26,1.71,18.15-3.1,38.69-24.49,40.47Z"/>
      <path class="cls-1" d="M377.35,52.24c-13.84,1.72-22.52,3.36-18.51,19.99,16-3.84,62.74-15.39,57.06,13.56-17.99.92-41.65.6-56.54,12.46-16.5,13.14-13.45,37.46,4.95,47.01,17.3,8.97,35.6,2.06,51.22-6.91l1.8.86c1.29,1.43,1.7,4.74,2.76,5.76,2.22,2.15,11.61,1.33,14.82.82l.94-69.07c-2.81-25.88-38.75-26.94-58.5-24.48ZM416.84,120.73c0,5.94-22.35,12.19-27.53,12.49-6.86.4-18.13-2.62-19.41-10.55-1.82-11.28,3.7-16.7,13.71-20.17,3.54-1.23,13.29-3.27,16.73-3.27h16.5v21.5Z"/>
      <path class="cls-1" d="M856.76,64.81L763.8.77c-7.77-2.19-9.86.27-11.68,7.23-7.44,28.36-7.99,62.04-15.21,90.89-.5,3.87,2.07,7.07,5.67,8.17l116.96-29.13c4.59-6.04,2.26-8.96-2.79-13.11ZM763.81,21.7c1.88-1.95,4.38-3.23,6.74-1.17,3.77,3.29,2.82,11.02,1.35,15.25l-23.05,46.44,14.96-60.52ZM831.36,66.23c-1.72,1.35-3.59,2.48-5.53,3.48-14.51,7.5-38.73,15.46-54.73,21.27-5.94,2.16-22.85,11.03-17.09-2.1,11.31-13.42,19.38-33.61,30.43-46.56,2.06-2.42,3.79-4.4,7.18-4.89,3.16-.46,4.29.21,6.94,1.61,5.52,2.91,25.72,16.7,30.21,20.78,2.06,1.87,4.29,3.16,2.6,6.41Z"/>
      <path class="cls-1" d="M632.95,117.62c-1.04-2.41-3.93-11.35-.61-12.39h65c.39,0,2.25-1.16,2.57-1.68,9.41-68.77-98.87-62.74-91.95,3.06,3.93,37.39,50.28,46.35,80.72,38.96,3.93-.95,8.15-1.85,10.65-5.35l1.51-11.98c-19.03,7.23-57.83,12.65-67.88-10.62ZM678.84,91.23h-49c2.23-29.14,50.22-30.98,49,0Z"/>
    </g>
  </g>
</svg>