<?xml version="1.0" encoding="UTF-8"?>
<svg id="Capa_2" data-name="Capa 2" xmlns="http://www.w3.org/2000/svg" viewBox="0 0 938.3 300.65">
  <defs>
    <style>
      .cls-1 {
        fill: #154b96;
      }

      .cls-2 {
        fill: #abcb25;
      }
    </style>
  </defs>
  <g id="Capa_1-2" data-name="Capa 1">
    <g>
      <path class="cls-1" d="M195.31,0c50.89,10.7,80.48,59.98,64.85,110.31-6.02,19.37-15.62,25.5-29.12,38.22-1.16,1.09-1.96,2.3-1.04,3.41.56.68,9.69,5.84,12.2,8.46,43.49,45.44,19.75,125.83-42.72,136.97-2.89.52-5.76.21-7.47,3.27H35.15c-17.79-4.51-31.37-16.23-33.09-35.45-6.56-73.55,5.06-156.77.06-231.35C3.97,16.75,15.12,8.37,28.55,0h166.76ZM82.6,69.78c-7.12,1.27-10.34,4.77-11.16,11.96-1.16,10.07-2.75,32.47,9.47,35.2l93.65.25c26.06-5.63,25.09-42.19-.27-47.42-10.98-2.27-80.13-2.05-91.69.02ZM75.24,185.48c-5.43,5.44-8.02,42.02,5.36,44.1l95.34-.34c27.85-8.45,23.64-42.98-5-47.09-17.45-2.51-67.64-2.46-85.46-.47-2.74.31-8.4,1.98-10.23,3.81Z"/>
      <path class="cls-1" d="M490.85,0c33.13,7.01,63.74,29.51,73.07,63.17,2.91,10.5,8.41,26.03-6.18,27.71-9.45,1.09-47.73,1.56-56.13-.06-6.49-1.26-7.35-10.68-12.03-14.86-3.51-3.13-10.19-5.46-14.85-6.15-16.13-2.39-57.15-2.03-73.94-.5-10.75.97-20.25,4.84-23.95,15.68-4.9,14.33,2.05,30.08,17.53,32.19,37.28,5.08,77.71-6.54,115.44,5.99,50.35,16.72,68.94,72.92,50.68,120.78-12.44,32.62-39.33,50.53-72.95,56.69h-104.02c-29.51-6.71-56.03-24.13-69.64-51.74-4.52-9.17-18.08-41.66-2.09-43.92,9.37-1.32,47.65,1.35,57.35,3.49,10.07,2.23,8.87,19.33,28.33,21.21,14.78,1.43,69.26,2.19,82.26-.46,24.12-4.91,23.59-42.91-5.01-47.1-46.39-6.78-94.9,14.31-136.57-18.64-46.95-37.14-44.34-113.15,5.88-146.01,14.54-9.52,27.97-12.79,44.44-17.49h102.37Z"/>
      <path class="cls-2" d="M670.82,0c8.4,7.71,7.44,18.97,10.74,29.73,27.68,90.22,154.47,90.51,181.97,2.02,3.46-11.14,1.87-25.16,12.03-31.74h56.14l6.6,8.26v18.17l-14.06,42.92c-61.19,141.98-269,129.33-310.37-21.45-3.54-12.91-11.6-39.36.82-47.9h56.14Z"/>
      <path class="cls-1" d="M938.3,95.81v194.93l-11.56,9.91h-59.44c-4.94-5.46-8.96-5.56-9.94-14.01-2.59-22.23-2.05-74.77-.03-97.57,1.77-19.95,15.56-21.74,28.16-32.95,12.37-11.02,24.87-24.76,34.34-38.33,4.09-5.86,8.26-16.09,12.07-20.97,2.4-3.07,3.13-3.35,6.4-1.02Z"/>
      <path class="cls-1" d="M616.33,300.65c-2.41-1.31-8.26-8.92-8.26-10.74V94.16c3-.58,4.1,1.47,5.68,3.41,17.39,21.43,23.03,39.03,46.79,59.36,14.01,11.98,26.55,11.11,28.49,33.81,1.89,22.03,2.55,72.92-.02,94.26-1.06,8.8-5.12,13.13-13.25,15.66h-59.44Z"/>
    </g>
  </g>
</svg>