<?xml version="1.0" encoding="UTF-8"?>
<svg id="Capa_2" data-name="Capa 2" xmlns="http://www.w3.org/2000/svg" viewBox="0 0 2160.8 584.93">
  <defs>
    <style>
      .cls-1 {
        fill: #fff;
      }

      .cls-2 {
        fill: #9c6728;
      }
    </style>
  </defs>
  <g id="Capa_1-2" data-name="Capa 1">
    <g>
      <path class="cls-1" d="M435.27,247.56h-124.97c-.4,0-.6-.6-.6-1.79s.2-1.79.6-1.79c7.35,0,12.83-.49,16.4-1.49,3.58-.99,6.01-2.98,7.31-5.96,1.29-2.98,1.94-7.35,1.94-13.12V85.3c0-5.76-.65-10.09-1.94-12.97-1.3-2.88-3.73-4.87-7.31-5.97-3.58-1.09-9.05-1.64-16.4-1.64-.4,0-.6-.6-.6-1.79s.2-1.79.6-1.79h119.9c1.79,0,2.69.9,2.69,2.68l.6,36.69c0,.6-.55.95-1.64,1.04-1.09.1-1.64-.15-1.64-.75-.6-10.74-3.83-18.99-9.69-24.76-5.87-5.76-13.47-8.65-22.82-8.65h-18.19c-6.76,0-11.88.5-15.36,1.49-3.48,1-5.87,2.88-7.16,5.67-1.29,2.79-1.94,6.86-1.94,12.23v135.41c0,5.17.64,9.15,1.94,11.93,1.29,2.79,3.58,4.67,6.86,5.67,3.28,1,8.2,1.49,14.76,1.49h23.86c9.54,0,17.55-3.43,24.01-10.29,6.46-6.86,10.69-16.15,12.68-27.89,0-.6.6-.79,1.79-.6,1.19.2,1.79.6,1.79,1.19-.8,5.17-1.45,11.44-1.94,18.79-.5,7.36-.75,14.22-.75,20.58,0,2.98-1.59,4.47-4.77,4.47ZM418.57,178.06c0-8.75-2.14-15.01-6.41-18.79-4.28-3.77-11.38-5.67-21.32-5.67h-44.74v-6.26h45.63c9.54,0,16.35-1.64,20.43-4.92,4.07-3.28,6.12-8.6,6.12-15.96,0-.4.6-.6,1.79-.6s1.79.2,1.79.6c0,5.96-.05,10.59-.15,13.87-.1,3.28-.15,6.71-.15,10.29,0,4.58.1,9.05.3,13.42.2,4.38.3,9.05.3,14.02,0,.4-.6.6-1.79.6s-1.79-.2-1.79-.6Z"/>
      <path class="cls-1" d="M508.34,85.6v136.6c0,5.37.6,9.45,1.79,12.23,1.19,2.79,3.48,4.62,6.86,5.52,3.38.89,8.45,1.34,15.21,1.34h32.51c11.53,0,20.68-3.63,27.44-10.89,6.76-7.26,11.13-16.75,13.12-28.48,0-.6.54-.84,1.64-.75,1.09.1,1.64.45,1.64,1.04-.6,5.37-1.19,11.88-1.79,19.54-.6,7.66-.9,14.76-.9,21.33,0,2.98-1.49,4.47-4.47,4.47h-137.8c-.4,0-.6-.6-.6-1.79s.2-1.79.6-1.79c7.16,0,12.57-.49,16.26-1.49,3.68-.99,6.11-2.98,7.31-5.96,1.19-2.98,1.79-7.35,1.79-13.12V85.3c0-5.76-.6-10.09-1.79-12.97-1.19-2.88-3.63-4.87-7.31-5.97-3.68-1.09-9.1-1.64-16.26-1.64-.4,0-.6-.6-.6-1.79s.2-1.79.6-1.79c4.77,0,10.14.15,16.11.45,5.97.3,12.23.45,18.79.45,6.96,0,13.42-.15,19.39-.45,5.96-.3,11.23-.45,15.81-.45.6,0,.89.6.89,1.79s-.3,1.79-.89,1.79c-7.16,0-12.58.55-16.26,1.64-3.68,1.1-6.11,3.13-7.31,6.11-1.19,2.98-1.79,7.36-1.79,13.12Z"/>
      <path class="cls-2" d="M789.1,0c.16,1.33,4.89,2.9,14.17,4.72.83,1.16,1.24,2.16,1.24,2.98l1.99-1.24h1.49c7.12,0,16.24,8.12,27.34,24.36,1.49,4.64,2.24,7.29,2.24,7.95l-1.99.25c-.33-3.31-3.23-9.2-8.7-17.65h-.99l.25.99,5.72,10.19-.5,4.97,1.49,7.95c.16,1.49.66,2.73,1.49,3.73-.33.66-.5,1.41-.5,2.24,0,.5.08,1.08.25,1.74,1.16,3.48,1.74,5.47,1.74,5.96-.99.17-1.49.75-1.49,1.74,0,.5.08.99.25,1.49l-1.99.25c-.33-1.49-.91-2.82-1.74-3.98l1.24-5.22c-.17-.5-.42-.75-.75-.75h-.25v-3.98c-.83-4.8-2.65-10.19-5.47-16.16h-.99l.5,2.98,1.24,1.99c-1.16.33-1.74,1-1.74,1.99v.25l1.49,8.7h.75c.83,0,1.24.25,1.24.75l.99,3.98-.99.25c-.66-2.65-1.24-3.98-1.74-3.98-1.66.83-2.49,1.58-2.49,2.24v.25c0,.5.25.75.75.75h.25c.16,2.82.25,5.06.25,6.71,0,2.16-.17,3.32-.5,3.48,0,.5.25.75.75.75h.25l-.25,5.22.75,3.98-1.99.25-.75-2.98c-.83.17-1.24.99-1.24,2.49,0,.66.08,1.58.25,2.73.99.33,1.82.5,2.48.5h.5c.16.66.25,1.24.25,1.74,0,2.16-1.08,3.4-3.23,3.73l.99,6.96-1.99-.5.25,1.74,2.49,2.73-1.99.25.25,1.99,1.99-.25.25.99c-1.16,0-2.07.75-2.73,2.24l1.24,1.74-1.24,3.23v.99l1.99-.25.25,1.99v.25c0,.99-1.16,2.16-3.48,3.48l1.49,1.74v.99l-1.99.5.25,1.99h.25c.99,0,2.49,1.33,4.47,3.98l1.99.75.5-3.98.99-.25.5,2.98c-2.82,3.65-4.23,6.96-4.23,9.94,0,.66.08,1.24.25,1.74-.83-.33-1.58-.5-2.24-.5-.33,0-.66.08-.99.25l-.25-.99c1.65-.33,2.49-1.82,2.49-4.47,0-.66-.09-1.41-.25-2.24-.66.17-.99.58-.99,1.24l-1.99-.5h-.99v1.49c0,2.32-.74,3.65-2.24,3.98-.17-.66-.58-.99-1.24-.99l.25,1.99,1.99-.25v3.73c0,3.32-.17,5.47-.5,6.46l.74,2.98c-.5,0-.74.25-.74.75v.25c.16,1.49.25,3.07.25,4.72,0,5.14-.91,11.43-2.73,18.89l-1.99.25v-.99c0-3.31.75-5.05,2.24-5.22-1.33-2.32-2.48-3.48-3.48-3.48h-.25v.99l1.49,1.74c-.99.17-1.49,1.16-1.49,2.98,0,.66.08,1.41.25,2.24l-1.99.5v-.99l.5-2.24-.99.25c-.17-.66-.25-1.24-.25-1.74,0-2.98,1.41-4.72,4.22-5.22h.99l-.25-1.99c-.17-.99-.91-1.49-2.24-1.49h-.99l-.99-4.72,1.99-.25.74,2.49c.99-.16,1.49-.66,1.49-1.49v-.75l-.25-1.99-1.99.75c.5-3.15.74-5.55.74-7.21,0-.99-.08-1.74-.25-2.24l-1.24-1.74c.33-.83.5-1.82.5-2.98v-.99c-1.99.33-2.98,5.14-2.98,14.42l-1.99.25-.25-2.98.75-1.99h-.25c-.99,0-2.24-1.49-3.73-4.47l.99-.25,2.24.75v-1.74c0-1.82.33-3.31.99-4.47l-.99.25.5-2.24-.74-5.96-3.48,4.47,1.24,1.99-.25,1.99c.5,0,.83.33.99.99-.99,0-1.82,1.16-2.48,3.48h.25c.5,0,.75.25.75.75l-1.99.5,2.73,2.49.25,2.73c-.99.17-1.49.99-1.49,2.49,0,.5.08,1.08.25,1.74l-2.24-.5.25,1.99,1.99-.5.25.99-1.99.5,1.74,4.72v.25c0,1.16-.91,1.91-2.73,2.24l.75,2.98,1.74-.5.75,3.98v.25c0,.99-.83,2.07-2.49,3.23l1.74,4.97-.5,1.99,1.24,1.74c-.5,1.49-.75,2.57-.75,3.23.99.99,1.57,1.83,1.74,2.49.83,0,1.49-1.74,1.99-5.22-.17-.66-.58-.99-1.24-.99v-1.99c0-4.64.58-7.04,1.74-7.21v.99c.33,1.66.5,6.71.5,15.16l2.24.75.75-2.24,1.99.75.99-.25-.75-3.98,1.99-.25-.25,4.97,5.22.25c.66-2.49,1.07-5.88,1.24-10.19l-1.99-.75v-1.49c0-4.47.75-7.79,2.24-9.94l-.5-1.99-1.24-1.74c1.16-.16,1.74-.75,1.74-1.74v-.5l1.99-.5c.16.99.99,2.24,2.49,3.73-1.66.17-2.9,3.07-3.73,8.7,1.32.33,2.4.5,3.23.5.16.66.25,1.24.25,1.74,0,1.99-.83,3.15-2.49,3.48l.25.99,1.49,4.72c-1.16.83-2.07,1.41-2.73,1.74l.5,1.74h.5c.66,0,1.57.17,2.73.5l5.72-1.74.25,2.98h-.75l-2.24-.75.5,3.98,1.99-.25.25.99-1.99.25.5,2.98,1.99-.25.25.99c-2.15,3.15-3.23,4.97-3.23,5.47h.99c-3.65,5.64-5.47,8.87-5.47,9.69l.25,1.99,2.48-2.49c.16.66.58.99,1.24.99l-.25-1.99.99-.25.99,5.96-3.98.5.25.99c.16,1.49.66,2.82,1.49,3.98l-1.24,4.97,1.24,1.99c-.66,1.49-.99,3.07-.99,4.72,0,1.16.16,2.32.5,3.48l1.24,6.71,1.49-.25-.25-2.98c1.32.17,2.07.75,2.24,1.74v5.22c-.66,0-1.08-.33-1.24-.99-1.66.33-2.48,1.24-2.48,2.73v.75l-1.99.25-.25-1.99h-.99v.75c0,.83-.25,1.33-.75,1.49l1.24,1.74-.5,2.24c2.98,5.8,4.64,10.27,4.97,13.42-1.33,0-3.65-4.64-6.96-13.92h-.25c-1.16,0-2.07-1.57-2.73-4.72l-.99.25c-1.16.33-1.74.99-1.74,1.99v.25l1.99-.25.25.75c-1.16.33-1.74.75-1.74,1.24v.25c.16.83,1.24,3.64,3.23,8.45l-1.99.25c-1.99-5.63-3.4-8.45-4.22-8.45l.5-1.99-1.74-5.97c.33-.83.5-1.49.5-1.99,0-.33-.09-.66-.25-.99l1.99-.25h.25c.5,0,.83.25.99.75.66-.66,2.24-1.16,4.72-1.49,1.65,3.48,2.9,5.22,3.73,5.22h.25l-.75-4.97-1.74-4.72c1.16-.83,2.07-1.32,2.73-1.49v-.99h-.74c-.67,0-1.49-.08-2.49-.25.33-3.98.5-6.71.5-8.2v-1.24l-1.49-1.49c0-3.98.41-6.13,1.24-6.46l-1.24-1.74-.25-1,.74-1.99-3.23-1.49-1.99.25.5,9.94,1.49,9.94,1.99,4.72-1.74,1.24-1.24-1.74-.99-3.98.75-2.24-1.99.25.74-1.99-1.49-9.94.75-1.99-3.48-1.49-.99.25v.99c0,1.49-.66,2.9-1.99,4.23l3.23,7.71c-.33.83-.5,1.83-.5,2.98v.99l1.99-.5.5,2.98-1.74.5.25,1.99h.5c.66,0,1.49.17,2.49.5,0-.66.33-1.08.99-1.24l1.24,1.74c-.99.17-2.24,1.33-3.73,3.48l-.99.25h-.5c-.99,0-1.58-.83-1.74-2.49l-1.99,1.24-.99.25c-.99-2.49-1.66-4.8-1.99-6.96l-.99.25,2.24,13.92,1.24,1.74,1.99-1.24.99-.25.5,3.98c-1.66.33-2.48.99-2.48,1.99v.5c.66.17,1.4.25,2.24.25s1.74-.08,2.73-.25v.25c0,1.16-.91,1.99-2.73,2.49l.5,2.98,1.74-1.49.99-.25.25,1.99-1.99.25,2.24,6.71c-6.46-4.81-10.77-10.77-12.93-17.9l-1.24-6.96,1.99-.5-.25-1.74-1.74,1.24-.99.25,1.49-3.23h-.25c-1.82,0-3.73-4.06-5.72-12.18-3.81,2.65-6.63,4.06-8.45,4.22l-.25-2.98c-3.98,1.33-7.46,3.23-10.44,5.72h-1.74c-3.65,0-6.46-.5-8.45-1.49l-2.98.75c-.33-1.66-1.74-2.49-4.23-2.49-.5,0-1.16.09-1.99.25-2.82,7.13-4.22,14.17-4.22,21.13,0,2.65.25,5.3.75,7.95-1.33.83-2.32,1.24-2.98,1.24l-1.99-.75-2.98.5c-.17-.66-2.57-1.24-7.21-1.74l.25,1.99h-.99l-7.46-2.73v.5c0,1.65-.58,2.57-1.74,2.73l-.25-2.98-1.99.25-4.72,1.99c-.5-2.32-3.4-3.48-8.7-3.48h-1.99c-.33-1.49-3.56-4.97-9.69-10.44,0-.5-.66-2.4-1.99-5.72,3.15-18.06,9.94-42.34,20.38-72.83.16-3.15,3.06-10.35,8.7-21.62h-.25c-.5,0-.75-.25-.75-.75,1.33-.16,7.54-13.58,18.64-40.26,6.29-19.05,12.92-32.56,19.88-40.51h.99l1.99.75c0-2.82.83-4.31,2.48-4.47l2.73-.75,4.47,2.49c0-.66.33-.99.99-.99v.99l1.99-1.49,1.99-.25c.33,2.82,1.82,4.23,4.47,4.23h.99l.25.99c0,.66-.33.99-.99.99.83,1.16,1.4,2.49,1.74,3.98.99-.33,1.49-.91,1.49-1.74v-.75l-1.24-1.74c1.49-.33,2.81-.91,3.98-1.74,1.32,2.32,2.4,3.48,3.23,3.48h.25c.5-.66.75-2.32.75-4.97,0-3.64-.42-8.95-1.24-15.91-1.49-10.77-7.54-19.55-18.14-26.35,1.16-.99,2.07-1.57,2.73-1.74-.17-1.49-.66-2.65-1.49-3.48.99-4.31,3.56-6.79,7.71-7.46ZM713.29,211.76l-.25,4.97,1.99-.25.25-4.97-1.99.25ZM715.53,207.29l.5,1.99.99-.25-.5-1.74h-.99ZM718.51,194.61l1.99-.25-.25-1.99c-1.16.33-1.74.99-1.74,1.99v.25ZM719.26,211.52l.25,1.99h.99l-.25-1.99h-.99ZM720.75,188.4l.25,1.99.99-.25-.5-1.99-.74.25ZM722.74,182.93l.25.99c1.16-.16,1.74-.75,1.74-1.74v-.5l-.25-.99c-1.16.33-1.74.99-1.74,1.99v.25ZM729.7,163.55l1.99-.25-.25-1.99c-1.16.5-1.74,1.16-1.74,1.99v.25ZM730.69,176.72l.75,2.73h.99l-.75-2.98-.99.25ZM732.93,170.26l-.75,2.24h.5c.66,0,1.49.17,2.48.5v-.99c-.17-1.16-.74-1.74-1.74-1.74h-.5ZM733.42,155.09l.25,1.99.99-.25-.25-1.74h-.99ZM755.54,198.84l2.98-.5-.5-2.98-.99.25c-.99.33-1.49.91-1.49,1.74v1.49ZM757.53,186.41l1.49,1.74c-.5,1.33-.75,2.4-.75,3.23.99-.16,1.74-1.66,2.24-4.47h-.5c-.66,0-1.49-.16-2.48-.5ZM760.02,131.73l-.5,3.98c.99-.16,1.49-.91,1.49-2.24v-1.99l-.99.25ZM792.58,102.4c-1.33,5.47-2.57,8.29-3.73,8.45l-.25-1,.5-3.98-.25-.99-.99.25v.25c0,1.66-1.99,6.21-5.96,13.67l.5,1.99c.83-.16,2.15-2.4,3.98-6.71l1.24,1.74-1.24,4.23h.99l3.23-4.47.25,1.99c0,1.33-6.13,19.39-18.39,54.18-2.48,5.47-4.14,11.77-4.97,18.89l-2.73,2.49c-.99-.33-1.82-.5-2.48-.5h-.75l-.75,1.99.5,1.99c.99-1.49,8.86-4.8,23.61-9.94v-.25c0-.5.25-.75.75-.75l.5,1.99,1.99-.25c-.17-.5-.25-.99-.25-1.49,0-.99.5-1.57,1.49-1.74l2.24.75c1.32-.5,1.99-9.11,1.99-25.85v-10.94c2.49-23.2,3.81-38.53,3.98-45.98l-1.74,1.24-.25-1.99-2.98.75ZM761.01,181.94l.25,1.99.99-.25-.25-1.99-.99.25ZM761.26,127.51l.25,1.99.99-.25-.25-1.99-.99.25ZM767.47,159.57v.75c0,2.49-1.24,5.22-3.73,8.2l1.49,1.49c-.5,1.49-.75,2.57-.75,3.23.99-.16,2.15-1.74,3.48-4.72l-1.49-1.74,2.73-2.24v2.24c0,1-.09,1.91-.25,2.73l.25.99.99-.25,1.74-7.21-1.99.25-.25-1.99.75-1.99-2.98.25ZM765.49,178.96l.25,1.99,1.99-.25-.25-1.99-1.99.25ZM766.73,174.73l.25,1.99h.99l-.25-1.99h-.99ZM768.72,155.34v.99c.5,1.16,1.16,1.74,1.99,1.74h.25c0-.66.33-.99.99-.99l.5,1.99.99-.25c.99-.33,1.49-.99,1.49-1.99v-.5l-.5-2.98-2.73,2.73-.25-1.99c-1.16.83-2.07,1.24-2.73,1.24ZM769.21,109.11l.25.99c1.16-.33,1.74-.99,1.74-1.99v-.25l-.25-.99c-1.16.33-1.74.99-1.74,1.99v.25ZM772.2,146.89l.99,3.98c.33-.16.66-.25.99-.25.5,0,1.16.17,1.99.5l-.25-.99c-.83-1.16-1.33-2.07-1.49-2.73.5-.16.75-.5.75-.99v-.25l-2.98.75ZM772.94,143.66l.25,1.99.99-.25-.25-1.74h-.99ZM774.43,140.43l.5,3.73h.99v-.99c0-1.16.16-2.24.5-3.23l-1.99.5ZM777.17,144.9l.25,1.99h.99l-.25-1.99h-.99ZM777.42,134.96c1.16-.16,1.74-.75,1.74-1.74v-1.49c-1.16.33-1.74.99-1.74,1.99v1.24ZM779.65,140.68v.99l1.99-.25-.25-.99-1.49-1.99,2.48-5.22-.25-.99c-1.66.17-2.48,2.98-2.48,8.45ZM779.9,124.52l2.98-.5-.25-1.99-.99.25c-1.16.33-1.74.99-1.74,1.99v.25ZM784.62,121.54l.25,2.98c1.16-.16,1.74-.75,1.74-1.74v-1.49l-1.99.25ZM788.6,102.9l.25.99h.75c1.49-.33,2.24-1.9,2.24-4.72v-.75c-.99.17-2.07,1.66-3.23,4.47ZM790.09,112.84l1.99-.25.25.99v.5c0,.99-.58,1.58-1.74,1.74l-.5-2.98ZM790.84,218.48l.99-.25c3.64-1.16,5.47-2.4,5.47-3.73v-.25l-.25-.99-.99.25c-3.48,2.16-5.22,3.81-5.22,4.97ZM793.82,104.89h.99l.25.99c-.83,4.14-1.83,6.38-2.98,6.71v-2.98c0-2.82.58-4.39,1.74-4.72ZM792.33,94.45l.25,1.99.99-.5-.25-1.99-.99.5ZM793.82,90.97l.25,1.99.99-.25-.25-1.99-.99.25ZM793.82,97.93l.5,2.98.99-.25v-.5c0-.66.16-1.49.5-2.49l-1.99.25ZM794.32,94.95c.33.99.91,1.49,1.74,1.49h.5l-.25-1.74-1.99.25ZM795.06,87.74l.25.99,2.98-.5-.25-.99-2.98.5ZM796.06,92.71l1.99-.25-.25-1.99c-1.16.33-1.74.99-1.74,1.99v.25ZM797.05,174.98l.5,2.98h.99l-.5-2.98h-.99ZM799.04,218.97l.25.99,1.99-.25-.25-.99-1.99.25ZM800.53,222.95l.75,3.98.99-.25-.75-3.98-.99.25ZM800.78,159.57v.99l1.99-.5v-.75l-1.99.25ZM800.78,173.49l.5,2.98h.99l-.5-2.98h-1ZM801.03,161.31l.25,1.99h.99l-.25-1.99h-.99ZM806,99.17l1.49,1.74-3.98,14.66h.75c.83,0,1.32.25,1.49.75v4.97l.99-.25c.83,0,1.74-2.4,2.73-7.21l-.5-2.98c0-.66-.33-1-.99-1,.66-2.82.99-5.63.99-8.45,0-1.99-.17-3.89-.5-5.72-.5,0-1.33,1.16-2.48,3.48ZM804.26,219.22l1.49,4.72h.99l-.5-3.98,1.99-.25.75,5.72h.99c-.17-1.99-.25-3.56-.25-4.72s.08-1.9.25-2.24c0-.66-.33-.99-.99-.99v-4.97l-.25-2.98-1.99.25c-1.83.99-2.73,2.98-2.73,5.96,0,.99.08,2.16.25,3.48ZM806.25,214.75l.75,2.98-1.99.25v-1.49c0-.99.41-1.57,1.24-1.74ZM807.74,148.14l1.49,1.99v.5c0,1.16-.42,2.98-1.24,5.47l1.49,1.99c-.83,3.15-1.91,4.97-3.23,5.47v-5.97c0-6.13.5-9.28,1.49-9.44ZM807.74,8.2l.25,1.99.99-.25-.25-1.74h-.99ZM807.74,77.8v.99l1.99-.25-.25-1-1.74.25ZM807.99,85.75l.99-.25c1.16-.16,1.74-.75,1.74-1.74v-.5l-.99.25.75-2.24-.5-.99c-1.33.33-1.99,2.16-1.99,5.47ZM808.48,70.59l.5,2.98.99-.25-.5-2.98-1,.25ZM809.48,234.63l.99-.25.5,1.99-.99.25-.5-1.99ZM811.22,124.52l.5,3.98.99-.25-.5-3.73h-.99ZM812.96,85.75l.5,3.98h.5c2.32,0,3.81,1.83,4.47,5.47-.83.17-1.83,4.31-2.98,12.43l-.99.25-.25-.99c-.17-1.49-.25-2.82-.25-3.98,0-2.82.33-4.23.99-4.23-.83-.99-1.41-2.65-1.74-4.97l-.99.25c.33,3.15.5,6.21.5,9.2,0,2.82-.17,5.55-.5,8.2l.5,3.73,3.98.5-2.24-2.73c.33-.66.5-1.32.5-1.99,0-.83-.17-1.57-.5-2.24h1.24c.5,0,.83.25.99.75,1.16-.83,2.07-1.24,2.73-1.24l-1.74-6.71v-.5c0-.99.75-1.65,2.24-1.99l-.5-4.97-3.23-6.46,2.24.5-.75-3.73c-.99.66-2.57,1.16-4.72,1.49ZM813.46,69.59l.74,4.97.99-.25c-.17-.83-.25-1.57-.25-2.24,0-1.16.16-2.07.5-2.73l-1.99.25ZM813.46,80.78l.25,2.98,1.99-.25-.5-2.98-1.74.25ZM818.43,257.25l1.99.75,2.98-.5c0,.5,1.08.99,3.23,1.49l.25,2.98,3.23,1.49v-.5c0-1.66.58-2.57,1.74-2.73l1.24,7.95,1.99-.5v.99l-2.73.5c-.17-1.16-.75-1.74-1.74-1.74h-.5c0,.66-.33,1.08-.99,1.24l-6.21-7.95-2.98.5-.25-.99-1.74,1.24-1.24-1.99c0-1.33.58-2.07,1.74-2.24ZM817.18,69.1l.75,2.98.99-.25c-.17-.33-.25-.66-.25-.99,0-.5.16-1.16.5-1.99l-1.99.25ZM817.43,24.85l.25,1.99c.83,1.16,1.32,2.07,1.49,2.73h.74l-.25-2.98c-.17-1.16-.75-1.74-1.74-1.74h-.5ZM817.93,110.36l.25.99,1.99-.25-.25-.99-1.99.25ZM819.67,234.88v.75c0,.83-.5,1.33-1.49,1.49l.25,1.99,1.99-.25v-.5c0-.66.16-1.49.5-2.49l-.25-.99h-.99ZM820.17,137.2h.5c.99,0,1.65.5,1.99,1.49l-1.99,1.49-.5-2.98ZM820.17,143.17l3.98-.75v1.49c0,.99-.5,1.58-1.49,1.74l1.24,1.99.25.99h-1.74c-.83,0-1.41-.5-1.74-1.49h.99l-1.24-1.99-.25-1.99ZM823.15,130.49h.99c1.49,0,2.24.5,2.24,1.49l-4.22,4.72-.99.25-.25-1.74c1.65-.33,2.49-1.41,2.49-3.23,0-.5-.09-.99-.25-1.49ZM821.16,262.97l1.99-.25.5,1.99-1.99.25-.5-1.99ZM821.41,38.03l.5,2.98h.99l-.5-2.98h-.99ZM821.66,139.93l1.99-.5.25,1.99h-.74c-.83,0-1.33-.5-1.49-1.49ZM822.65,44.99l.75,4.97.99-.25c-.17-.66-.25-1.24-.25-1.74,0-.83.16-1.57.5-2.24l-1.99-.75ZM823.4,88.24l.99-.25.25,1.99-.75.25-.5-1.99ZM823.65,83.02l1.99-.25c.16,1.16.75,1.74,1.74,1.74h.5l.25.99-2.98.5-1.24-1.99-.25-.99ZM825.39,182.68l.25,1.74h.99l-.25-1.99-.99.25ZM825.63,171.5l3.98-.5c-.33.66-.5,1.58-.5,2.73,0,.66.08,1.41.25,2.24l-2.98.5-.25-.99c.5-1.49.75-2.57.75-3.23h-.25c-.5,0-.83-.25-.99-.75ZM826.38,55.67c1.32,0,2.07.5,2.24,1.49l.25,2.98v.75c0,.83-.5,1.33-1.49,1.49,0-.5-.25-.75-.75-.75h-.25v-5.96ZM826.63,63.63l1.99-.25.5,3.98-1.99.25-.5-3.98ZM827.13,53.44h.99l.25,1.99h-.99l-.25-1.99ZM831.1,136.45l.99-.25c-.99,1.99-1.49,5.47-1.49,10.44l-1.99.25v-.99l.75-2.24-1.24-1.74c.66-3.15,1.65-4.97,2.98-5.47ZM828.62,264.71l.25,1.99h.99l-.25-1.99h-.99ZM830.61,226.18l.5,4.97-1.99.25-.25-2.98c0-1.32.58-2.07,1.74-2.24ZM828.87,247.56h.99c1.32.33,2.32.5,2.98.5l.25,1.99h-.99c-.99-.33-1.83-.5-2.49-.5h-.5l-.25-1.99ZM830.86,122.54l1.99-.75c-.5,2.32-.75,4.31-.75,5.97,0,.83.08,1.58.25,2.24l-1.99.5c.33-3.81.5-6.21.5-7.21v-.75ZM830.86,116.32l1.99-.5.25,1.99v.75c0,.83-.5,1.41-1.49,1.74l-.99.25v-.99c.16-1,.25-1.82.25-2.49v-.75ZM832.35,106.88l.75,3.98h-.75c-.66,0-1.16-.5-1.49-1.49,0-1.32.5-2.15,1.49-2.49ZM830.86,223.2l1.99-.25.25,1.74-1.99.5-.25-1.99ZM831.6,252.28l1.74-.5.99,3.98-1.99.5-.75-3.98ZM831.85,64.62l1.99-.25.5,9.94.5,2.98-1.99.25c0-.33-.33-4.64-.99-12.92ZM834.58,81.52l1.74,4.72c-1.49.17-2.24,3.56-2.24,10.19v2.24l-1.99.25v-2.49c0-5.13.5-7.79,1.49-7.95l-1.24-1.74c.33-3.48,1.08-5.22,2.24-5.22ZM832.84,101.91l.99-.25.25,2.98v.5c0,.99-.58,1.58-1.74,1.74l-.25-1.99c.5-1.32.75-2.32.75-2.98Z"/>
      <path class="cls-2" d="M1021.04,15.41h.99v.99l-.99,1.99h1.99l1.99-.99c1.32.66,2.32.99,2.98.99v.99h-1.99v.99h.99c1.32-.66,2.32-.99,2.98-.99l-.99,1.99c5.13,1.66,9.45,4.06,12.93,7.21h.99l-2.98-3.98h1.99c3.98,4.64,6.29,6.96,6.96,6.96v-.99c-.66-1.16-.99-2.49-.99-3.98,5.3,5.3,7.95,8.95,7.95,10.94l2.24-.99c6.96,6.3,11.27,11.27,12.93,14.91,1.49,0,3.81,5.31,6.96,15.91h-.99l.99,1.99v5.97c0,.66-.33.99-.99.99l.99,1.99c0,10.44-8.7,25.1-26.1,43.99l-3.98,2.98c-1.16-.66-2.16-.99-2.98-.99v-3.98c.33,0,1.65-.33,3.98-.99,0-.66-.33-.99-.99-.99.66-2.65,1.99-3.98,3.98-3.98v-1.99c-7.62,6.8-14.58,12.1-20.88,15.91h-.99c17.23-13.58,27.26-24.94,30.07-34.05,1.65,0,4.31-4.64,7.96-13.92l-.99-5.96c.66,0,.99-.33.99-.99l-1.99-.99c.66-1.16.99-2.82.99-4.97h.99v3.98c1.32,0,1.99-.66,1.99-1.99v-3.98h-.99c-1.33.66-2.32.99-2.98.99v-1.99h1.99v-8.95c0-4.47-2.32-8.12-6.96-10.94-1.33-2.15-1.99-3.81-1.99-4.97h-1.99v.99c1.65,7.46,3.64,12.43,5.96,14.91v-2.98h.99l1,4.97c0,3.32-.67,7.29-1.99,11.93h1.99v1l-1,4.97h-.99l-1.99-.99c0,4.14-3.4,12.43-10.19,24.85h1.99v1.24c0,1.33-.66,1.99-1.99,1.99,0-.66-.33-.99-.99-.99,0,3.32-.66,4.97-1.99,4.97h-.99v-2.98c-.83,0-1.83.99-2.98,2.98h2.98c0,.33-1.99,2.32-5.96,5.97l-1.99-.99-3.98,3.98v.99h1.99v.99c-.99,2.65-3.32,3.98-6.96,3.98v-.99c-6.13,4.14-9.45,8.79-9.94,13.92-.5,0-2.49-.33-5.96-.99-6.3,2.98-11.27,6.3-14.91,9.94-3.15,1.99-5.14,2.98-5.96,2.98l.99,1.99c-1.33.17-1.99.83-1.99,1.99v.99h.99l2.98-1.99h.99v1.99c.83,0,2.49-1.65,4.97-4.97v-.99h-3.98v-.99c.99,0,2.32-.66,3.98-1.99h2.98l-.99,1.99v.99c3.98-1.82,5.97-3.15,5.97-3.98l-.99-1.99h.99l2.98,1.99,10.94-8.95-.99-1.99v-.99c4.64.66,7.62,1.33,8.95,1.99.16-1.32.83-1.99,1.99-1.99.66,0,.99.33.99.99,1.32-.66,2.32-.99,2.98-.99l-.99-1.99,3.98-2.98h.99c1.32.17,1.99.83,1.99,1.99v1h-1.99l-1.99-1c0,.67-.33,1.66-.99,2.98h1.99c1.32-.66,2.32-.99,2.98-.99v.99c-4.97,5.3-9.28,7.95-12.93,7.95,0-.66-.33-.99-.99-.99l-.99,1.99c.66,1.33.99,2.32.99,2.98h-1.99c0-1.32-.66-1.99-1.99-1.99v-1.99l5.96-2.98v-1.99h-.99c-.99,0-1.99.99-2.98,2.98l-1.99-.99h-.99l.99,1.99c-1.49,0-5.8,1.99-12.92,5.96v2.98c.83-.66,2.81-.99,5.96-.99l.99,1.99c-2.65,0-3.98.66-3.98,1.99l-1.99-.99-3.98,1.99c0-.66-.33-1.65-.99-2.98-1.16.66-2.49.99-3.98.99l.99,1.99v.99h-1.99l.99,1.99c-.66,0-.99.33-.99.99h.99c1.32-.66,2.32-.99,2.98-.99v.99c0,.66-1.33,1.66-3.98,2.98l-1.99-.99c-2.65,1.33-4.97,1.99-6.96,1.99l.99,4.97c-1.66,0-3.65.99-5.96,2.98,0-1.32-.66-1.99-1.99-1.99v-.99c0-1.32,1.99-1.99,5.96-1.99v-1.99c-.83,0-1.82-.33-2.98-.99-.5,1.99-3.15,2.98-7.95,2.98v2.98l.99,1.99c-.66,0-.99.33-.99.99.66,0,.99.33.99.99h-4.23l2.24,2.98v.99l-5.22-.99v-1.99c0-1.65,1.41-2.65,4.23-2.98,0-1.32-.75-1.99-2.24-1.99,0,1.99-2.98,2.98-8.95,2.98l.99,1.99v.99h-1.99c0-1.32-.33-1.99-.99-1.99l-4.97.99.99,1.99,1.99-.99h.99v1.99c-2.49,0-4.47.66-5.96,1.99h-.99v-1.99c-1.66,0-4.97,2.07-9.94,6.21v.99h.99c4.31-1.32,6.96-1.99,7.96-1.99,0,2.16-3.32,4.14-9.94,5.96v4.97h1.99c6.63-3.31,10.94-4.97,12.93-4.97l.99,1.99-1.99.99c0-.66-.33-.99-.99-.99-.83,1.83-5.8,4.47-14.91,7.95-6.63,15.41-9.94,24.69-9.94,27.84l-2.98,2.98.99,1.99c-1.99,3.81-2.98,6.46-2.98,7.95h-.99l-1.99-.99c0,6.3-2.32,10.61-6.96,12.92,0,3.98-1.33,6.71-3.98,8.2-.66-1.33-.99-2.4-.99-3.23h-1.99c0,2.15-.66,3.23-1.99,3.23h-.99c0-2.82-3.73-6.87-11.18-12.18,0,.66-.33.99-.99.99,0-1.32-.66-1.99-1.99-1.99h-.99v1.99h-1.99c0-3.31-.66-4.97-1.99-4.97v-.99l.99-1.99c-2.98-1.32-4.64-2.65-4.97-3.98v-.99c0-.66.33-.99.99-.99-.83-5.96-1.82-8.95-2.98-8.95,1.16-6.63,2.15-9.94,2.98-9.94,0-.66-.33-.99-.99-.99,1.32-4.97,1.99-8.28,1.99-9.94-.66,0-.99-.33-.99-.99.66,0,.99-.33.99-.99-6.96-3.31-12.26-4.97-15.91-4.97-1.83-.33-3.15-1.99-3.98-4.97.66,0,.99-.33.99-.99-1.65,0-2.98-1.32-3.98-3.98h-1.99l2.98-3.98c0-.66-.33-.99-.99-.99,0-2.32,5.96-4.39,17.89-6.21,0-.66,2.32-1.65,6.96-2.98v.99c3.98-1.49,5.97-2.82,5.97-3.98-1.99,0-2.98-.66-2.98-1.99v-.99c6.29,0,11.68-8.28,16.15-24.86,2.65-3.98,4.31-5.96,4.97-5.96h3.98v1.99l1.99-.99h.99l.99,4.97c2.15-1.32,4.14-1.99,5.96-1.99,5.3,5.3,9.94,7.95,13.92,7.95,1.32-.66,2.32-.99,2.98-.99v1.99c3.98-.66,5.97-2.32,5.97-4.97l1.99.99h1.99v-.99l-.99-1.99,2.98-1.99h1.99l-1.99,2.98c.66,0,.99.33.99.99l1.99-.99h.99c-.33,1.99-2.65,2.98-6.96,2.98l.99,1.99v1h-3.98v.99c-.66,0-.99-.33-.99-.99-1.33.66-2.32.99-2.98.99v.99l.99,1.99h-1.99v1.99c.16,1.33.83,1.99,1.99,1.99,0-.66.33-.99,1-.99v1.99c4.64-.5,13.25-4.47,25.85-11.93l.99-1.99v-.99h-.99c-2.65,1.16-3.98,2.49-3.98,3.98h-1.99c0-3.31,2.32-6.29,6.96-8.95v-.99c-6.63,3.98-10.94,5.96-12.92,5.96h-1.99l.99-1.99v-.99h-2.98v-.99h3.98v.99h.99v-1.99c-.66,0-.99-.33-.99-.99l4.97-2.98c1.49,0,2.82.33,3.98.99h.99v-.99h-1.99c6.29-7.95,13.01-11.93,20.13-11.93,0,.66.33.99.99.99,0-4.14,5.96-9.45,17.9-15.91.83-1.65,2.81-3.39,5.96-5.22,7.29-7.95,10.94-12.59,10.94-13.92,9.28-8.61,13.92-18.56,13.92-29.83,0-7.95-8.62-16.57-25.85-25.85.66,0,.99-.33.99-.99-3.32,0-4.97-.75-4.97-2.24l-1.99,1.24-2.98-2.24-3.98.99c-2.15-1.32-4.14-1.99-5.96-1.99v-.99c0-.83.99-1.82,2.98-2.98.16,1.33.83,1.99,1.99,1.99l4.97-1.99c1.16.66,2.48.99,3.98.99h1.99v-1.99h1.99l1.99.99c.16-1.32.83-1.99,1.99-1.99ZM891.3,37.53v1.99c-8.29,4.97-14.25,12.26-17.89,21.87v3.98l.99,6.96h-2.98c0-1.32-.33-1.99-.99-1.99,0-14.75,6.96-25.68,20.88-32.81ZM872.41,183.18v.99h1.99v-.99h-1.99ZM876.39,185.17l-.99,1.99,1.99.99.99-1.99-1.99-.99ZM876.39,169.01h1.99v1.99h-1.99v-1.99ZM879.37,186.16c.16,1.33.83,1.99,1.99,1.99v-1.99h-1.99ZM880.37,167.03h1.99v1.99h-1.99v-1.99ZM883.35,67.36h.99v5.97c-1.33,0-1.99.99-1.99,2.98h-.99v-2.98c1.32-1.49,1.99-3.48,1.99-5.97ZM881.36,78.29h1.99v2.98h-1.99v-2.98ZM883.35,172.99v.99h1.99c5.96-.83,10.6-2.15,13.92-3.98v-1.99l-15.91,4.97ZM884.34,61.39h1.99v1.99h-1.99v-1.99ZM895.28,162.05v.99c0,1.33-1.99,2.65-5.96,3.98l-.99-1.99v-.99l6.96-1.99ZM888.32,177.22v1.99h.99v-1.99h-.99ZM890.31,177.22v.99h1.99v-.99h-1.99ZM909.45,217.98v1.99h.99v-1.99h-.99ZM912.43,238.86v.99h1.99v-.99h-1.99ZM915.41,245.82v.99c.16,1.33.83,1.99,1.99,1.99v-.99c0-1.33-.66-1.99-1.99-1.99ZM939.27,197.1v1.99h.99v-1.99h-.99ZM963.13,14.42h1.99v1.99c-.66,0-.99-.33-.99-.99-4.97,2.65-7.95,3.98-8.95,3.98l-.99-1.99-1.99.99h-2.98v-1.99l4.97-.99c.66,0,.99.33.99.99,2.48-1.32,5.13-1.99,7.95-1.99ZM952.2,149.13h1.99v.99h-1.99v-.99ZM954.19,182.19h1.99v1h-1.99v-1ZM955.18,166.03v1.99h.99c1.32,0,1.99-.66,1.99-1.99h-2.98ZM970.09,140.18h.99c-5.8,5.31-10.44,7.95-13.92,7.95h-.99v-.99c0-1.16,4.64-3.48,13.92-6.96ZM957.17,159.07v.99h1.99v-.99h-1.99ZM960.15,162.05l-.99,4.97c2.65-.5,3.98-1.16,3.98-1.99-.66-1.16-.99-2.15-.99-2.98h-1.99ZM960.15,153.11c1.32-.66,2.32-.99,2.98-.99v-1.99c-.83,0-1.83.99-2.98,2.98ZM1002.65,179.7l1.99-.25c9.11,3.65,14.42,11.77,15.91,24.36,3.31,9.78,6.46,16.74,9.45,20.88l.25.99c0,.66-.33.99-.99.99,1.65,4.31,3.15,6.46,4.47,6.46h.25l-.74,2.24c.33,1.66,3.31,6.96,8.95,15.91-.5.16-.75.5-.75.99v.25c1.49,0,4.22,3.31,8.2,9.94h.99l-.75,1.99c20.71,29.16,38.94,43.75,54.68,43.75.83,0,1.74-.09,2.73-.25l2.98-.5c4.8-5.47,8.7-9.28,11.68-11.43,2.65.33,4.22,2.15,4.72,5.47-1.16.33-1.74.99-1.74,1.99v.25l3.98-.5,1.74-1.24,1.24,1.99c-1.99,1.49-3.57,2.32-4.72,2.49l.5,2.98,1.99-.25v.99c-2.32.33-3.48,1.57-3.48,3.73v.75l-1.99.25-.25-1.99h-.99v.5c0,2.32-1.83,3.73-5.47,4.22,0-.5-.25-.75-.75-.75h-.25v.5c0,3.31-3.07,5.8-9.2,7.46l-1.99-.75-4.97,1.74v-.99c-.83,0-2.32,1.82-4.47,5.47h-1.24c-.5,0-.75-.25-.75-.75-1.33.16-8.45,2.32-21.38,6.46-10.11-1.16-15.25-2.16-15.41-2.98l-1.99,1.24c-17.73-6.8-29.33-14.83-34.8-24.11-11.93-9.61-26.68-31.98-44.24-67.11-9.12-20.05-14.09-33.14-14.91-39.27l-.25-1.99c2.48-5.63,14.74-12.43,36.79-20.38l.99-.25,2.24.75c0-1.32.58-2.07,1.74-2.24ZM969.1,172l.99,4.23h-.99c-1.16-.83-2.49-1.24-3.98-1.24v2.24c-1.16-.66-2.16-.99-2.98-.99v-2.24l6.96-1.99ZM965.12,156.09h1.99c.99,0,1.99-.99,2.98-2.98h-.99c-2.65.99-3.98,1.99-3.98,2.98ZM969.1,13.42l1.99,1h2.98c1.49,0,2.82-.33,3.98-1,1.16.67,2.9,1,5.22,1v1.99h-7.21v1.99l-2.98-1.99h-1.99v1.99h-1.99l-.99-3.98c.66,0,.99-.33.99-1ZM968.1,132.23v1.99h.99v-1.99h-.99ZM972.08,179.2v1.99h-1.99c.33-1.32.99-1.99,1.99-1.99ZM972.08,170.01c1.32.33,1.99.99,1.99,1.99l-1.99.99v-2.98ZM974.07,144.16v.99h2.98v-.99h-2.98ZM974.07,178.21h1.99v.99h-1.99v-.99ZM975.06,150.12v.99h1.99v-.99h-1.99ZM977.05,154.1v.99c.66,1.33.99,2.32.99,2.98h1.99c0-.66-.33-.99-.99-.99l.99-1.99v-.99h-2.98ZM980.03,129.25v1.99c1.16-.66,2.9-.99,5.22-.99v-1.99l-5.22.99ZM981.28,141.18v.99h.99c1.16-.66,2.15-.99,2.98-.99v-1.99c-1.66,1.33-2.98,1.99-3.98,1.99ZM982.27,17.4h1.99v2.98c-1.33,0-1.99-.66-1.99-1.99v-.99ZM982.27,146.15v1.99h.99v-1.99h-.99ZM983.27,132.23v3.98h1.99c-.66-1.16-.99-2.49-.99-3.98h-.99ZM999.17,162.05h1.99v1.99h-2.98v2.98l1.99-.99h1.99c0,1.33-1.66,1.99-4.97,1.99,0-1.16-1.66-1.82-4.97-1.99v1.99h2.98v1.99l-1.99-.99h-.99l.99,1.99c-3.65,2.65-6.63,3.98-8.95,3.98v-1c3.98-2.49,5.96-4.14,5.96-4.97h-1.99v-1.99l1.99.99c0-1.99,2.98-3.98,8.95-5.96ZM985.25,14.42h.99l1.99.99v-.99l1.99.99h10.94v1.99h-4.97l-1.99-.99v.99l.99,1.99-1.99.99h-2.98c-1.66-1.32-3.32-1.99-4.97-1.99v-3.98ZM985.25,161.06c1.32.33,1.99.99,1.99,1.99v.99h-1.99v-2.98ZM986.25,128.25v.99c2.15-1.99,3.81-2.98,4.97-2.98v-.99h-.99c-2.65.99-3.98,1.99-3.98,2.98ZM986.25,139.19h1.99v-1.99c-1.33.17-1.99.83-1.99,1.99ZM986.25,153.11v1.99h.99v-1.99h-.99ZM987.24,134.22h.99c1.32,0,1.99-.66,1.99-1.99h-.99c-1.33.17-1.99.83-1.99,1.99ZM989.23,143.17v.99h1.99v-.99h-1.99ZM991.22,10.44l2.98,1.99c0-.66.33-.99.99-.99v1.99h-1.99c-1.33,0-1.99-.66-1.99-1.99v-.99ZM991.22,123.28v.99h2.98c0-1.49,1.65-2.49,4.97-2.98v-1.99c-4.14,2.65-6.79,3.98-7.95,3.98ZM994.2,126.26l-.99,3.98h.99l1.99-.99c-.66-1.32-.99-2.32-.99-2.98h-.99ZM993.21,252.28l.5,3.98,2.98-.5c-1.66-1.49-2.49-2.73-2.49-3.73l-.99.25ZM996.19,155.09h.99c3.98-1.32,5.96-2.65,5.96-3.98h-2.98c-1.16,0-2.48,1.33-3.98,3.98ZM997.18,126.26v3.98h.99c0-.66.33-1.65.99-2.98l-1.99-1ZM998.18,138.19v.99h1.99v-.99h-1.99ZM1001.16,157.08h1.99c0,1.49-1.66,2.49-4.97,2.98,0-.83.99-1.82,2.98-2.98ZM1000.17,119.3c1.65,1.33,2.98,1.99,3.98,1.99,0,1.99-1.66,2.98-4.97,2.98v.99c.16,1.33.83,1.99,1.99,1.99,2.98-1.33,4.64-2.65,4.97-3.98h-.99l.99-1.99-1.99-2.98c0-1.32,3.31-3.31,9.94-5.96-.66-1.16-.99-2.49-.99-3.98-4.97,2.82-9.28,6.46-12.93,10.94ZM1000.17,12.43h2.98v1.99h-2.98v-1.99ZM1003.15,269.18l.5,3.98h.5c.99,0,1.57.58,1.74,1.74l.99-.25v-.99c-.83-1.16-1.33-2.07-1.49-2.73.66-.17.99-.58.99-1.24h-.75c-.66,0-1.49-.17-2.49-.5ZM1007.12,149.13h.99l1.99.99c1.32-.66,2.32-.99,2.98-.99v1.99c-1.33,0-1.99.33-1.99.99-1.16-.66-2.49-.99-3.98-.99v-1.99ZM1008.12,105.38v.99h1.99v-.99h-1.99ZM1010.11,116.32l-.99,1.99,4.97.99v-1.99l-3.98-.99ZM1009.86,282.35l.25,1.99,1.99-.25c-.17-1.16-.75-1.74-1.74-1.74h-.5ZM1014.09,134.22c1.32.17,1.99.83,1.99,1.99l-1.99.99c-1.33,0-1.99-.66-1.99-1.99l1.99-.99ZM1015.33,286.83l.25,1.74h.99l-.25-1.99-.99.25ZM1016.07,21.38c.16,1.33.83,1.99,1.99,1.99h1.99l-.99-1.99h1.99v-.99h-.99c-1.16.66-2.49.99-3.98.99ZM1018.06,104.39c0,.66-.33,1.66-.99,2.98h.99l1.99-2.98h-1.99ZM1017.32,277.38v.99c2.82,4.31,4.8,6.46,5.96,6.46l-.25-1.99c-1.33-2.65-3.23-4.47-5.72-5.47ZM1017.81,291.3l.25,1.99h.99l-.25-1.99h-.99ZM1018.06,114.33v1.99h.99v-1.99h-.99ZM1020.05,141.18l3.98.99c1.32-.66,2.32-.99,2.98-.99v1.99c-.66,0-1.66.33-2.98.99-1.16-.66-2.49-.99-3.98-.99v-1.99ZM1020.05,266.94l.25,1.99h.99l-.25-1.99h-.99ZM1021.04,138.19h.99c1.32.66,2.32.99,2.98.99v1.99h-.99c-.99,0-1.99-.99-2.98-2.98ZM1026.02,97.18v1.99h.99v-1.99h-.99ZM1026.02,300.5l.25.99c.33,1.16.99,1.74,1.99,1.74h.25l-.25-.99c-.17-1.16-.74-1.74-1.74-1.74h-.5ZM1028,29.58v.99c.66,0,1.65.33,2.98.99h.99v-.99c-.66,0-1.66-.33-2.98-.99h-.99ZM1029.99,143.17h1.99c0,1.33-.66,1.99-1.99,1.99h-1.99c.16-1.32.83-1.99,1.99-1.99ZM1028.75,281.11v.99l1.99-.25v-.99l-1.99.25ZM1029,284.09c3.98,7.62,7.54,12.18,10.69,13.67l1.74-3.23h-.99c-2.98,0-5.55-1.99-7.71-5.96,1.16-.17,1.74-.75,1.74-1.74v-.5h-.25c-1.16,0-1.91-.91-2.24-2.73l-2.98.5ZM1029.5,304.23l.25,1.74c1.32,0,2.07.91,2.24,2.73h.99l-.25-1.99h-.25c-1.16,0-1.83-.91-1.99-2.73l-.99.25ZM1030.24,310.94l.25.99c1.16,2.65,3.06,4.47,5.72,5.47l-.25-.99c-2.82-3.65-4.72-5.47-5.72-5.47ZM1030.99,113.34v1.99h1.99v-1.99h-1.99ZM1031.98,90.22v.99h1.99v-.99h-1.99ZM1033.97,20.38h.99c1.32.33,1.99.99,1.99,1.99h-2.98v-1.99ZM1034.71,288.32v.99l1.99-.25v-.99l-1.99.25ZM1035.46,320.38l.25,1.99h.99l-.25-1.99h-.99ZM1036.95,27.59v.99h1.99v-.99h-1.99ZM1036.95,97.18v3.23h.99v-3.23h-.99ZM1038.44,321.13l.25,1.99c.5,1.16,1.16,1.74,1.99,1.74h.25l.99-.25v-.99c-.17-.83-1.33-1.66-3.48-2.49ZM1040.18,309.94l.25.99c.83,1.16,1.24,2.07,1.24,2.73l2.98-.25v-.99h-.5c-1.66,0-2.65-.91-2.98-2.73l-.99.25ZM1041.43,319.63v1c.16.99,1.32,1.9,3.48,2.73-1.33-2.49-2.49-3.73-3.48-3.73ZM1041.92,88.24v1.99c1.32,0,1.99-.66,1.99-1.99h-1.99ZM1041.92,306.71v.99l1.99-.25v-.99l-1.99.25ZM1041.92,314.66v.99c.16.83,3.14,3.15,8.95,6.96l2.98-.25-1.24-1.99.74-1.99-4.47-2.49-1.99.25.25,1.99-5.22-3.48ZM1042.92,94.2c.33,1.33.99,1.99,1.99,1.99l.99-1.99v-.99c-1.16.66-2.16.99-2.98.99ZM1043.17,301.49l.25.99,3.23,1.49-.25-.99-3.23-1.49ZM1044.91,91.22v.99h1.99v-.99h-1.99ZM1044.91,100.41h.99c1.16,0,2.48-1.41,3.98-4.23h-1.99c-.99,0-1.99,1.41-2.98,4.23ZM1047.89,88.24v.99h1.99v-.99h-1.99ZM1048.38,327.84c.33,1.16.99,1.74,1.99,1.74h.25l-.25-1.74h-1.99ZM1051.12,308.45c.33,1.16.99,1.74,1.99,1.74h.25l-.25-1.99-1.99.25ZM1052.11,325.6l.25.99c.16.99.91,1.49,2.24,1.49h1.99l-.25-.99c-.99,0-2.4-.5-4.22-1.49ZM1052.86,88.24v1.99h.99v-1.99h-.99ZM1054.85,112.34c0,1.33-.66,1.99-1.99,1.99v1.99l1.99-.99c0,.66.33.99.99.99v-3.98h-.99ZM1057.08,93.21v1.99c0,1.33-.75,1.99-2.24,1.99h-.99v-.99c0-.83,1.08-1.82,3.23-2.98ZM1053.85,108.37v1.99c1.32,0,1.99-.66,1.99-1.99h-1.99ZM1055.84,107.37h2.24l.99-3.98c-.99,0-2.07,1.33-3.23,3.98ZM1059.07,90.22v.99c0,1.33-.66,1.99-1.99,1.99v-.99c.16-1.32.83-1.99,1.99-1.99ZM1057.83,313.67v.99l1.99-.25v-.99l-1.99.25ZM1073.99,63.38c0,8.95-1.99,18.23-5.96,27.84.66,0,.99.33.99.99l-3.98,2.98.99,1.99-7.96,12.18h1.99c10.6-13.92,15.91-25.27,15.91-34.05-.66-3.48-.99-7.46-.99-11.93h-.99ZM1059.57,328.58l-.75,2.24,2.98-.5c-.17-1.16-.75-1.74-1.74-1.74h-.5ZM1061.06,81.28h1.99c0,1.16.66,2.49,1.99,3.98v1h-1l-1.99-1c0,.66-.33,1-.99,1v-4.97ZM1063.05,76.3h.99v1.99h-.99v-1.99ZM1064.29,326.1v.99l1.99-.25v-.99l-1.99.25ZM1067.52,327.59v.99c.16,1.16,2.32,1.9,6.46,2.24l-.25-1.74h-1c-1.99,0-3.73-.5-5.22-1.49ZM1074.73,328.83v.99l1.99-.25v-.99l-1.99.25ZM1099.59,310.69l.25.99,2.98-.25-.25-.99-2.98.25ZM1134.38,298.51l1.99-.25.25,1.99-1.99.25-.25-1.99ZM1136.62,300.25h.99l.25,1.99h-.99l-.25-1.99Z"/>
      <path class="cls-2" d="M1268.66,15.41l4.97.99c.66,0,.99-.33.99-.99l4.97.99h.99c1.49,0,2.81-.33,3.98-.99,1.16.66,5.13,1.33,11.93,1.99l1.99-.99c.99.66,2.98.99,5.96.99v1.99h-.99c-.66,0-.99-.33-.99-.99-1.33.66-2.32.99-2.98.99-3.32,0-7.29-.33-11.93-.99-3.65.66-7.29.99-10.94.99v.99h8.95v1.99l-13.92.99v.99c1.99,0,2.98.66,2.98,1.99,4.31,0,9.94-.33,16.9-.99,12.59.66,18.89,1.33,18.89,1.99v1.99l2.98-1.99.99,1.99v1h-1.99c-.83,0-4.47-.66-10.94-1.99-1.33.66-2.32.99-2.98.99v-.99l-1.99.99h-10.94l-1.99-.99v1.99h16.9c.66,0,.99.33.99.99l1.99-.99,8.95,1.99c0-.66.33-.99.99-.99l.99,1.99c1.32-.66,2.32-.99,2.98-.99l4.97.99c-.66,1.33-.99,2.32-.99,2.98l-6.96-.99c0,.99-.66,1.99-1.99,2.98-7.29-1.32-15.58-1.99-24.86-1.99h-10.94v-1.99h-1.99l.99,1.99c-4.31,0-7.62.33-9.94.99v-.99l-1.99.99h-6.96l-4.97.99c0-.66-.33-.99-.99-.99l-.99,1.99c.66,0,1.65.33,2.98.99,0-.66.33-.99.99-.99v.99l1.99-.99c.66,0,.99.33.99.99.66,0,.99-.33.99-.99,2.65.66,4.97.99,6.96.99v.99c0,1.33-.99,1.99-2.98,1.99-.66,0-.99-.33-.99-.99l-4.97.99h-2.98v1.99l9.94-.99h7.95l-.99-4.97,2.98,1.99c0-.66.33-.99.99-.99v.99l-1.99,2.98h2.98v-1.99h.99c0,1.33.99,1.99,2.98,1.99,0,2.65-2.32,4.31-6.96,4.97v.99c-6.79-.83-10.77-1.49-11.93-1.99,0,1.33-.66,1.99-1.99,1.99h-.99c-.66,0-.99-.33-.99-.99-4.47.66-7.79,2.32-9.94,4.97l-.99-1.99c.66,0,.99-.33.99-.99h-9.94v1.99h1.99v1.99c-8.95.66-15.58.99-19.88.99h-2.98l.99-1.99h-2.98l.99,1.99-1.99.99h-1.99c-.66,0-.99-.33-.99-.99-2.15,1.33-3.81,1.99-4.97,1.99v-.99c-5.3,1.33-18.56,3.65-39.77,6.96v2.98h1.99c1.65,0,4.64-.66,8.95-1.99v.99c1.16-.66,7.12-1.65,17.9-2.98v.99c1.32-.66,4.97-1.32,10.94-1.99v1.99l-11.93,1.99v-.99c-8.95,1.33-15.25,2.65-18.89,3.98l-1.99-.99c-2.65,1.33-7.62,2.65-14.91,3.98v-.99c-3.32,1.16-4.97,2.82-4.97,4.97h-2.98v-1.99c-3.48,3.32-6.13,4.97-7.96,4.97l-.99-1.99c-2.32,0-12.59,2.98-30.82,8.95h-1.99v-1.99c10.11-3.98,15.41-5.97,15.91-5.97v-.99h-1.99c-1.33.66-2.32.99-2.98.99,0-1.32-.66-1.99-1.99-1.99,0,3.32-4.31,5.31-12.92,5.97v-.99l.99-1.99c-3.15,0-5.14-3.31-5.96-9.94-2.65,0-3.98-2.98-3.98-8.95,1.32-.66,2.32-.99,2.98-.99,0-1.32-1.33-1.99-3.98-1.99v-.99l1.99-2.98v-.99h-1.99l.99-1.99c-1.33,0-1.99-.66-1.99-1.99,10.44-10.11,39.6-18.39,87.49-24.86,0,.66.33.99.99.99,0-1.49,3.98-2.49,11.93-2.98l1.99.99,5.96-1.99c1.16.66,2.49.99,3.98.99l6.96-1.99v.99l1.99-.99c.66,0,.99.33.99.99,2.98-1.32,7.29-1.99,12.92-1.99h1.99l1.99.99c.16-1.32.83-1.99,1.99-1.99.66,0,.99.33.99.99l1.99-.99h.99c.66,0,.99.33.99.99l1.99-.99h6.96c.66,0,.99.33.99.99,2.65-1.32,6.29-1.99,10.94-1.99h2.98v1.99h4.97c0-1.99.66-2.98,1.99-2.98ZM1167.25,87.24c10.27,8.45,17.98,13.59,23.12,15.41v6.71l3.23-2.24h1.24l9.94,13.42c-.83,3.98-1.24,6.88-1.24,8.7h-2.24v-2.24h-.99v4.47h2.24c-.33,4.64-1.83,8.29-4.47,10.94l2.24,3.48h-.99l-2.24-1.24-11.19,47.72,1.24,2.24-2.24,5.47c.66,1.33.99,2.4.99,3.23-2.15,6.96-3.23,13.26-3.23,18.89v2.24h-1.24l-3.23-2.24-.99,2.24v.99l4.23.99v2.24l-1.99-.99h-1.24l-4.47,19.88h-2.24l-.99-4.47h-.99v2.24h-1.24c-1.49,0-2.24-1.08-2.24-3.23-1.49,0-2.24,1.08-2.24,3.23h-2.24c0-2.98-1.08-4.47-3.23-4.47h-.99v2.24h-1.24v-4.47c0-.66.41-.99,1.24-.99-.83-1.32-1.24-2.82-1.24-4.47h-2.24c0,1.49-1.82,2.98-5.47,4.47l-1-5.47h1.99v2.24h1.24v-4.47l-4.47-1.24v6.71c0,1.49-.75,2.24-2.24,2.24l-.99-2.24h.99c-3.65-4.97-5.47-10.85-5.47-17.65v-16.65c.33-14.75,1.08-22.12,2.24-22.12,0-.66-.42-.99-1.24-.99,9.94-54.02,17.31-83.84,22.12-89.48,2.49,0,4.39-.41,5.72-1.24ZM1140.41,76.06v.99h1.99v-.99h-1.99ZM1143.39,75.06v.99h1.99v-.99h-1.99ZM1146.12,214.5v1.99h1.24v-1.99h-1.24ZM1146.12,219.97v5.47h1.24v-5.47h-1.24ZM1150.6,217.73v2.24h.99v-2.24h-.99ZM1158.3,237.61v2.24h.99v-2.24h-.99ZM1160.54,240.84l2.24,1.24c1.49,0,2.24-.75,2.24-2.24l-2.24-1.24c-1.49.33-2.24,1.08-2.24,2.24ZM1162.78,229.91c0,1.66-.41,3.15-1.24,4.47h2.24v-4.47h-.99ZM1168.24,183.43v3.23h2.24v-3.23h-2.24ZM1173.21,30.32h1.99v-1.99c-1.33.17-1.99.83-1.99,1.99ZM1178.19,28.33v.99h.99c1.33-.66,2.32-.99,2.98-.99v-.99h-.99c-1.33.66-2.32.99-2.98.99ZM1179.43,206.54v3.48h.99v-3.48h-.99ZM1182.16,30.32c.16,1.33.83,1.99,1.99,1.99v-1.99h-1.99ZM1186.14,27.34c.66,1.33.99,2.32.99,2.98,1.32,0,1.99-.66,1.99-1.99v-.99h-2.98ZM1189.37,148.14v4.23h.99v-4.23h-.99ZM1190.37,183.43h.99v2.24h-.99v-2.24ZM1192.6,173.49h.99v5.47h-2.24l1.24-5.47ZM1195.83,159.07c1.49.83,2.65,1.24,3.48,1.24v2.24c-2.32,0-3.48,1.83-3.48,5.47h-2.24c0-.83.41-1.24,1.24-1.24l-1.24-2.24,2.24-5.47ZM1194.09,26.35v.99h1.99v-.99h-1.99ZM1195.09,28.33v.99h1.99v-.99h-1.99ZM1199.06,29.33v1h1.99v-1h-1.99ZM1201.3,119.3l-.99,6.71c1.49,0,2.24-1.16,2.24-3.48v-3.23h-1.24ZM1203.04,25.35v1.99c.83-.66,3.15-.99,6.96-.99v-.99h-6.96ZM1209.01,41.26v.99h1.99v-.99h-1.99ZM1211.99,24.36v.99h3.98v-.99h-3.98ZM1221.93,60.15l.99,1.99c-1.49,0-5.14.33-10.94.99v-1.99c.83,0,4.14-.33,9.94-.99ZM1212.98,40.26l.99,1.99c1.16-.66,2.48-.99,3.98-.99v-.99h-4.97ZM1216.96,53.19v1.99h.99v-1.99h-.99ZM1218.95,23.36v1.99h.99v-1.99h-.99ZM1218.95,53.19v.99h1.99v-.99h-1.99ZM1220.94,21.38v3.98c3.31,0,5.3-1.32,5.96-3.98h-2.98v1.99h-1.99v-1.99h-.99ZM1221.93,39.27c.16,1.33.83,1.99,1.99,1.99v-1.99h-1.99ZM1223.92,26.35c.16,1.33.83,1.99,1.99,1.99v-1.99h-1.99ZM1223.92,60.15h6.96v1.99h-4.97c-1.33,0-1.99-.66-1.99-1.99ZM1224.91,39.27v.99h3.98v-.99h-3.98ZM1226.9,23.36l.99,1.99c-.66,0-.99.33-.99.99.66,0,.99.33.99.99-.66,0-.99.33-.99.99h3.98l-1.99-3.98c.66,0,.99-.33.99-.99h-2.98ZM1226.9,52.2v.99c1.99,0,2.98.33,2.98.99l1.99-.99,1.99.99.99-1.99h-7.95ZM1230.88,22.37v1.99h3.98v-.99c-1.49,0-2.82-.33-3.98-.99ZM1231.87,26.35v1.99h1.99v-1.99h-1.99ZM1236.84,38.28c.16,1.33.83,1.99,1.99,1.99v-1.99h-1.99ZM1237.84,22.37v.99h9.94c0,1.16.99,2.16,2.98,2.98l1.99-.99c1.32.66,2.32.99,2.98.99,0-1.32-.66-1.99-1.99-1.99h-.99l-1.99.99-.99-1.99c.66,0,.99-.33.99-.99-3.32,0-4.97-.66-4.97-1.99v-.99l-7.96,2.98ZM1241.81,26.35v.99h2.98v-.99h-2.98ZM1241.81,38.28v.99h1.99v-.99h-1.99ZM1243.8,44.24v.99h1.99v-.99h-1.99ZM1246.79,43.25v1.99c1.16-.66,2.48-.99,3.98-.99v-1.99c-1.16.66-2.49.99-3.98.99ZM1248.78,30.32v1.99h.99v-1.99h-.99ZM1251.76,22.37v.99c1.32,0,1.99-.66,1.99-1.99v-.99c-1.33.17-1.99.83-1.99,1.99ZM1254.74,20.38v.99c2.48,0,5.13.99,7.95,2.98h.99c0-.99-1.99-2.65-5.96-4.97-1.33.66-2.32.99-2.98.99ZM1255.73,46.23v.99h4.97v-.99h-4.97ZM1257.72,23.36c.66,1.33.99,2.32.99,2.98h1.99v-1.99c-.66,0-1.66-.33-2.98-.99ZM1261.7,46.23v.99h3.98v-.99h-3.98ZM1264.68,21.38c0-.66-.33-.99-.99-.99v.99c.99,2.65,1.99,3.98,2.98,3.98,0-2.49,2.65-4.14,7.95-4.97h.99v-.99h-4.97c-2.15,1.33-4.14,1.99-5.96,1.99ZM1268.66,26.35h1.99v-1.99c-1.33.17-1.99.83-1.99,1.99ZM1269.65,28.33v1.99h1.99v-1.99h-1.99ZM1272.63,28.33v1.99h.99v-1.99h-.99ZM1275.62,39.27h2.98v1.99c-.66,0-1.66.33-2.98.99v-2.98ZM1276.61,30.32h2.98v-2.98c-.99,0-1.99.99-2.98,2.98ZM1277.61,32.31v.99h4.97v-.99c-1.33,0-1.99-.33-1.99-.99-1.33.66-2.32.99-2.98.99ZM1290.53,38.28c3.98.66,5.96,1.33,5.96,1.99l1.99-.99h1.99v1.99h-5.96l-5.96-.99-1.99.99-1.99-.99c-1.16.66-2.49.99-3.98.99v-1.99h3.98l5.96-.99ZM1283.57,32.31v.99h1.99v-.99h-1.99ZM1283.57,46.23h2.98v1.99h-2.98v-1.99ZM1295.5,31.32v1.99h.99v-1.99h-.99ZM1295.5,34.3v.99h11.93v-.99h-11.93ZM1305.44,43.25l.99,1.99h-7.95v-.99c3.81,0,6.13-.33,6.96-.99ZM1305.44,39.27l8.95.99v1.99h-1.99c-.66,0-.99-.33-.99-.99l-1.99.99-6.96-.99c0-1.32.99-1.99,2.98-1.99ZM1309.42,43.25c.99,0,3.98.66,8.95,1.99v1h-6.96c-.66,0-.99-.33-.99-1l-1.99,1h-1.99c0-1,.99-1.99,2.98-2.98ZM1310.42,17.4h1.99v1.99h-1.99v-1.99ZM1310.42,33.31v2.98h2.98c0-.99-.99-1.99-2.98-2.98ZM1316.38,41.26h1.99v.99h-1.99v-.99ZM1322.35,28.33h1.99v.99h-1.99v-.99Z"/>
      <path class="cls-2" d="M1356.25,117.56c3.31,1.16,4.97,2.16,4.97,2.98l2.24-.5,2.73.5c3.14.66,5.72,2.16,7.71,4.47l-1.24,1.74-.25.99,1.74.25-.5-1.99,1.99.5v.5c0,1.99,2.82,4.97,8.45,8.95,0,1.16,3.06,6.55,9.2,16.16l-1.24,1.74c.16.83.25,1.66.25,2.49v1.49c-.66-.16-1.33-.25-1.99-.25s-1.33.09-1.99.25c-.99-.83-1.83-1.32-2.49-1.49l-.25.99.5,1.99-3.23,1.24-1.49-1.24h-.25c-.5,0-.83.25-.99.75l-3.48-1.74h-9.69l-.5-1.99h.25c.5,0,.83-.25.99-.75l-1.99-.5c-.99.33-1.82.5-2.48.5h-.5l.75,1.99c-13.09,2.16-20.55,4.14-22.37,5.97v-.99l-21.13,9.2-.75-.25v-.75c.99-1.16,1.49-2.07,1.49-2.73l-2.98,1.24v-4.72l-4.22.99-5.22-1.99c-3.98.99-6.05,1.83-6.21,2.49l-1.74,8.45c-1.33,6.13-1.99,12.43-1.99,18.89l1.99-.5c0,1.16.5,1.83,1.49,1.99l2.73.75,3.23-1.24-.25.75c8.12-2.32,16.49-4.06,25.1-5.22,1.16.17,2.48.25,3.98.25,2.98,0,6.54-.41,10.69-1.24l.25-.99-2.73-.5-24.61,1.74-1.49-1.24c-.33.99-.91,1.49-1.74,1.49h-.5l-1.99-.5.5-1.74,1.74.25-.5-1.99,3.73.75.25-.99,4.47.99c2.98-.33,5.88-1.65,8.7-3.98h1.49c1.32,0,3.39-.08,6.21-.25v.25c0,.33.25.58.74.75.16-.66.99-.99,2.49-.99.99,0,2.4.17,4.22.5v.99l.75.25.75-2.98.75.25-.25,1.99,2.73.5c.5-2.15,4.97-3.23,13.42-3.23h3.48l3.73,1.74c.83-.33,2.4-.5,4.72-.5,4.14,0,10.44.5,18.89,1.49,0,1.66,1.32,3.15,3.98,4.47.66-.16,1.32-.25,1.99-.25s1.32.08,1.99.25l.75.25c5.3,5.96,7.95,10.19,7.95,12.68v.5c2.15.33,3.64,2.24,4.47,5.72-1.16.66-2.32.99-3.48.99-.5,0-.99-.08-1.49-.25v.99l5.47,1.24c-.83,3.65-3.48,5.47-7.96,5.47-1.33,0-2.9-.16-4.72-.5l-.25,1,4.72.99-.25.75-1.24,1.74c.5.17.75.5.75.99v.25h-2.73c-12.26,0-26.59.99-43,2.98v-.99c-22.7,2.16-46.89,7.46-72.58,15.91,0,.66-1.41,1.33-4.23,1.99h-.75v-1c.16-.99.83-1.49,1.99-1.49.33,0,.75.09,1.24.25l.25-.99-4.72-.99-.25.99c.66,1.99.99,3.48.99,4.47v.5l-6.21,2.49c-1.16-.83-2.07-1.32-2.73-1.49,0,.66.25,1.08.74,1.24-.17,1.16-4.64,4.39-13.42,9.69v-.25c0-.5-.25-.83-.74-.99.66-3.32,4.39-7.62,11.18-12.92l-1.74-.5c-.17.83-4.39,4.14-12.68,9.94l-.25,1.99,1.99-.5h.99c-.17.66-1.82,2.32-4.97,4.97-1.99-.66-2.98-1.74-2.98-3.23v-.5l-1.99-.25h-.5c-.83,0-1.41.5-1.74,1.49l1.99.25-.5,1.99c-.17.99-.75,1.49-1.74,1.49h-.5l-.99-.25c.33-1.16.5-2.16.5-2.98,0-1.83-.66-2.9-1.99-3.23-1.32.33-2.32.5-2.98.5l.5-1.99c4.64-5.13,9.86-10.44,15.66-15.91l-2.73-.5c-.5,2.16-3.32,5.06-8.45,8.7l-.5,1.99-1.74-.5.25-1.74,9.69-9.69.25-.99-2.73-.5.25-1.74h.5c1.99,0,3.81-1.9,5.47-5.72h.75c1.49,0,2.4-.99,2.73-2.98.99.17,1.49.75,1.49,1.74,0,.5-.08.99-.25,1.49l3.23-1.49-.5,1.99,1.99.25c.16-.99.75-1.49,1.74-1.49h.5v-.25c0-.33-.25-.58-.75-.75,1.66-2.15,2.73-4.14,3.23-5.96l1.74.25-.5,2.73,1.74.5c.16-.99,1.32-2.07,3.48-3.23l-.5-1.99h.5c.99,0,1.57-.5,1.74-1.49l-1.74-.25c-4.31,2.16-7.71,3.23-10.19,3.23h-1.24l6.46-3.48c-.17-.66-.25-1.24-.25-1.74,0-.66.08-1.32.25-1.99l-1.99.5c0-.66-.25-1-.74-1l1.24-1.74.25-.99-1.99-.25.5-1.99,1.24-1.49c-1.83-.5-4.72-4.97-8.7-13.42-1.99-.5-2.98-2.65-2.98-6.46v-2.73c-1.99-.5-2.98-4.31-2.98-11.43,0-2.65.16-5.8.5-9.44l.99.25-.75-1.99,1.49-6.46c5.8-17.56,10.02-26.35,12.68-26.35h.25l-.5-1.99c5.3-6.13,11.27-9.2,17.89-9.2,1.65,0,3.31.17,4.97.5l-.5,2.73,3.23-1.24-.25.99-1.24,1.49-.25.99.99.25,3.73-3.98,1.74.25-.25.99c-1.49,1.66-2.4,3.07-2.73,4.23l1.99-.5h.99l-.5,2.98h1.49c.83,0,1.41-.75,1.74-2.24l2.73.5-.5,2.73,3.23-1.24c-.33,1.49-.5,2.65-.5,3.48s.16,1.24.5,1.24c2.98-.5,4.72-1.41,5.22-2.73-.5,0-.75-.33-.75-.99.66.17,1.24.25,1.74.25,1.49,0,2.32-.5,2.49-1.49.99.99,1.82,1.49,2.48,1.49.83-.16,1.57-.25,2.24-.25h.74l-.5-1.99c5.47-1.49,12.51-2.24,21.13-2.24,2.32,0,4.72.08,7.21.25ZM1261.8,216.49c.99.5,1.49,1.16,1.49,1.99v.25l-7.95,5.22-.75-.25v-.75c3.31-4.14,5.72-6.29,7.21-6.46ZM1254.84,241.09l-.25.99h.5c.99,0,1.57-.5,1.74-1.49l.25-.99c-1.33,0-2.07.5-2.24,1.49ZM1256.33,248.05v.5c0,.99.5,1.57,1.49,1.74l.25-1.74-1.74-.5ZM1260.55,254.76l1.99.5-.5,1.74-1.74-.25.25-1.99ZM1261.05,243.33l-.5,2.73.99.25.5-2.73-.99-.25ZM1263.54,241.09l-.5,1.74.99.25.5-1.99h-.99ZM1266.77,238.86l-.25,1.74,1.74.5v-.75c0-.83-.5-1.32-1.49-1.49ZM1268.01,247.56l-.5,1.99.99.25.25-1.99-.75-.25ZM1270.25,236.62l.75.25c6.13-2.32,9.78-4.14,10.94-5.47v-.99c-7.62,3.15-11.52,5.22-11.68,6.21ZM1271.49,244.57c.16.83.25,1.58.25,2.24v.75l.99.25.5-2.98-1.74-.25ZM1274.47,112.34l.99.25-.25.99c-.33.99-.91,1.49-1.74,1.49h-.5l-.99-.25.25-.99c.5-.99,1.16-1.49,1.99-1.49h.25ZM1273.48,224.69l-.25,1.99h.5c.83,0,1.41-.5,1.74-1.49l-1.99-.5ZM1274.97,222.2l-.25,1.74.75.25.5-1.74-.99-.25ZM1275.96,240.6l-.25,1.99.99.25.25-1.99-.99-.25ZM1286.16,107.12l-.5,2.73c-4.14,1.49-6.8,2.24-7.95,2.24h-.25c1.82-1.99,4.72-3.64,8.7-4.97ZM1277.71,237.12l-.25.99c4.14-1.32,6.38-2.49,6.71-3.48v-.99c-2.65.33-4.81,1.49-6.46,3.48ZM1278.2,239.1l-.25,1.99.99.25.25-1.99-.99-.25ZM1282.68,95.69l1.99.5-.25.99c-.33.99-.91,1.49-1.74,1.49h-.5l.5-2.98ZM1285.91,89.73l1.74.5c-.17.83-1.24,1.49-3.23,1.99l-1.99-.25c.33-.99,1.49-1.74,3.48-2.24ZM1284.91,234.88l.99.25c.66,0,.99-.25.99-.75l1.74,1.24.99.25.25-.99-1.99-.5.5-1.74.75.25c.99.17,1.74,1.24,2.24,3.23.83-.16,1.57-.25,2.24-.25h.75c-.66-1.65-.99-3.15-.99-4.47,0-.5.08-.99.25-1.49.66.17,1.24.25,1.74.25.83,0,1.57-.16,2.24-.5.99.83,1.82,1.33,2.48,1.49l-.5-1.99.25-.99c.5.17.91.25,1.24.25,1.16,0,1.82-.5,1.99-1.49l-1.74-1.24c-10.44,3.98-15.91,7.04-16.4,9.2ZM1286.9,93.7l.99.25-.5,1.99-.75-.25.25-1.99ZM1329.4,88.98l.5,1.99c.33.17.66.25.99.25,1.16,0,1.9-.83,2.24-2.49l2.73.75c-11.27,5.8-20.96,9.28-29.08,10.44l-18.89,7.46h-.74l1.74-4.47c-.5-.16-.74-.58-.74-1.24l3.23-1.24-.25.99c-.83.99-1.33,1.83-1.49,2.49l.99.25c4.31-1.16,9.53-3.31,15.66-6.46,9.61-2.49,16.9-5.13,21.87-7.95l-.99-.25c-1.82.66-3.23.99-4.22.99h-.75l.5-1.74c.83-.16,1.74-.25,2.73-.25,1.32,0,2.65.17,3.98.5ZM1288.64,226.93l-.25.99,1.74.25.25-.99-1.74-.25ZM1299.08,85.75l-.25,1.74h-.5c-.83,0-1.99.42-3.48,1.24l-.99-.25.25-.99c.16-.99,1.82-1.57,4.97-1.74ZM1296.1,222.7l-.25,1c.66,0,1.57.5,2.73,1.49l.25-1.99-2.73-.5ZM1297.09,76.55l.99.25c.99.5,1.49,1.16,1.49,1.99v.25l-2.73-.5.25-1.99ZM1300.82,91.71c.99.5,1.49,1.16,1.49,1.99v.25h-4.72c.16-.83,1.24-1.57,3.23-2.24ZM1301.32,88.98l.99.25c-.17.83-1.24,1.58-3.23,2.24v-.99c.5-.99,1.16-1.49,1.99-1.49h.25ZM1300.82,77.3l1.99.5c-.33.99-.91,1.49-1.74,1.49h-.5l.25-1.99ZM1301.57,229.66l-.25.75,1.74.5.25-.99-1.74-.25ZM1305.54,83.26l-.5,1.74-1.74-.25c.33-.99.91-1.49,1.74-1.49h.5ZM1306.79,156.59c-2.16,4.14-3.23,6.46-3.23,6.96.99,0,2.65-2.24,4.97-6.71l-1.74-.25ZM1306.04,94.7l-.5,1.99-1.74-.5c.5-.99,1.16-1.49,1.99-1.49h.25ZM1311.01,188.15l.75.25-.25,1.74-2.73-.5c.33-.99.91-1.49,1.74-1.49h.5ZM1316.73,80.53l.75.25-.25.99-7.95,1.24.5-1.74,6.96-.75ZM1309.27,195.61v.99l1.74.25.25-.99-1.99-.25ZM1310.02,84.01l4.72.99c-.17.99-1.24,1.74-3.23,2.24-.99-.16-1.49-.66-1.49-1.49v-1.74ZM1310.51,63.13h.99l-.25,1.99-.99-.25.25-1.74ZM1314.49,67.61c-.17.99-1.33,1.74-3.48,2.24l.25-.99c.33-.83.91-1.24,1.74-1.24h1.49ZM1314.24,87.74l1.74.5-.25.99-1.74-.5.25-.99ZM1314.24,91.71l1.99.5-.25.75-1.74-.25v-.99ZM1319.71,64.87l2.98.75-3.73,2.98c-.99-.83-1.83-1.32-2.49-1.49.16-.83,1.24-1.57,3.23-2.24ZM1317.47,71.33l1.99.25-.5,1.74-1.74-.25.25-1.74ZM1319.21,162.05l-.25.75,1.74.5.25-.99-1.74-.25ZM1321.7,79.78c1,.33,1.49.91,1.49,1.74v.5l-1.99-.5.5-1.74ZM1322.2,85.75l2.98.5-.5,1.74-2.73-.5.25-1.74ZM1324.18,161.06l-.25.99,1.99.25v-.75l-1.74-.5ZM1328.66,63.88l-.25.99c-.17.99-.74,1.49-1.74,1.49h-.5l-1.74-.5.5-1.74c.16,0,1.41-.08,3.73-.25ZM1391.54,47.97l1.99.25c.5.17.75.5.75.99v.25c1.32-.33,2.32-.5,2.98-.5,9.61,4.31,14.42,8.79,14.42,13.42,0,.33-.09.75-.25,1.24,4.31,3.32,6.46,5.63,6.46,6.96l-.25.99-1.99-.5,1.24,3.23-1.99.5-1.49-1.24c-.33.83-1.58,1.83-3.73,2.98l2.98.75-.5,1.74c-9.28.66-14.17.99-14.66.99-1.49-.5-2.24-1.41-2.24-2.73v-.75l-.75-.25-.5,1.99-6.21-2.24-.25.75.5,2.24-1.99.5-6.21-2.24.5-2.73,1.74,1.24h.5c.83,0,1.4-.5,1.74-1.49l.25-.99c-.66,0-1.08.25-1.24.75l-1.74-1.24-1.74-.5-.5,1.99-5.47-1.24-.25,1.99,4.47.99-.25.75c-.17.99-.58,1.49-1.24,1.49h-.74l-.99-.25-1.74-1.24c-.17.99-.66,1.49-1.49,1.49h-.74l-1-.25.5-1.74c-.83.17-1.66.25-2.49.25h-1.49l.75,1.99c-.33.99-2.73,1.74-7.21,2.24h-.99l.25-.99,1.74.25.5-1.74-2.98-.5c-.33,1.49-.91,2.24-1.74,2.24h-.5l-.99-.25c-.99-.16-1.49-.66-1.49-1.49v-.5c.99-.33,1.82-.5,2.48-.5h.5l.25-.99-.5-1.99h.25c.33,0,.58-.25.75-.75l-1.74-.25c-.33-.16-.66-.25-.99-.25-1.33,0-2.16.83-2.49,2.49l-.99-.25c-.5-.16-.75-.58-.75-1.24-5.14.33-7.79,1.08-7.95,2.24l.75.25h2.73c1.49,0,2.81.09,3.98.25l.99,5.22-4.72-.99.75-2.73h-.5c-.99,0-1.58.5-1.74,1.49l-.25.75.5,1.99c-1.66.66-3.15.99-4.47.99-.5,0-.99-.08-1.49-.25l-.5-1.99c.66-.16,1.32-.25,1.99-.25.83,0,1.74.08,2.73.25l.5-1.74-.99-.25-6.71.5-4.47-1.74-4.97-.25c6.46-2.98,11.35-4.47,14.66-4.47.66,0,1.24.08,1.74.25l.25-.99v-.25c0-.33-.25-.58-.75-.75l1.24-1.74.5-2.73h-.75c-3.98,0-6.13,1.08-6.46,3.23l-4.47-1.74c-.33,1.16-1.74,1.74-4.23,1.74h-.99l.25-1c.83-.83,1.32-1.99,1.49-3.48l1.74,1.24c5.47-.66,9.2-1.49,11.19-2.49l-.5-1.99c1.99-2.32,3.89-3.48,5.72-3.48h.75l-.75-1.99c.5-.99,1.16-1.49,1.99-1.49h.25l1.99.25-.5,1.99-1.74-.5-.5,1.99c2.65-.5,4.06-1.16,4.22-1.99-.33-.16-.5-.41-.5-.75v-.5l.75.25,1.74,1.24,5.72-4.47-.99-.25c-.83-.16-1.58-.25-2.24-.25-1.66,0-2.65.66-2.98,1.99h-.75c-.5-.16-.75-.5-.75-.99v-.25h-.25c-.99,0-2.65.58-4.97,1.74-.99-.83-1.83-1.32-2.49-1.49.33-1.82,6.38-3.15,18.14-3.98.99.99,1.82,1.49,2.48,1.49.16-.83.99-1.9,2.49-3.23l-3.48-.75c.16-.83,1.24-1.57,3.23-2.24l2.73.5-.25.99c-.83,1.16-1.33,2.07-1.49,2.73,1.99-.66,3.73-.99,5.22-.99.66,0,1.24.08,1.74.25,0,1.33.5,2.07,1.49,2.24l.5-2.73-2.73-.5.25-1.74c7.46.83,12.76,1.58,15.91,2.24ZM1328.91,193.87v.99l1.74.25.25-.99-1.99-.25ZM1331.89,62.63l2.73.5-.5,1.99-2.73-.75.5-1.74ZM1332.88,71.58l1.99.25-.5,1.99-1.74-.5.25-1.74ZM1333.63,82.27l2.73.5c-.17.99-.75,1.49-1.74,1.49h-.5l-.99-.25.5-1.74ZM1342.82,84.01c2.32,1.16,4.72,1.99,7.21,2.49-.17.83-2.98,2.16-8.45,3.98l-1.74-1.24c-.83.17-1.66.25-2.48.25h-1.49l4.47-2.98c-.5-.16-.75-.58-.75-1.24,1.99-.16,3.06-.58,3.23-1.24ZM1339.1,74.56c-.33.99-1.24,2.16-2.73,3.48l1.99.25c.83-.16,1.49-.25,1.99-.25h.75v-.5c0-.83-.66-1.82-1.99-2.98ZM1338.85,85.25l-.5,1.74-1.74-.25c.33-1,.83-1.49,1.49-1.49h.74ZM1337.61,53.19l1.99.5-.5,1.74-1.74-.5.25-1.74ZM1340.59,221.21v.99l1.74.25c4.47,0,6.96-1.08,7.46-3.23l1.49,1.24.99.25c-.17-.83-.25-1.57-.25-2.24v-.75c-1.99,0-4.47,1.08-7.46,3.23l-3.98.25ZM1342.33,53.19l2.98.5-.75,2.98c-.83-.33-1.58-1.49-2.24-3.48ZM1343.32,63.13l-.25.75,1.99.5.5-2.73h-.5c-.99,0-1.58.5-1.74,1.49ZM1345.06,68.1v.99l3.48,1.74c.16-.83.83-1.24,1.99-1.24.5,0,1.16.08,1.99.25l.5-1.99-2.98-.5c-1.16.66-2.32.99-3.48.99-.5,0-.99-.08-1.49-.25ZM1346.3,62.63l.99.25h.5c.83,0,1.4-.5,1.74-1.49l-.99-.25c-1.33,0-2.07.5-2.24,1.49ZM1350.28,61.64l-.25,1.74c.83-.16,1.57-.25,2.24-.25h.75l.25-1.99c-.99.33-1.82.5-2.48.5h-.5ZM1355.75,82.02h.99l4.47,1.99-.5,1.74c-3.48.66-6.21,1-8.2,1-.99,0-1.82-.08-2.48-.25l.5-1.74c.66.17,1.24.25,1.74.25,1.99,0,3.15-.99,3.48-2.98ZM1351.52,79.04l2.73.75c-.17.99-.75,1.49-1.74,1.49h-.5l-.75-.25.25-1.99ZM1353.51,215.24l-.25.99,2.73.5.25-.99-2.73-.5ZM1353.51,218.97l-.25,1.99h.5c.83,0,1.41-.5,1.74-1.49l-1.99-.5ZM1356.25,65.62l-.5,2.73.75.25.74-2.73-.99-.25ZM1357.24,46.73l1.74.25-.25,1.99-1.74-.5.25-1.74ZM1359.23,74.81l-.5,1.99.99.25.25-1.99-.75-.25ZM1361.71,53.44l-.25.75,1.74.5.25-.99-1.74-.25ZM1361.96,215.99l-.5,1.74,3.73.75.25-.75-3.48-1.74ZM1363.21,83.51l3.73.75c-.33.99-.91,1.49-1.74,1.49h-.5l-1.99-.5.5-1.74ZM1366.19,218.72l-.25.99,1.99.25v-.75l-1.74-.5ZM1366.44,71.58v.99l2.73.5,1.24-1.49-.99-.25c-.83.17-1.58.25-2.24.25h-.75ZM1369.17,218.48l-.25.75,1.99.5v-.99l-1.74-.25ZM1371.66,70.84l-.5,1.74h.75c.66,0,1.16-.5,1.49-1.49l-1.74-.25ZM1371.91,73.82l-.5,2.73h.75l.75-2.73h-.99ZM1372.4,66.11v.99l1.74.25.25-.75-1.99-.5ZM1375.88,82.27l1.99.25-.25.99-1.99-.25.25-.99ZM1377.37,70.84l-.5,1.99.99.25.25-1.99-.75-.25ZM1381.85,217.23l-.25,1.74.74.25.5-1.74-.99-.25ZM1384.58,77.3l1.99.25.25-1.74c-1.16,0-1.91.5-2.24,1.49ZM1390.79,79.54v.99c-.33.83-1.08,1.24-2.24,1.24h-.99l-1.74-.5v-.75h.75c1.49,0,2.9-.33,4.22-.99ZM1388.06,158.82l1.99.25-.5,1.99-1.74-.5.25-1.74ZM1398.5,75.31l-.25.99,1.99.25.25-.75-1.99-.5ZM1401.98,77.05l-.25.75,1.99.5.25-.99-1.99-.25ZM1411.92,70.34v.99l1.74.25.25-.75-1.99-.5Z"/>
      <path class="cls-1" d="M1606.44,248.75c-5.77,0-12.88-.3-21.33-.9-8.45-.6-16.26-.89-23.41-.89-6.56,0-12.88.1-18.94.3-6.07.2-11.48.3-16.25.3-.4,0-.6-.6-.6-1.79s.2-1.79.6-1.79c7.16,0,12.62-.49,16.4-1.49,3.77-.99,6.26-2.98,7.46-5.96,1.19-2.98,1.79-7.35,1.79-13.12V85.3c0-5.76-.6-10.09-1.79-12.97-1.19-2.88-3.63-4.87-7.31-5.97-3.68-1.09-9.1-1.64-16.26-1.64-.4,0-.6-.6-.6-1.79s.2-1.79.6-1.79c4.77,0,10.14.15,16.11.45,5.96.3,12.23.45,18.79.45s13.62-.25,21.18-.75c7.55-.49,14.02-.75,19.39-.75,21.07,0,39.52,3.98,55.33,11.93,15.81,7.96,28.08,18.79,36.84,32.51,8.75,13.72,13.12,29.13,13.12,46.23,0,14.91-2.68,28.39-8.05,40.41-5.37,12.03-12.73,22.27-22.07,30.72-9.35,8.45-20.13,14.96-32.36,19.54-12.23,4.58-25.11,6.86-38.62,6.86ZM1603.46,244.27c15.9,0,29.92-3.33,42.05-9.99,12.12-6.66,21.72-16.45,28.78-29.38,7.06-12.92,10.59-28.63,10.59-47.12,0-17.3-3.28-32.96-9.84-46.98-6.56-14.02-15.76-25.15-27.59-33.41-11.83-8.25-26-12.38-42.5-12.38-11.93,0-20.48,1.19-25.65,3.58-5.17,2.39-7.75,8.16-7.75,17.3v134.22c0,8.35,2.04,14.46,6.11,18.34,4.07,3.88,12.68,5.82,25.8,5.82Z"/>
      <path class="cls-1" d="M1847.22,247.56h-124.97c-.4,0-.6-.6-.6-1.79s.2-1.79.6-1.79c7.35,0,12.82-.49,16.4-1.49,3.58-.99,6.01-2.98,7.31-5.96,1.29-2.98,1.94-7.35,1.94-13.12V85.3c0-5.76-.65-10.09-1.94-12.97-1.29-2.88-3.73-4.87-7.31-5.97-3.58-1.09-9.05-1.64-16.4-1.64-.4,0-.6-.6-.6-1.79s.2-1.79.6-1.79h119.9c1.79,0,2.68.9,2.68,2.68l.6,36.69c0,.6-.55.95-1.64,1.04-1.1.1-1.64-.15-1.64-.75-.6-10.74-3.83-18.99-9.69-24.76-5.87-5.76-13.47-8.65-22.82-8.65h-18.2c-6.76,0-11.88.5-15.36,1.49-3.48,1-5.87,2.88-7.16,5.67-1.3,2.79-1.94,6.86-1.94,12.23v135.41c0,5.17.64,9.15,1.94,11.93,1.29,2.79,3.58,4.67,6.86,5.67,3.28,1,8.2,1.49,14.76,1.49h23.86c9.54,0,17.55-3.43,24.01-10.29,6.46-6.86,10.69-16.15,12.68-27.89,0-.6.6-.79,1.79-.6,1.19.2,1.79.6,1.79,1.19-.8,5.17-1.45,11.44-1.94,18.79-.5,7.36-.75,14.22-.75,20.58,0,2.98-1.59,4.47-4.77,4.47ZM1830.52,178.06c0-8.75-2.14-15.01-6.41-18.79-4.28-3.77-11.38-5.67-21.33-5.67h-44.74v-6.26h45.63c9.54,0,16.35-1.64,20.43-4.92,4.07-3.28,6.11-8.6,6.11-15.96,0-.4.6-.6,1.79-.6s1.79.2,1.79.6c0,5.96-.05,10.59-.15,13.87-.1,3.28-.15,6.71-.15,10.29,0,4.58.1,9.05.3,13.42.2,4.38.3,9.05.3,14.02,0,.4-.6.6-1.79.6s-1.79-.2-1.79-.6Z"/>
      <path class="cls-1" d="M26.84,556.4v-138.09c0-5.76-.65-10.09-1.94-12.97-1.29-2.88-3.78-4.87-7.46-5.97-3.68-1.09-9.2-1.64-16.55-1.64-.4,0-.6-.6-.6-1.79s.2-1.79.6-1.79c4.77,0,10.19.15,16.25.45,6.06.3,12.38.45,18.94.45,7.36,0,14.02-.15,19.98-.45,5.96-.3,11.33-.45,16.11-.45.4,0,.6.6.6,1.79s-.2,1.79-.6,1.79c-7.56,0-13.17.6-16.85,1.79-3.68,1.19-6.17,3.28-7.46,6.26-1.29,2.98-1.94,7.36-1.94,13.12v137.5c0,5.77.6,10.14,1.79,13.12,1.19,2.98,3.68,4.97,7.46,5.96,3.78,1,9.44,1.49,17,1.49.4,0,.6.6.6,1.79s-.2,1.79-.6,1.79c-4.97,0-10.39-.1-16.25-.3-5.87-.2-12.48-.3-19.84-.3-6.56,0-12.93.1-19.09.3-6.17.2-11.63.3-16.4.3-.4,0-.6-.6-.6-1.79s.2-1.79.6-1.79c7.35,0,12.92-.49,16.7-1.49,3.78-.99,6.31-2.98,7.61-5.96,1.29-2.98,1.94-7.35,1.94-13.12ZM35.49,486.6v-6.26h133.32v6.26H35.49ZM160.46,418.9c0-5.76-.6-10.14-1.79-13.12s-3.63-5.07-7.31-6.26c-3.68-1.19-9.4-1.79-17.15-1.79-.6,0-.89-.6-.89-1.79s.3-1.79.89-1.79c4.77,0,10.14.15,16.11.45,5.96.3,12.62.45,19.98.45,6.56,0,12.92-.15,19.09-.45,6.16-.3,11.53-.45,16.11-.45.6,0,.89.6.89,1.79s-.3,1.79-.89,1.79c-7.36,0-12.88.55-16.55,1.64-3.68,1.1-6.17,3.08-7.46,5.97-1.29,2.88-1.94,7.21-1.94,12.97v138.09c0,5.77.64,10.14,1.94,13.12,1.29,2.98,3.78,4.97,7.46,5.96,3.68,1,9.2,1.49,16.55,1.49.6,0,.89.6.89,1.79s-.3,1.79-.89,1.79c-4.58,0-9.95-.1-16.11-.3-6.17-.2-12.53-.3-19.09-.3-7.36,0-14.02.1-19.98.3-5.96.2-11.33.3-16.11.3-.6,0-.89-.6-.89-1.79s.3-1.79.89-1.79c7.75,0,13.47-.49,17.15-1.49,3.68-.99,6.11-2.98,7.31-5.96,1.19-2.98,1.79-7.35,1.79-13.12v-137.5Z"/>
      <path class="cls-1" d="M430.38,576.98c.79,0,1.19.6,1.19,1.79s-.4,1.79-1.19,1.79c-5.77,0-11.63-.2-17.6-.6-5.96-.4-11.73-.6-17.3-.6-6.17,0-11.54.2-16.11.6-4.58.4-9.65.6-15.21.6-.8,0-1.19-.6-1.19-1.79s.4-1.79,1.19-1.79c10.54,0,17.1-1.54,19.68-4.62,2.58-3.08,1.89-8.9-2.09-17.45l-66.21-139.88,7.46-9.25-57.86,136.9c-4.97,12.13-5.27,20.88-.89,26.25,4.37,5.37,13.02,8.05,25.95,8.05.99,0,1.49.6,1.49,1.79s-.5,1.79-1.49,1.79c-5.97,0-11.44-.2-16.4-.6-4.97-.4-11.24-.6-18.79-.6-7.16,0-12.88.2-17.15.6-4.28.4-9.5.6-15.66.6-.79,0-1.19-.6-1.19-1.79s.4-1.79,1.19-1.79c5.37,0,10.04-1.04,14.02-3.13,3.98-2.09,7.7-5.76,11.19-11.04,3.48-5.27,7.31-12.87,11.48-22.82l62.93-148.53c.4-.6,1.09-.9,2.09-.9s1.59.3,1.79.9l70.39,148.24c4.57,9.74,8.65,17.35,12.23,22.82,3.58,5.47,7.11,9.25,10.59,11.33,3.48,2.09,7.31,3.13,11.48,3.13ZM279.76,498.53l2.98-5.96h79.04l2.09,5.96h-84.11Z"/>
      <path class="cls-1" d="M532.99,390.86c8.35,0,15.76.4,22.22,1.19,6.46.8,12.47,2.04,18.04,3.73,5.56,1.69,11.23,4.03,17,7.01,1.39.8,2.24,1.44,2.54,1.94.3.5.54,2.04.75,4.62l3.58,35.49c0,.4-.5.75-1.49,1.04-1,.3-1.69.05-2.09-.75-4.58-16.5-11.88-28.93-21.92-37.28-10.04-8.35-23.22-12.53-39.52-12.53s-31.67,3.68-44.29,11.04c-12.63,7.36-22.47,17.8-29.53,31.32-7.06,13.52-10.59,29.43-10.59,47.72,0,13.12,2.24,25.4,6.71,36.83,4.47,11.44,10.69,21.47,18.64,30.12,7.95,8.65,17.05,15.36,27.29,20.13,10.24,4.77,21.12,7.16,32.66,7.16,16.5,0,29.83-4.03,39.97-12.08,10.14-8.05,17.79-20.13,22.96-36.24.2-.6.84-.79,1.94-.6,1.09.2,1.64.5,1.64.89l-2.98,32.81c-.2,2.39-.5,3.88-.89,4.47-.4.6-1.19,1.29-2.39,2.09-10.34,5.17-20.09,8.7-29.23,10.59-9.15,1.89-19.49,2.83-31.02,2.83-21.08,0-39.72-4.12-55.92-12.38-16.21-8.25-28.93-19.78-38.18-34.6-9.25-14.81-13.87-31.96-13.87-51.45,0-14.32,2.68-27.29,8.05-38.92,5.37-11.63,12.92-21.62,22.67-29.97,9.74-8.35,21.18-14.81,34.3-19.39,13.12-4.57,27.44-6.86,42.95-6.86Z"/>
      <path class="cls-1" d="M744.57,580.56h-124.97c-.4,0-.6-.6-.6-1.79s.2-1.79.6-1.79c7.35,0,12.82-.49,16.4-1.49,3.58-.99,6.01-2.98,7.31-5.96,1.29-2.98,1.94-7.35,1.94-13.12v-138.09c0-5.76-.65-10.09-1.94-12.97-1.29-2.88-3.73-4.87-7.31-5.97-3.58-1.09-9.05-1.64-16.4-1.64-.4,0-.6-.6-.6-1.79s.2-1.79.6-1.79h119.9c1.79,0,2.68.9,2.68,2.68l.6,36.69c0,.6-.55.95-1.64,1.04-1.1.1-1.64-.15-1.64-.75-.6-10.74-3.83-18.99-9.69-24.76-5.87-5.76-13.47-8.65-22.82-8.65h-18.2c-6.76,0-11.88.5-15.36,1.49-3.48,1-5.87,2.88-7.16,5.67-1.3,2.79-1.94,6.86-1.94,12.23v135.41c0,5.17.64,9.15,1.94,11.93,1.29,2.79,3.58,4.67,6.86,5.67,3.28,1,8.2,1.49,14.76,1.49h23.86c9.54,0,17.55-3.43,24.01-10.29,6.46-6.86,10.69-16.15,12.68-27.89,0-.6.6-.79,1.79-.6,1.19.2,1.79.6,1.79,1.19-.8,5.17-1.45,11.44-1.94,18.79-.5,7.36-.75,14.22-.75,20.58,0,2.98-1.59,4.47-4.77,4.47ZM727.87,511.06c0-8.75-2.14-15.01-6.41-18.79-4.28-3.77-11.38-5.67-21.33-5.67h-44.74v-6.26h45.63c9.54,0,16.35-1.64,20.43-4.92,4.07-3.28,6.11-8.6,6.11-15.96,0-.4.6-.6,1.79-.6s1.79.2,1.79.6c0,5.96-.05,10.59-.15,13.87-.1,3.28-.15,6.71-.15,10.29,0,4.58.1,9.05.3,13.42.2,4.38.3,9.05.3,14.02,0,.4-.6.6-1.79.6s-1.79-.2-1.79-.6Z"/>
      <path class="cls-1" d="M851.22,393.25c15.91,0,28.08,3.63,36.54,10.89,8.45,7.26,12.68,16.75,12.68,28.48,0,10.74-3.13,20.43-9.39,29.08s-14.52,15.46-24.76,20.43c-10.24,4.97-21.43,7.46-33.55,7.46-1.99,0-4.23-.1-6.71-.3-2.49-.2-4.72-.4-6.71-.6v67.71c0,5.77.54,10.14,1.64,13.12,1.09,2.98,3.48,4.97,7.16,5.96,3.68,1,9.2,1.49,16.55,1.49.6,0,.89.6.89,1.79s-.3,1.79-.89,1.79c-4.77,0-10.09-.1-15.96-.3-5.87-.2-12.28-.3-19.24-.3-6.56,0-12.88.1-18.94.3-6.07.2-11.59.3-16.55.3-.4,0-.6-.6-.6-1.79s.2-1.79.6-1.79c7.35,0,12.87-.49,16.55-1.49,3.68-.99,6.21-2.98,7.61-5.96,1.39-2.98,2.09-7.35,2.09-13.12v-138.09c0-5.76-.65-10.09-1.94-12.97-1.29-2.88-3.73-4.87-7.31-5.97-3.58-1.09-9.05-1.64-16.4-1.64-.6,0-.89-.6-.89-1.79s.3-1.79.89-1.79c4.77,0,10.14.15,16.11.45,5.96.3,12.23.45,18.79.45,6.16,0,13.27-.3,21.32-.9,8.05-.6,14.86-.89,20.43-.89ZM880.15,441.27c0-10.93-1.64-19.58-4.92-25.95-3.28-6.36-7.9-10.89-13.87-13.57-5.96-2.68-13.12-4.03-21.47-4.03-7.36,0-12.63,1.3-15.81,3.88-3.18,2.59-4.77,8.35-4.77,17.3v62.63c2.78.4,5.77.7,8.95.89,3.18.2,6.06.3,8.65.3,16.11,0,27.34-3.53,33.7-10.59,6.36-7.06,9.54-17.35,9.54-30.87ZM926.38,580.56c-3.38,0-8.8-3.83-16.26-11.48-7.46-7.65-16.51-18.69-27.14-33.11-10.64-14.41-22.52-31.47-35.64-51.15l16.7-5.07c16.9,24.06,31.27,43.2,43.1,57.42,11.83,14.22,22.27,24.41,31.32,30.57,9.05,6.17,17.75,9.25,26.1,9.25.6,0,.9.6.9,1.79s-.3,1.79-.9,1.79h-38.18Z"/>
      <path class="cls-1" d="M1122.04,581.75c-5.77,0-12.88-.3-21.33-.9-8.45-.6-16.25-.89-23.41-.89-6.56,0-12.88.1-18.94.3-6.07.2-11.48.3-16.26.3-.4,0-.6-.6-.6-1.79s.2-1.79.6-1.79c7.16,0,12.62-.49,16.4-1.49,3.78-.99,6.26-2.98,7.46-5.96,1.19-2.98,1.79-7.35,1.79-13.12v-138.09c0-5.76-.6-10.09-1.79-12.97-1.19-2.88-3.63-4.87-7.31-5.97-3.68-1.09-9.1-1.64-16.25-1.64-.4,0-.6-.6-.6-1.79s.2-1.79.6-1.79c4.77,0,10.14.15,16.11.45,5.96.3,12.23.45,18.79.45s13.62-.25,21.18-.75c7.55-.49,14.02-.75,19.39-.75,21.07,0,39.52,3.98,55.33,11.93,15.81,7.96,28.08,18.79,36.83,32.51,8.75,13.72,13.12,29.13,13.12,46.23,0,14.91-2.69,28.39-8.05,40.41-5.37,12.03-12.73,22.27-22.07,30.72-9.35,8.45-20.13,14.96-32.36,19.54-12.23,4.58-25.11,6.86-38.62,6.86ZM1119.05,577.27c15.91,0,29.92-3.33,42.05-9.99,12.13-6.66,21.72-16.45,28.78-29.38,7.06-12.92,10.59-28.63,10.59-47.12,0-17.3-3.28-32.96-9.84-46.98-6.56-14.02-15.76-25.15-27.59-33.41-11.83-8.25-26-12.38-42.5-12.38-11.93,0-20.48,1.19-25.65,3.58-5.17,2.39-7.76,8.16-7.76,17.3v134.22c0,8.35,2.04,14.46,6.12,18.34,4.07,3.88,12.68,5.82,25.8,5.82Z"/>
      <path class="cls-1" d="M1283.9,556.4c0,5.77.6,10.14,1.79,13.12,1.19,2.98,3.62,4.97,7.31,5.96,3.68,1,9.1,1.49,16.26,1.49.6,0,.89.6.89,1.79s-.3,1.79-.89,1.79c-4.77,0-10.1-.1-15.96-.3-5.87-.2-12.38-.3-19.54-.3-6.76,0-13.12.1-19.09.3-5.96.2-11.33.3-16.11.3-.6,0-.9-.6-.9-1.79s.3-1.79.9-1.79c7.16,0,12.62-.49,16.4-1.49,3.77-.99,6.26-2.98,7.46-5.96,1.19-2.98,1.79-7.35,1.79-13.12v-138.09c0-5.76-.6-10.09-1.79-12.97-1.19-2.88-3.68-4.87-7.46-5.97-3.78-1.09-9.25-1.64-16.4-1.64-.6,0-.9-.6-.9-1.79s.3-1.79.9-1.79c4.77,0,10.14.15,16.11.45,5.96.3,12.33.45,19.09.45,7.16,0,13.72-.15,19.69-.45,5.96-.3,11.23-.45,15.81-.45.6,0,.89.6.89,1.79s-.3,1.79-.89,1.79c-7.16,0-12.58.6-16.26,1.79-3.68,1.19-6.12,3.28-7.31,6.26-1.19,2.98-1.79,7.36-1.79,13.12v137.5Z"/>
      <path class="cls-1" d="M1457.69,580.56h-124.97c-.4,0-.6-.6-.6-1.79s.2-1.79.6-1.79c7.35,0,12.82-.49,16.4-1.49,3.58-.99,6.01-2.98,7.31-5.96,1.29-2.98,1.94-7.35,1.94-13.12v-138.09c0-5.76-.65-10.09-1.94-12.97-1.29-2.88-3.73-4.87-7.31-5.97-3.58-1.09-9.05-1.64-16.4-1.64-.4,0-.6-.6-.6-1.79s.2-1.79.6-1.79h119.9c1.79,0,2.68.9,2.68,2.68l.6,36.69c0,.6-.55.95-1.64,1.04-1.1.1-1.64-.15-1.64-.75-.6-10.74-3.83-18.99-9.69-24.76-5.87-5.76-13.47-8.65-22.82-8.65h-18.2c-6.76,0-11.88.5-15.36,1.49-3.48,1-5.87,2.88-7.16,5.67-1.3,2.79-1.94,6.86-1.94,12.23v135.41c0,5.17.64,9.15,1.94,11.93,1.29,2.79,3.58,4.67,6.86,5.67,3.28,1,8.2,1.49,14.76,1.49h23.86c9.54,0,17.55-3.43,24.01-10.29,6.46-6.86,10.69-16.15,12.68-27.89,0-.6.6-.79,1.79-.6,1.19.2,1.79.6,1.79,1.19-.8,5.17-1.45,11.44-1.94,18.79-.5,7.36-.75,14.22-.75,20.58,0,2.98-1.59,4.47-4.77,4.47ZM1440.99,511.06c0-8.75-2.14-15.01-6.41-18.79-4.28-3.77-11.38-5.67-21.33-5.67h-44.74v-6.26h45.63c9.54,0,16.35-1.64,20.43-4.92,4.07-3.28,6.11-8.6,6.11-15.96,0-.4.6-.6,1.79-.6s1.79.2,1.79.6c0,5.96-.05,10.59-.15,13.87-.1,3.28-.15,6.71-.15,10.29,0,4.58.1,9.05.3,13.42.2,4.38.3,9.05.3,14.02,0,.4-.6.6-1.79.6s-1.79-.2-1.79-.6Z"/>
      <path class="cls-1" d="M1660.71,584.13c0,.4-.5.64-1.49.75-1,.1-1.69.05-2.09-.15l-137.2-166.13c-6.76-8.15-12.78-13.67-18.04-16.55-5.27-2.88-10.29-4.33-15.06-4.33-.6,0-.89-.6-.89-1.79s.3-1.79.89-1.79c3.58,0,7.21.1,10.89.3,3.68.2,7.01.3,9.99.3,3.58,0,6.96-.1,10.14-.3,3.18-.2,5.56-.3,7.16-.3,2.58,0,4.37,1.15,5.37,3.43.99,2.29,3.88,6.31,8.65,12.08l119.3,146.45,2.38,28.04ZM1510.39,548.04v-147.04l6.86.6v146.45c0,10.34,1.79,17.75,5.37,22.22,3.58,4.47,9.54,6.71,17.89,6.71.6,0,.9.6.9,1.79s-.3,1.79-.9,1.79c-3.98,0-8.05-.1-12.23-.3-4.18-.2-8.85-.3-14.02-.3s-9.74.1-14.32.3c-4.58.2-8.95.3-13.12.3-.4,0-.6-.6-.6-1.79s.2-1.79.6-1.79c8.75,0,14.86-2.24,18.34-6.71,3.48-4.47,5.22-11.88,5.22-22.22ZM1660.71,426.95v157.18l-6.86-9.25v-147.94c0-10.34-1.74-17.79-5.22-22.37-3.48-4.57-9.3-6.86-17.45-6.86-.4,0-.6-.6-.6-1.79s.2-1.79.6-1.79c3.97,0,8.1.15,12.38.45,4.27.3,8.9.45,13.87.45s9.49-.15,14.17-.45c4.67-.3,8.99-.45,12.97-.45.6,0,.89.6.89,1.79s-.3,1.79-.89,1.79c-8.55,0-14.67,2.29-18.34,6.86-3.68,4.58-5.52,12.03-5.52,22.37Z"/>
      <path class="cls-1" d="M1746.46,399.51c-12.33,0-21.62,3.18-27.89,9.54-6.26,6.37-10.79,17.2-13.57,32.51,0,.4-.55.6-1.64.6s-1.64-.2-1.64-.6c.4-2.58.79-6.21,1.19-10.89.4-4.67.84-9.69,1.34-15.06.49-5.37.89-10.59,1.19-15.66s.45-9.19.45-12.38c0-.99.54-1.49,1.64-1.49s1.64.5,1.64,1.49c0,1.99.99,3.43,2.98,4.33,1.98.89,4.22,1.49,6.71,1.79,2.48.3,4.62.45,6.41.45,17.1.6,37.08.9,59.95.9,14.12,0,25.3-.15,33.55-.45,8.25-.3,16.25-.45,24.01-.45,6.76,0,11.98-.45,15.66-1.34,3.68-.89,6.01-2.93,7.01-6.11.2-.79.79-1.19,1.79-1.19s1.49.4,1.49,1.19c-.2,2.98-.5,7.06-.89,12.23-.4,5.17-.7,10.54-.89,16.11-.2,5.57-.4,10.74-.6,15.51-.2,4.77-.3,8.45-.3,11.04,0,.4-.6.6-1.79.6s-1.79-.2-1.79-.6c-.6-15.51-3.78-26.4-9.54-32.66-5.77-6.26-15.31-9.4-28.63-9.4-8.35,0-14.62.4-18.79,1.19-4.18.8-6.91,2.54-8.2,5.22-1.3,2.68-1.94,7.01-1.94,12.97v137.5c0,5.77.69,10.14,2.09,13.12,1.39,2.98,4.12,4.97,8.2,5.96,4.07,1,10.29,1.49,18.64,1.49.6,0,.89.6.89,1.79s-.3,1.79-.89,1.79c-5.17,0-11.04-.1-17.6-.3-6.56-.2-13.72-.3-21.47-.3s-14.32.1-20.88.3c-6.56.2-12.53.3-17.89.3-.4,0-.6-.6-.6-1.79s.2-1.79.6-1.79c8.15,0,14.36-.49,18.64-1.49,4.27-.99,7.11-2.98,8.5-5.96,1.39-2.98,2.09-7.35,2.09-13.12v-138.09c0-5.96-.7-10.29-2.09-12.97-1.39-2.68-4.18-4.33-8.35-4.92s-10.44-.89-18.79-.89Z"/>
      <path class="cls-1" d="M2014.92,580.56h-124.97c-.4,0-.6-.6-.6-1.79s.2-1.79.6-1.79c7.35,0,12.83-.49,16.4-1.49,3.58-.99,6.01-2.98,7.31-5.96,1.29-2.98,1.94-7.35,1.94-13.12v-138.09c0-5.76-.65-10.09-1.94-12.97-1.3-2.88-3.73-4.87-7.31-5.97-3.58-1.09-9.05-1.64-16.4-1.64-.4,0-.6-.6-.6-1.79s.2-1.79.6-1.79h119.9c1.79,0,2.69.9,2.69,2.68l.6,36.69c0,.6-.55.95-1.64,1.04-1.09.1-1.64-.15-1.64-.75-.6-10.74-3.83-18.99-9.69-24.76-5.87-5.76-13.47-8.65-22.82-8.65h-18.19c-6.76,0-11.88.5-15.36,1.49-3.48,1-5.87,2.88-7.16,5.67-1.29,2.79-1.94,6.86-1.94,12.23v135.41c0,5.17.64,9.15,1.94,11.93,1.29,2.79,3.58,4.67,6.86,5.67,3.28,1,8.2,1.49,14.76,1.49h23.86c9.54,0,17.55-3.43,24.01-10.29,6.46-6.86,10.69-16.15,12.68-27.89,0-.6.6-.79,1.79-.6,1.19.2,1.79.6,1.79,1.19-.8,5.17-1.45,11.44-1.94,18.79-.5,7.36-.75,14.22-.75,20.58,0,2.98-1.59,4.47-4.77,4.47ZM1998.22,511.06c0-8.75-2.14-15.01-6.41-18.79-4.28-3.77-11.38-5.67-21.32-5.67h-44.74v-6.26h45.63c9.54,0,16.35-1.64,20.43-4.92,4.07-3.28,6.12-8.6,6.12-15.96,0-.4.6-.6,1.79-.6s1.79.2,1.79.6c0,5.96-.05,10.59-.15,13.87-.1,3.28-.15,6.71-.15,10.29,0,4.58.1,9.05.3,13.42.2,4.38.3,9.05.3,14.02,0,.4-.6.6-1.79.6s-1.79-.2-1.79-.6Z"/>
      <path class="cls-1" d="M2073.71,429.04c0,8.16,2.04,15.17,6.12,21.03,4.07,5.87,9.29,10.99,15.66,15.36,6.36,4.38,13.12,8.75,20.28,13.12,7.35,4.18,14.46,8.65,21.33,13.42,6.86,4.77,12.53,10.44,17,17,4.47,6.56,6.71,14.61,6.71,24.16s-2.38,18.15-7.16,25.8c-4.77,7.66-11.68,13.77-20.73,18.34-9.05,4.57-20.23,6.86-33.55,6.86-4.77,0-9.5-.35-14.17-1.04-4.67-.7-9.35-1.84-14.02-3.43-4.67-1.59-9.3-3.58-13.87-5.97-1-.6-1.64-1.34-1.94-2.24-.3-.9-.55-2.04-.74-3.43l-3.88-40.56c-.2-.99.25-1.54,1.34-1.64,1.09-.1,1.74.25,1.94,1.04,1.39,5.96,3.38,12.03,5.96,18.19,2.58,6.17,5.97,11.83,10.14,17,4.18,5.17,9.25,9.35,15.21,12.53,5.96,3.18,12.92,4.77,20.88,4.77,5.77,0,11.38-1.09,16.85-3.28,5.47-2.19,9.94-5.76,13.42-10.74,3.48-4.97,5.22-11.73,5.22-20.28,0-9.74-2.14-17.84-6.41-24.31-4.28-6.46-9.7-12.08-16.26-16.85-6.56-4.77-13.53-9.25-20.88-13.42-6.96-4.37-13.67-8.85-20.13-13.42-6.46-4.57-11.73-9.99-15.81-16.26-4.08-6.26-6.12-14.06-6.12-23.41,0-10.54,2.69-19.24,8.05-26.1,5.37-6.86,12.33-11.98,20.88-15.36,8.55-3.38,17.4-5.07,26.54-5.07,5.56,0,11.33.55,17.3,1.64,5.96,1.09,11.83,2.94,17.6,5.52,1.59.6,2.73,1.34,3.43,2.24.7.89,1.04,1.84,1.04,2.83l2.09,34c0,.8-.5,1.24-1.49,1.34-1,.1-1.69-.25-2.09-1.04-.4-3.98-1.49-8.4-3.28-13.27-1.79-4.87-4.38-9.49-7.75-13.87-3.38-4.37-7.66-7.95-12.83-10.74-5.17-2.78-11.44-4.18-18.79-4.18-7.76,0-14.07,1.64-18.94,4.92-4.88,3.28-8.46,7.46-10.74,12.53-2.29,5.07-3.43,10.49-3.43,16.25Z"/>
    </g>
  </g>
</svg>