<?xml version="1.0" encoding="UTF-8"?>
<svg id="Capa_2" data-name="Capa 2" xmlns="http://www.w3.org/2000/svg" viewBox="0 0 978.04 184.19">
  <defs>
    <style>
      .cls-1 {
        fill: #082f7b;
      }

      .cls-2 {
        fill: #389afc;
      }
    </style>
  </defs>
  <g id="Capa_1-2" data-name="Capa 1">
    <g>
      <path class="cls-2" d="M683.79,69.76c-2,4.01-4.37,6.18-5.13,12.5-5.5,45.43,42.74,86.36,84.24,57.76,7.74-5.34,10.76-11.94,17.86-17.49,1.8.45,18.88,29.89,19.04,31.74.61,6.97-26.22,21.29-32.84,23.55-78.9,26.96-149.84-47.11-116.71-123.82,30.62-70.9,133.68-70.75,166.53-1.05,13.14,27.88,14.42,65.71,40.26,85.74,26,20.15,63.64,9.57,77.95-19.15,26.39-52.94-32.66-111.82-79.47-72.96-4.59,3.81-7.97,9.61-11.62,12.98-1.62,1.5-1.25,2.3-3.83.9-1.67-.91-18.75-30.16-18.29-31.96,11.6-14.32,30.72-23.87,48.79-26.78,148.44-23.87,139.33,210.67-4.01,179.64-59.85-12.96-61.99-60.05-80.36-105.66-20.71-51.41-77.08-56.73-102.42-5.93Z"/>
      <path class="cls-1" d="M530.28,111.78v-30.68h89.41v99.72h-30.83v-21.48c-33.47,37.04-93.06,28.55-123.28-8.48-32.88-40.3-22.03-107.93,21.67-136.36,39.95-25.99,101.6-13.69,124.61,28.82-.37,2.1-28.06,19.67-29.79,19.28-37.41-58.39-114.22-16.53-95.42,48.88,11.86,41.25,66.41,52.23,89.6,16.14,1.1-1.71,9.45-15.84,4.13-15.84h-50.1Z"/>
      <polygon class="cls-1" points="132.57 4.39 132.57 36.61 35.45 36.61 35.45 74.96 114.07 74.96 114.07 107.18 35.45 107.18 35.45 148.6 132.57 148.6 132.57 180.82 0 180.82 0 4.39 132.57 4.39"/>
      <polygon class="cls-1" points="436.25 4.39 436.25 36.61 339.13 36.61 339.13 74.96 417.75 74.96 417.75 107.18 339.13 107.18 339.13 148.6 436.25 148.6 436.25 180.82 303.68 180.82 303.68 4.39 436.25 4.39"/>
      <polygon class="cls-1" points="192.69 4.39 194.31 146.99 285.18 148.6 285.18 180.82 157.23 180.82 157.23 4.39 192.69 4.39"/>
    </g>
  </g>
</svg>