<?xml version="1.0" encoding="UTF-8"?>
<svg id="Capa_2" data-name="Capa 2" xmlns="http://www.w3.org/2000/svg" viewBox="0 0 1475 915">
  <defs>
    <style>
      .cls-1 {
        fill: #fff;
      }
    </style>
  </defs>
  <g id="Capa_1-2" data-name="Capa 1">
    <g>
      <path class="cls-1" d="M1475,193.79v721.21l-1468.01-1.5V193.79h1468.01ZM1460.01,208.77H22.98v690.25h1437.03V208.77Z"/>
      <path class="cls-1" d="M1469,0v145.84H0V0h1469ZM1454.01,15.98H14.99v114.87h1439.03V15.98Z"/>
      <path class="cls-1" d="M561.63,277.7l-229.11,561.63c-5.45,9.33-19.58,4.33-17.52-6.49,1.11-5.85,7.73-19.18,10.31-25.69,73.78-186.44,153.16-370.73,227.13-557.11,3.22-8.02,11.24-11.15,17.16-3.8l239.86,588.34c.02,8.48-9.97,12.8-16.02,7.01l-229.79-561.44-2.02-2.46Z"/>
      <path class="cls-1" d="M1026.3,843.58c-1.65,11.26-18.67,12.6-20.01,1.02l.54-366.1c4.6-6.54,12.53-6.8,17.91-.96l251.92,362.52c2.94,10.71-10.81,17.59-17.97,8.97l-232.4-334.58v329.14Z"/>
      <path class="cls-1" d="M1246.16,592.35v-327.14c0-.89,2.13-6.09,2.96-7.03,5.07-5.72,16.56-3.23,17.05,5.01l-.78,365.86c-3.03,6.07-12.24,7.52-16.67,2.19l-252.61-362.82c-3.86-9.6,7.99-18.86,15.19-10.2l234.86,334.12Z"/>
      <path class="cls-1" d="M1370.8,254.94c5.27-.47,9.42,2.91,10.58,7.95l.72,577.72c.61,11.96-13.57,16.83-19.57,6.51V260.66c.93-2.99,5.3-5.45,8.27-5.72Z"/>
      <path class="cls-1" d="M907.07,849.76c-5.31,5.67-17.34,2.51-16.72-6.14l.5-582.96c4.37-8.22,14.54-7.41,17.88,1.21l.71,580.75c-.02,2.17-.92,5.59-2.37,7.13Z"/>
      <path class="cls-1" d="M225.62,254.9c6.24-.79,11.08,5.17,10.26,11.27l-.49,579.96c-3.72,8.44-14.18,8.06-18.1,0l-.49-580.96c-.18-5.7,3.19-9.56,8.81-10.27Z"/>
      <path class="cls-1" d="M109.7,254.9c6.34-.67,10.99,5,10.26,11.27l-.49,579.96c-3.72,8.44-14.18,8.06-18.1,0l.03-584.44c.97-3.76,4.47-6.38,8.29-6.79Z"/>
      <path class="cls-1" d="M477.84,791.3l-20.28,49.15c-5.77,8.8-20.6.77-16.37-9.37,8.81-15.61,13.56-39.57,22.64-54.28,2.42-3.91,6-4.28,10.31-4.68,57.05,3.16,118.42-4.09,174.96,0,7.35.53,9.21.76,12.63,7.35,5.94,11.47,17.24,37.92,20.85,50.07,3.51,11.79-7.15,19.52-16.05,11.05l-21.64-49.29h-167.06Z"/>
      <path class="cls-1" d="M590.6,656.28l-37.75-92.62c-2.62-9.23,8.21-17.73,15.72-10.71,1.53,1.43,3.22,5.64,4.23,7.76,13.43,28.29,29.15,67.66,39.56,97.3,2.71,7.71,2.94,15.06-7.24,16.27-26.64,3.17-59.56-2.34-86.87-.11-6.29-.53-10.61-6.89-8.06-12.88.42-1,5.2-5.01,5.97-5.01h74.45Z"/>
      <path class="cls-1" d="M664.31,47.21c48.12-6.6,48.95,63.96,3.77,61.67-36.62-1.86-38.52-56.9-3.77-61.67ZM667.31,59.2c-19.69,2.63-19.89,34.01-1.17,36.61,8.11,1.13,15.4-.73,19.61-8.19,7.83-13.86-1.99-30.61-18.44-28.42Z"/>
      <path class="cls-1" d="M415.5,47.23c44.16-5.56,48.11,57.94,8.59,61.52-42.57,3.86-46.21-56.79-8.59-61.52ZM433.34,91.54c8.6-8.61,6.54-25.84-5.1-30.64-15.98-6.59-28.07,5.88-25.28,22.27,2.28,13.41,21.15,17.61,30.38,8.37Z"/>
      <path class="cls-1" d="M796.24,47.23c44.16-5.56,48.11,57.94,8.59,61.52-42.57,3.86-46.21-56.79-8.59-61.52ZM814.09,91.54c8.6-8.61,6.54-25.84-5.1-30.64-15.98-6.59-28.07,5.88-25.28,22.27,2.28,13.41,21.15,17.61,30.38,8.37Z"/>
      <path class="cls-1" d="M936.15,47.23c44.16-5.56,48.11,57.94,8.59,61.52-42.57,3.86-46.21-56.79-8.59-61.52ZM953.99,91.54c8.6-8.61,6.54-25.84-5.1-30.64-15.98-6.59-28.07,5.88-25.28,22.27,2.28,13.41,21.15,17.61,30.38,8.37Z"/>
      <path class="cls-1" d="M1257.93,47.23c44.16-5.56,48.11,57.94,8.59,61.52-42.57,3.86-46.21-56.79-8.59-61.52ZM1275.77,91.54c8.6-8.61,6.54-25.84-5.1-30.64-15.98-6.59-28.07,5.88-25.28,22.27,2.28,13.41,21.15,17.61,30.38,8.37Z"/>
      <path class="cls-1" d="M898.39,46.95v60.93h-11.99v-32.96c-3.77,2.96-7.16,6.54-10.51,9.97-1.72,1.77-2.7,5.62-5.91,5.08-.66-.11-1.18-2.22-2.01-3.08-4-4.13-8.13-8.29-12.55-11.97v32.96h-11.99v-60.93l4.55.95,22.93,25,22.93-25,4.55-.95Z"/>
      <path class="cls-1" d="M1007.32,107.88v-59.93h22.48c13.91,0,25.4,16.4,25.56,29.45.16,13.44-11.14,30.48-25.56,30.48h-22.48ZM1019.31,95.9c31.35,4.99,31.35-40.95,0-35.96v35.96Z"/>
      <path class="cls-1" d="M1332.6,47.95c13.77,2.28,18.41,22.6,8.54,31.51-1.92,1.73-4.43,2.05-5.99,4.04l12.93,24.37-13-.48c-2.43-1.48-9.05-19.37-11.47-21.5-1.84-1.62-4.27-.91-6.51-.98v22.97h-11.99v-59.93c8.34.97,19.53-1.32,27.48,0ZM1317.1,72.93c6.29-.57,16.85,2.95,16.85-6.5,0-9.44-10.54-5.93-16.85-6.5v13Z"/>
      <polygon class="cls-1" points="68.95 46.95 72.74 47.17 101.93 80.91 101.93 47.95 113.92 47.95 113.92 108.88 110.14 108.66 80.95 75.92 80.95 107.88 68.95 107.88 68.95 46.95"/>
      <polygon class="cls-1" points="1174.2 46.95 1177.99 47.17 1207.18 80.91 1207.18 47.95 1219.17 47.95 1219.17 108.88 1215.39 108.66 1186.2 75.92 1186.2 107.88 1174.2 107.88 1174.2 46.95"/>
      <polygon class="cls-1" points="713.52 46.95 717.3 47.17 746.49 80.91 746.49 47.95 758.49 47.95 758.49 108.88 754.7 108.66 725.51 75.92 725.51 107.88 713.52 107.88 713.52 46.95"/>
      <path class="cls-1" d="M552.63,47.95v41.45c0,9.31,19.99,9.31,19.99,0v-41.45h11.99v43.45c0,9.24-13.01,17.37-21.53,17.51s-22.44-7.88-22.44-17.51v-43.45h11.99Z"/>
      <path class="cls-1" d="M301.8,47.95v41.45c0,9.31,19.99,9.31,19.99,0v-41.45h11.99v43.45c0,9.24-13.01,17.37-21.53,17.51s-22.44-7.88-22.44-17.51v-43.45h11.99Z"/>
      <path class="cls-1" d="M532.63,107.88l-12.33-.16-4.29-6.7-18.74-.2-3.25,6.92-12.35.13,25.48-61.91,25.48,61.91ZM512.65,89.89l-5.98-14.97-5,14.97h10.99Z"/>
      <polygon class="cls-1" points="1433.03 47.95 1433.03 59.93 1415.04 59.93 1415.04 71.92 1431.03 71.92 1431.03 83.91 1415.04 83.91 1415.04 95.9 1434.03 95.9 1434.03 107.88 1403.05 107.88 1403.05 47.95 1433.03 47.95"/>
      <polygon class="cls-1" points="1097.26 47.95 1097.26 59.93 1079.27 59.93 1079.27 71.92 1095.26 71.92 1095.26 83.91 1079.27 83.91 1079.27 95.9 1098.26 95.9 1098.26 107.88 1067.28 107.88 1067.28 47.95 1097.26 47.95"/>
      <path class="cls-1" d="M158.89,49.97l-2.02,10.97c-5.6-1.92-18.12-4.88-18.05,4.52.04,5.71,14.41,8.34,19.1,12.93,9.57,9.38,4.42,27.41-8.59,29.44-4.22.66-22.87.17-23.45-5.43-.25-2.43,2.11-7.29,1.03-10.49,5.45,2.41,16.97,6.88,22.06,2.58,9.71-8.2-15.87-13.19-20.09-21.04-10.35-19.23,13.69-31.87,30.01-23.47Z"/>
      <polygon class="cls-1" points="1394.06 47.95 1394.06 59.93 1379.07 59.93 1379.07 107.88 1367.07 107.88 1367.07 59.93 1352.08 59.93 1352.08 47.95 1394.06 47.95"/>
      <polygon class="cls-1" points="634.57 47.95 634.57 59.93 619.58 59.93 619.58 107.88 607.59 107.88 607.59 59.93 592.6 59.93 592.6 47.95 634.57 47.95"/>
      <polygon class="cls-1" points="383.74 47.95 383.74 59.93 368.75 59.93 368.75 107.88 356.76 107.88 356.76 59.93 341.77 59.93 341.77 47.95 383.74 47.95"/>
      <polygon class="cls-1" points="281.81 47.95 281.81 59.93 266.82 59.93 266.82 107.88 254.83 107.88 254.83 59.93 239.84 59.93 239.84 47.95 281.81 47.95"/>
      <polygon class="cls-1" points="209.86 47.95 209.86 59.93 194.87 59.93 194.87 107.88 182.88 107.88 182.88 59.93 167.89 59.93 167.89 47.95 209.86 47.95"/>
      <polygon class="cls-1" points="1121.24 47.95 1121.24 95.9 1140.23 95.9 1140.23 107.88 1109.25 107.88 1109.25 47.95 1121.24 47.95"/>
      <rect class="cls-1" x="43.97" y="47.95" width="11.99" height="59.93"/>
      <rect class="cls-1" x="218.85" y="47.95" width="11.99" height="59.93"/>
      <path class="cls-1" d="M684.54,29.97c-2.85,3.35-6,11.51-10.43,12.05-2.64.32-5.82-.34-8.55-.07l4.49-11.98h14.49Z"/>
    </g>
  </g>
</svg>