<?xml version="1.0" encoding="UTF-8"?>
<svg id="Capa_2" data-name="Capa 2" xmlns="http://www.w3.org/2000/svg" viewBox="0 0 1344.16 1590">
  <defs>
    <style>
      .cls-1 {
        fill: #fff;
      }
    </style>
  </defs>
  <g id="Layer_1" data-name="Layer 1">
    <g>
      <path class="cls-1" d="M101.88,0c-.48,2.19,1.04,2.43,2.71,2.74,5.93,1.07,12.87-.16,18.29-2.74h101c6.27,2.86,12.75,5.43,18.88,8.62,27.59,14.35,48.8,35.83,61.32,64.68,1.67,3.85,4.98,18.49,7.8,20.26,4.86,3.04,7.89-7.65,9.62-10.44,4.26-6.87,5.7-8.38,8.38-16.12,5.01-1.8,8.54-12.05,12-16.5,2.56-3.28,8.17-9.47,11-12.5.42-.46,1.15-1.08,2-2,9.79-10.62,20.41-22.46,33.5-30l6.5-6h32c.55,2.61-1.29,2.03-2.74,2.71-13.33,6.32-35.06,22.39-44.3,33.79-.78.96-.72,2.9-1.18,3.28-.67.55-2.62.11-3.71.76-2.93,1.75-10.43,14.13-12.08,17.46-.45.29-1.95.06-2.54.91-5.71,7.89-11.17,15.81-16.46,24.09-.58.11-1.34-.04-2,0-3.87.24-.96,3.56-2.75,7.75-.75,1.75-2.76,2.75-3.66,4.34-3.88,6.82-7.76,13.5-10.59,20.91-.11.29.11.7,0,1-5.98,1.52-7.35,13.21-5,18-.08.65.08,1.35,0,2-1.5,12.37,8.25,29.97,7.63,43.87l4.37,11.13c0,.67-.02,1.34,0,2,.45,15.93,4.33,31.64,6.92,47.58.38,2.35-1.5,8.99,2.08,8.42.19,1.95-.18,4.04,0,6-1.86,4.62-1.9,13.37,2,17,.02.33-.02.67,0,1,0,.07-.73.49-.69,1.27,3.28,63.72,2.23,127.72-2.32,191.22-.31,4.39-.19,28.15,2.17,30.31.14.13,1.46-.57,2.35.11,1.75,1.33,2.4,3.62,3.99,5.08l4.28-3.19.17-356.34c-.09-2.64.8-5.41,3.11-6.89,4.16-2.68,28.78-1.69,35.48-1.61,3.2.04,4.77,1.74,8.19.3,9-3.79,3.81-20.84,5.71-28.32,5.2-1,11.69-4.55,16.5-5.5,19.9-3.95,40.28-6.08,60.44-9.56,23.59-4.08,46.55-10.14,70.28-12.48,3.68-.36,16.5.24,17.91-1.37.55-.63.29-1.89.44-2.03.67-.61,1.31-.67,2-1,1.04,1.66,3.79,1,5.49,1.02,25.58.26,50.97-4.52,75.97-4.97,13.37-.24,27.97.9,41.07,0,2.28-.16,4.78-.25,6.47-2.04.65.07,1.36-.09,2,0-.57,2.64,1.32,1.97,2.96,2.49,13.47,4.25,26.05,3.08,39.46,4.59,21.69,2.45,47.79,10.49,66.87,18.27,4.75,1.93,12.76,5.68,16.71,6.65.32.08.7-.09,1,0l8.94,6.56c3.11.98,9.31.72,12.04-1.1,1.48-.99,1.56-2.9,2.8-3.43,2.11-.91,6.1-.81,8.79-1.96,2.36-1.01,3.67-3.23,6.15-3.86,1.43-.36,5.07-.01,5.3-.2.19-.16-.12-2.37,0-3,2.98-.72,14.22-1.62,15.89-3.13.41-.37.03-1.34.11-1.87,11.26-1.96,22.94-4.21,34.51-6.03,1.86-.29,4.05,1.26,3.49-1.97.66-.03,1.33.01,2,0,9.72-.21,21.76-2.65,32.46-3.04,14.31-.52,28.75.39,43.08.07,1.9-.04,3.92.48,5.46-1.03.67,0,1.33,0,2,0,1.54,1.51,3.56.99,5.46,1.03,17.07.33,34.3.04,51,.92,7.75.41,17.66,7.59,26.53,3.05.66.06,1.34-.07,2,0-.56,3.01,1.53,1.94,3.45,2,11.63.33,17.48,3.13,28.12,4.92,7.26,1.23,16.32,1.02,23.69,2.31,6.57,1.15,15.17,4.85,21.32,5.68,9.22,1.26,10.75-.21,19.65,3.38,5.31,2.14,9.85,1.14,15.01,1.96,12.98,2.08,31.39,9.2,43.76,9.74.66.03,1.34-.04,2,0,1.85,2.73,5.27,1.83,8,2,.33.02.67-.03,1,0-.56,2.5,1.26,2.13,2.95,2.5,2.19.48,8.53.78,9.59,2.46,3.32,5.24-2.31,19.53-.54,26.05.99.04,2-.04,3,0,.66.02,1.35.04,2,0,1.56,1.5,3.56.99,5.46,1.03,8.88.17,18.97.65,27.54-1.03.65.03,1.35.04,2,0-.48,2.72,2.53,1.76,3.02,4.47,1.06,5.81-1.46,12.74-1,19.02.32,4.41,2.29,7.78,3.05,11.94l-.11,577.11c-.75,5.11,4.31,8.47,5.46,12.54,1.79,6.34.73,20.41-4.37,25.22-7.22,6.82-47.34-1.4-59.99,5.28-2.57,1.36-3.46,4.67-5.14,5.86s-13.36,6.33-15.43,6.57c-24.99,2.86-58.31-.89-83.95-1.05-101.21-.61-202.23,1.16-302.94-2.85-9.2,1.24-13.39-.07-19.59,7.67-1.7,2.12-2.21,4.35-3.01,6.23-.71.25-2.35-.68-3.04.64-.35.66-3.04,9.31-2.99,9.82.71,7.45,15.89,3.58,20.49,3.49,77.99-1.53,155.5,1.69,233.01,4.08,48.73,1.5,97.95-1.56,146.6.4,1.79,1.24,1.31,13.13-.73,13.6-5.85,1.36-15.73-1.04-21.79-1.09-26.87-.23-55.08,2.44-81.75.75-1.71-.11-3.2-2.16-2.79,1.3-.67,0-1.33,0-2,0l-6.31-1.58c-94.13-2.16-189.36-4.36-284.26-3.48-11.04,1.92-7.65,6.03-7.35,13.56.24,6.09-3.23,10.56,6.42,11.49,57.59,1.39,115.46-1.8,173.03-.02,32.27.99,66.05,3.4,97.92,4.08,43.16.92,86.43-1.15,129.59.41,3.8,1.13,1.89,7.61,3.96,11.54-2.19.18-4.24.9-6.46,1.05-44.9,3.09-95.91-.86-141-1.08-27.11-.14-56.4,3.79-81.97-2.04-54.16-2.37-110.6,4.31-164.16-1.85-11.46-1.32-11.98,4-8.47,13.49,1.46,3.95,8.36,11.71,12.62,12.38,4.54.72,12.03.12,16.98.1,50.57-.26,103.39-3.16,154.01-1.09,4.06.17,8.93,2.48,12.45.05.66.03,1.34-.03,2,0-.8,2.86,5.98,2.95,7.46,3.04,20.57,1.2,42.42.7,62.99,1,34.91.51,69.04-.69,103.94,1.06,2.35.12,4.91,1.74,7.2,1.81,9.93.32,41.42-3.55,48.69.99,1.12.7,1.23,2.7,2.73,3.56,6.89,3.93,24.41,8.23,32.43,8.58,5.77.25,20.88-2.73,23.81-1.85,4.09,1.23,5.34,5.68,7.42,8.56,4.48,6.21,7.88,8.96,5.47,17.91-1.24,4.61-3.36,7.28-5.8,10.68-1.63,2.27-.88,5.38-5.8,4.71-34.37-.26-68.73.14-103.1,0-3.5-.01-7.11-2.52-10.16,1.24-2.86,3.53-.41,19.53-2.3,25.17.28,1.55,6.03,7.72,7.48,8.6,1.65,1.01,2.96.66,3.52.94.41.78-.12,1.94,1.43,4.05,2.11,2.87,4.11,2.74,6.57,3.95.22,1.79,1.49,5.82,2.55,6.98,1.44,1.57,2.52.68,3.45,1.02,3.77,7.45,5.01,10.8,12,16,3.29,8.06,9.1,15.91,13.81,23.69,12.85,21.2,33.6,63.38,32.3,87.88-.02.46,1.72.31,1.89,1.08.55,2.5.07,5.66.84,9,.31,1.34,1.89,6.98,4.16,6.34-.01.67,0,1.33,0,2,.14,22.52-.01,46.44-.04,69.54-.01,10.94-1.02,21.98-.96,32.46,0,.67,0,1.33,0,2-.34,1.25-2.82,1.92-2.98,2.7-.92,4.52-.15,12.19-1.07,16.74-3.42,16.87-9.8,39.73-15.43,55.55-3.01,8.45-7.34,16.35-9.53,25.01l-1.98-1.02c1.97,3.93-1.79,6.42-1.05,10.49,1.07,5.82,13.51,5.7,17.97,7.08,8.24,2.56,19.22,11.57,26.71,16.29,1.53.96,6.12,1.91,6.36,2.15,1.17,1.19,5.71,8.97,7.57,10.93,1.4,1.48,6.59,4.45,7.15,5.34.87,1.38.44,4.33,1.29,5.96.75,1.44,6.34,7.91,7.75,10.46,13.26,24.06,10.84,50.22,9.24,76.3-.04.66,0,1.34,0,2-2.37-.52-2.91,3.18-3.67,4.82-2.27,4.92-4.22,12.3-6.4,16.39-2.94,5.51-7.34,6.89-9.93,14.78-7.55,1.9-3.46,1.71-7.54,5.94s-5.98,4.29-8.46,10.06c-.12.28.11.71,0,1-4.5-.78-6.96,3.4-10.31,5.19-5.51,2.95-11.1,5.04-16.66,8.33-1.57.93-3.14.92-3.03,3.48H254.88c-2.66-5.93-7.19-5.03-11.41-7.09-14.39-7.04-30.12-21.01-42.96-31.09-11-8.64-23.71-16.06-31.11-28.87-.67-1.16-.25-3.42-.65-3.82-.42-.42-4.67-.3-7.86-4.63-14.08-19.1-26.95-41.47-38.35-62.17-8.88-16.13-14.39-32.44-20.13-50.35-25.74-80.36-37.91-166.35-33.61-249.55,1.53-29.57,1.74-58.89,5.83-88.16,8.93-63.85,16.55-124.34,20.24-188.76,1.22-21.28,1.91-42.7,3-63.98-2.63-5.41-.74-14.28-3.11-18.88-3.24-6.27-11.89-9.84-16.9-14.1-25.12-21.3-41.19-48.71-41.93-81.99-.62-28.03-1.12-50.19,7.92-77.08,7.61-22.61,19.76-44.12,29.06-65.94,5.38-12.63,15.5-50.96,29.68-54.32,4.17-.99,9.09,1.04,11.49-4.51,25.49-59.66,51.95-119.33,79.02-177.98,21.21-45.95,42.38-93.29,66.7-137.28,8.84-15.99,23.16-35.53,29.5-51.52,6.36-16.06-3.98-42.15-11.87-56.96-16.67-31.26-56.08-53.35-91.06-55.94-17.95-1.33-50.85,3.05-67.94,9.03-11.77,4.12-9.04,14.07-15.3,19.98-4.64,4.37-24.09,13.31-30.95,16.77-15.44,7.77-25.82,11.31-43.78,11.2-11.41-.07-24.5-14.24-27.21-24.78-1.75-6.81-1.31-20.57-.23-27.64.56-3.69,3.56-6.49,5.5-9.5L19.88,0h82ZM775.62,113.32c-1.47-.65-28.65-6.9-31.32-7.23-8.31-1.03-20.34.12-27.87-1.13-2.8-.47-3.93-2.6-7-2.99-5.8-.74-13.09.61-19.1.1-20.24-1.71-42.01-3.54-62.82-1.75-1.81.16-3.96,2.21-6.27,2.37-4.74.34-11.35-1.25-16.88-.69-21.78,2.22-43.71,6.99-65.1,8.9-9.56.86-12.03,2.83-18.94,4.05-22.49,3.97-42.9,6.5-64.14,12.86-4.31,1.29-12.99,1.23-17.56,2.44-2.05.54-4.84,3.64-7.58,3.92l-2.02,551.7c7.18,1.92,11.22-2.92,17.61-4.61,9.02-2.38,18.47-3.79,27.51-5.49,4.68-.88,9.8-5.55,15.48-6.52,31.11-5.34,67.07-15.61,97.76-17.44,15.64-.93,28.65-1.31,43.95-3.85,7.61-1.26,11.54-2.45,20.04-1.94,6.71.4,5.44.68,12.06.03,13.67-1.34,24.94,3.93,37.96,4.95,6.73.52,14.52-.77,21.02-.02,8.34.97,16.87,4.18,24.9,6.1,26.27,6.28,51.87,14.82,75.95,28.05,3.79,2.08,7.83,4.26,11.51,6.49,4.49,2.72,3.61,6.8,10.85,2.67,3.11-1.78,8.9-8.05,12.31-9.74,24.24-11.99,49.26-22.59,76.54-25.46,6.2-.65,7.85-.82,13.1-2.06,3.86-.9,10.47.51,14.84,0,28.4-3.27,50.06-1.89,77.92,2.02,7.28,1.02,19.33-1.57,25.87-.03.82.19.34,1.98,2.15,2.1,20.27,1.27,40.1,5.12,60.03,7.89,3.57.5,24.09,3.15,25.12,3.92.92.69.98,2.81,2.1,3.09,2.67.66,7.41-.38,10.72.06,8.04,1.06,16.01,3.56,23.34,5.66,6.86,1.97,13.87,1.31,18.49,2.47,2.45.62,5.51,3.87,9.49,4.55,9.28,1.59,15.84,3.98,24.62,5.56,4.56.82,10.21,5.04,10.7-3.76.79-57.33-2.15-115.28,2.02-172.13-6.98-16.57-2.94-40.22-3-58.92-.08-23.62-1.93-47.46-2.12-70.98-.65-79.03-.03-158.06-.91-237.09.3-1.3-2.81-8.98-3.19-9.3-.4-.34-7.76-.27-10.08-1.23-13.95-5.74-33.53-7.66-49.03-11.17-9.18-2.08-15.78-3.26-25.02-4.98-5.57-1.03-13.35-5-18.29-5.71-23.51-3.38-46.63-5.22-69.82-8.18-47.75-6.09-97.37-7.36-145.37-1.12-15.09,1.96-26.43,5.37-41,9s-25.75,7.57-39.17,13.83c-1.77.83-8.05,5.48-8.56,5.52-7.35.58-14.9-7.18-21.32-9.8-13.67-5.58-30.89-9.85-42.46-14.98ZM310.3,497.41c2.63-2.13,8.38-3.68,9.38-7.12s-.14-9.59.29-13.71c6.8-65.55,5.43-133.57,2.54-199.25-1.44-32.85-7.42-62.29-14.36-94.1-.84-3.84-2.22-17.95-3.36-19.64-4.68-6.93-9.29,8.18-10.14,9.17s-3.16.72-3.61,1.4-.38,4.83-1.39,7.11c-1.37,3.09-5.57,7.04-7.15,9.84-11.8,20.88-22.7,43.65-33.51,64.7-39.42,76.82-73.21,156.34-108.73,234.11-1.23,2.69-3.57,3.4-4.15,4.78-1.63,3.89-1.79,11.48.35,15.23,1.02,1.79,3.67,2.95,4.22,4.78,3.06,10.3-11.39,39.05-15.49,50.1-6.23,16.74-11.83,34.7-18.24,51.76-10.8,28.75-28.51,58.42-15.8,90.68,14.48,36.75,54.52,41.68,89.18,33.7,50.93-11.72,100.82-60.06,110.22-111.59,5.54-30.38,7.75-65.65,11.32-96.86,1-8.72,1-18.39,2.09-26.94.32-2.49,4.3-6.48,6.33-8.14ZM346.88,576c-.18,2.64.2,5.37,0,8-.03.33.03.67,0,1-.23,3.07-.84,6.33-1,9-.25,4.29.18,8.7,0,13-.99,9.18-.92,19.4-2.12,28.38-3.56,26.55-27.28,76.11-47.38,93.63-10.74,9.36-16.37,20.33-27,29-12.36,10.08-30.79,20.56-44.8,28.2-2.74,1.49-7.49,2.06-9.62,3.37-1.72,1.06-4.77,5.82-6.53,7.46-16.85,15.73-21.32,18.77-31.07,39.94-25.12,54.55-30.71,119.84-39.58,179.42-9.9,66.54-21.33,130.11-18.94,199.15,2.11,60.79,8.9,108.56,29.28,165.72,6.69,18.78,14.06,37.64,20.85,54.96,6.74,17.17,19.59,30.68,30.82,45.39,16.73,21.92,32.25,43.54,58.75,54.73,1.23.52-.33,1.27,4.34,1.66-.51,2.34,2.84,2.39,5,3,.31.09.69-.08,1,0-.24,2.51-.06,1.95,2,2,.33,0,.76.07,1,0,1.75,1.96,4.4,2.99,7,3,.34.32.64.68,1,1,1.88,1.67,7.87,3.81,7,0,.66-.05,1.34.05,2,0,15.16-1.13,38.14,1.22,51.26-1.24,8.17-1.53,10.21-5.3,15.24-9.76,9.6-8.5,6.67-3.95,17.04-3.97,2.63,0,5.03-1.05,7.9-1.08,59.21-.67,118.3,2.17,177.55,1.04,1.26-1.26-3.78-18.63-6.28-20.7-3.3-2.74-27.79-.77-34.23-1.28-2.66-.21-4.78-1.72-7.07-1.93-15.88-1.43-32.08-.94-47.88-1.12-27.82-.33-55.83-.35-83.55,1.05.03-.33-.02-.67,0-1,.15-2.76-.36-5.77.05-8.45.35-2.31,3.24-5.08,1.95-8.55h2c53.02,0,107.67-.79,160.55.95,4.24.14,8.13,3.55,5.94-2.94l-6.49-8.01c-.1-.3.11-.71,0-1-.57-1.52-3.63-7.52-4.63-7.87-5.5.66-11.88-.97-16.98-1.03-3.85-.04-8.91.85-13.39.9-.33,0-.67,0-1,0-.66-5.04-8.62-1.99-11.46-1.95-38.91.43-77.55-1.31-116.37-.22-.78-1.97-6.84-16.32-3.59-16.89l154.46,1.64c3.14-2.33-3.59-16.47-3.08-20.54-9.79-.45-19.71.44-29.5,0-20.59-.93-40.71-1.85-61.46-2.04-.33,0-.67,0-1,0,.56-3.02-1.53-1.94-3.45-2-23.85-.8-56.9,3.11-79.09.05-3.91-.54-10.28-5.93-15.21-7.79-4.02-1.51-10.84-3.52-15-4-10.39-1.22-24,1.38-33.56-.49-3.09-.61-11.23-10.75-11.44-14.52-.17-2.94-.17-7.61-.21-10.77s2.25-12.37-.68-13.34c-4.55-1.5-17,.57-22.88-.11-2.8-.32-4.64-1.75-7.92-2.08-21.32-2.18-48.4,2.91-69.1.1-4.11-.56-5.17-3.37-8.46-5.04-.34-.17-.71-.97-1-1,.33-3.43-1.65-6.16-2.01-9.49-1.08-10.17,2.44-25.45,14.46-26.56,12.59-1.16,31.65,2.24,43.03.03.87-.17,10.62-6.01,12-7,2.62-1.88,6.85-7.44,9.14-7.7,1.78-.2,6.18.77,8.93.77,49.73.1,108.65-3.71,157.99-.09,5.52.4,10.76,2.62,15.92,3.08,26.1,2.35,55.63-1.89,82.1.02,1.73.59,4.44-2.32,4.44-3.56v-21.5l-254.34-2.16c-3.74-1.77-.29-3.83.07-5.61.43-2.09.12-4.2.73-6.27,2.55-8.79,8.3-5.45,14.86-5.34,1.49.03,3.27-.76,5.17-.72,77.41,1.69,154.43,3.53,232.06,3.15,6.48-.77,8.78-20.08.99-21.1-14.8-1.95-36.28.51-52.09.09-29.67-.79-59.21-1.68-89-2.09-6.94-.1-13.51-.93-19.92-1-30.01-.3-60.04.3-90.05.05-.82-.04-1.55-.24-2.04-.96-.32-.47-2.79-9.67-3.03-11.01-.4-2.22-.86-4.02.58-6.04.33-.03.67.02,1,0,7.57-.4,14.45.91,21.46,1.04,74.21,1.35,153.76-1.7,227.06,3.94,2.78.21,15.06.54,16.27-1.21l6.21-21.77-55.52.03c-55.74-3.13-112.75-1.58-168.93-4.07-12.62-.56-63.1,2.38-70.28-.72-1.73-.75-2.76-2.74-4.37-3.63-14.54-8.13-25.44-10.08-42.39-8.62-3.32.28-7.68,2.98-10.89,2.08-.94-.26-.87-3.11-1.72-4.44-1.61-2.5-6.57-6.2-7.24-8.74-.89-3.34-1.35-21.35-.46-24.22.63-2.02,2.75-1.98,3.5-3.01.7-.96.65-2.51,1.73-3.74,5.29-6,12.13-2.55,18.2-4.82,1.37-.51,1.7.32,1.38-2.1-1.39-.18-2.85-.65-3.95-1.55-8.51-7.02-17.57-15.27-24.05-23.96-3.19-4.29-5.82-10.1-9-14.5-.08-.31.08-.69,0-1-1.18-4.82-1.7-4.07-2.98-6.72-12.31-25.57-6.63-68.36,2.98-94.28.11-.29-.1-.7,0-1,2.95.84,2.03-3.03,2.76-5.42l-.76-.58c.33-.4.66-.65,1-1,2.65-2.75,1.37-1.58,3-4,.29-.42.75-.68,1-1,3.84-5.04,8.03-10.03,12.35-14.65,2.76-2.95,8.95-6.59,9.65-10.35,1.26-.34,3.15-.07,4.37-.92,1.05-.74.46-1.8.63-2.08.22-.36.79-.63,1-1,4.3.58,7.09-2.39,10-5,.29-.11.71.11,1,0l18-7c.33-.02.67.02,1,0,29.44-2.06,58.38-.91,87.5,0,3.08.1,19.57.42,20.5-1.02,1.82-2.85-1.9-3.83-4-3.98-.33-.03-.67.02-1,0-.16-.44-.54-.92-1-1-.32-.06-.67.04-1,0,.63-2.98-3.89-2.99-6-4-23.62-11.34-47.73-43.38-53.58-68.92-4.73-20.67-2.75-47.63,5.8-67.36,2.97-6.84,4.8-7.39,6.78-15.72.02-.08.72-.71,1-1,.15-.16.86.17,1,0,1.01-1.21.92-1.92,1-2,.32-.34.68-.65,1-1,.4-.44,3.9-.51,3-5,1.15-1.1,1.42-1.24,3-3l10-10c.19-.17.81.16,1,0,1.31-1.12.92-1.93,1-2,.19-.16.84.17,1,0,.6-.62,1.44-.49,2-2,.1-.27-.08-.67,0-1,.97.08,1.37-.42,2-1,.33-.3.73-.66,1-1,2.87-2.94,10.23-1.68,11-6,.87-.34,1.5-.8,2-1,7.01-2.8,14.36-5.68,21-9,.33-.04.67.04,1,0,5.61-.71,16.65-3,21.5-3h152.5l-1.48-2c-17.99-1.7-36.02-.49-54.06-.96-12.84-.33-25.52-2.1-38.46-2.04-.67,0-1.33,0-2,0l-61.5-2c-3.58-.13-1.54-4.16-3.5-6-.02-.33.02-.67,0-1,1.41-10.22.94-20.65,1-31,.04-6.32,0-12.68,0-19,0-6.65,0-13.35,0-20,0-3.33.01-6.67,0-10-.02-4.11.85-9.68-1-13,0-.67.02-1.33,0-2-.23-7.8-.06-15.43,0-23,1.91-7.45.91-16.21,1-24,.06-4.98.01-10.01,0-15,0-2.84-.01-6.26-.04-9.46-.07-7.51.14-15.04.04-22.54-1.23-1.62-1.81.02-2,1.48-.82,6.42.51,14.35,0,21.02-.21,2.75-1.84,5.09-2.01,7.5ZM794.88,705c-1.04-2.52-3.02-4.14-5.75-5.76-25.51-15.14-68.54-23.91-97.72-25.28-34.98-1.65-71.32.9-105.91,5.16-12.18,1.5-24.19,5.42-36.63,4.89l1.01,1.98c-7.57,1.23-16.73.25-24.29,2.23-3.07.8-4.23,3.46-8.66,4.34-5.35,1.06-21.25-.25-21.84,6.09-.69,7.46,11.83,4.26,15.3,4.29,5.31.06,9.59,1.74,13.97,2.06,13.75,1,22.58-1.69,36.26,1.92,6.19,1.64,9.2.06,14.7.03,65.32-.4,131.03.91,196.09,3.01,4.9.16,19.8,3.62,23.46.57,2.49-2.08.19-3.53,0-4.53-.06-.35.1-.75,0-1ZM1199.88,717.99c.23-2,.14-2.75-1.59-3.9-.85-.57-12.25-4.29-14.18-4.82-42.52-11.54-95.4-20.23-138.71-23.29-47.72-3.37-113.15-4.25-155.78,16.24-1.32.63-9.72,3.74-9.74,5.28-.02,2.55,3.56,3.29,5.49,3.51,13.99,1.63,30.94-.2,44.98-.07,17.73.17,34.66,2.13,52,2.01,29.06-.21,58.46,2.57,86.99,3.1,39.25.72,80.56-2.9,119.11,1.89,3.67.46,7.72-.19,11.44.05ZM431.88,949c.7,2.3,2.58,1.93,4.45,2.06,61.58,4.14,124.75-2.06,186.01,2.98,52.23,4.3,110.26-3.37,163.1.03,5.6-5.14,14.12-5.42,20.46-7.56,11.98-4.02,24.82-12.61,36.98-17.03.5-2.11-6.07-5.33-7.64-6.84-18-17.32-28.79-36.45-28.39-62.19.37-23.74,11.64-41.22,28.09-56.94,6.55-6.26,19.83-17.67,28.67-19.28,15.02-2.73,45.92-.24,62.81-.28,94.69-.24,190.62,2.51,285.92,3.09,34.15.21,68.76.26,102.65-.64,1.85-2.35,2.52-13.41.22-14.44-.63-.28-4.89-.94-5.89-.99-55.03-2.85-112.15.21-166.93-1.89-134.24-5.13-269.51-.23-404.05-2.04l-10.9-3.1c-124.05.42-248.34-.87-371.86-2.93-2.94,3.41-11.37,2.09-16.7,3.47-7.75,2.01-21.64,9.79-29.19,13.6-3.17,1.6-23.34,24.76-25.62,28.59-7.27,12.2-11.68,29.09-13.19,42.81-2.41,21.91,10.36,53.64,25.41,69.12,36.53,37.55,76.39,30.92,125.1,30.4,1.69-.02,4.45.64,5.49-1.02,1.8.18,3.38.79,5,1ZM1313.71,959.82c3.38-2.01,3.28-16.25-3.35-16.8l-178.03-.08-4.44,1.57,17.69,8.29c5.9,6.84,14.6,3.55,22.79,4.21,44.04,3.52,91.55,6.83,136.05,4.03,1.38-.09,8.88-.98,9.29-1.22ZM743.88,977.01l-96.53.03c-14.39-5.03-30.45.91-44.92-4.08-127.62,1.11-255.46-3.21-382.94.17-24.21,8.28-43.71,24.18-54.01,46.99-16.89,37.44-10.06,67.04,8.96,100.82,2.75,4.89,21.8,21.57,27.09,24.91,29.97,18.91,83.57,12.72,118.88,13.12,43.85.49,88.27,1.15,131.92,3.08,31.62,1.4,64.28-1.1,96.01-.06,5.39-1.02,8.89-13.23,11.49-17.51,10.68-17.57,24.51-39.02,37.04-54.96,15.89-20.22,32.52-31.88,52.49-47.52,7.13-5.58,13.82-11.52,21.01-16.99,22.76-17.29,48.59-29.68,72.2-45.77.89-.61,1.85.16,1.3-2.23ZM884.88,980c-.32.12-.64.86-1,1-2.72-.18-5.73.35-7,3-.78.36-1.94.53-3,1-.28.12-.73-.13-1,0-.8.38-1.13.49-2,1-1.63-.47-10.57,2.64-10.93,3.08-.33.41.06,2.07-.08,2.91,1.99.08,4.01-.08,6.01,0,.66.03,1.33-.02,2,0,3.62.08,7.43-.27,11,0,57.01,4.28,115.14,1.25,172.55,1.95,12.24.15,25.7,2.64,38,1.1,1.53-.19,5.84-1.74,3.41-3.51-10.86-3.78-20.47-8.83-31.96-10.54-14.49-2.16-30.15-.69-45-1-.67-.01-1.33.01-2,0-1.93-1.58-5.05-1.89-7.47-2.04-37.69-2.25-77.62,1.76-115.53.04-.64.08-1.41-.13-2,0l-4,2ZM1132.88,1014c-.05.02-.42-.81-.98-.52-2.52,1.33-10.59,8.63-12.73,9.3-7.33,2.3-25.38,1.41-33.77,1.19-3.38-.09-7.69-1.93-11.02-1.98-21.2-.29-49.61,4.51-69.44-1.56-3.87-1.18-11.11-.39-15.54-.44-63.45-.75-127.36.3-191.05.04-8.26-.03-10.71.43-18.68,4.03-8.58,3.87-17.4,9.5-24.8,14.38-3.48,2.29-5.23-.17-5.98,6.53,1.34.54,2.47-.95,3-.99.48,5.56,7.65,2.08,11.46,1.96,94.57-3.09,188.65,4.75,283.09,2.09,1.83-.05,3.43-.46,5.18-.65,1.65-.18,2.64,1.86,2.28-1.4.67,0,1.33,0,2,0-.43,3.55,1.22,1.3,2.8,1.29,10.21-.06,20.44.87,30.74.75,3.85-.04,14.68-3.21,13.45,4.38-.15.9-3.49,9.82-3.94,10.12-2.51,1.66-9.13-.49-12.49-.58-65.92-1.89-132.15,1.47-198.1.11-6.11-2.09-10.04-1.92-15.91-2.01-52.59-.8-105.24.47-157.83-.03l-19.62,17.65c-5.14,9.71,14.45,5.38,18.41,5.53,45.5,1.65,91.43,2.26,137,2.6,15.23.11,31.76-2.44,47.05-.85,13.78,1.43,25.37.8,39.45,1.05.11,0,.22.98,2,1,42.86.51,84.66-1.02,127.46,1.04,6.67.32,30.31-1.66,34.01,1.99,1.09,1.07,5.53,9.93,4.53,10.97l-398.55-1-3.45,2c-.33.04-.68-.06-1,0-1.32.23-2.13.16-2.98,1.5,4.48,6.71,9.43,17.46,18.46,18.53,20.51,2.41,41.41-.41,61.85.36,7.04.27,11.24,1.56,19.13,1.57,39.86.03,80.3-.26,120,0,15.32.1,29.61,1.3,44.54,2.04l161,1c5.8.92,4.18.67,8.29,3.26.91.57,4.96,3.65,5.71,1.74.67.33,1.34.68,2,1-.54,2.68,1.29,2.03,2.8,2.65,12.66,5.28,22.89,6.5,36.71,5.35,5.23-.43,9.54-4.44,14.95,1.03.33.33,5.03,7.12,5.32,7.68,7.68,15.29-2.42,36.77-20.79,34.28-.05.66.05,1.34,0,2s-.06,1.37,0,2c.08.9-.36,1.89.22,2.75.39.58,10.13,8.36,10.84,8.73,1.21.64,2.35.28,2.94.51.3.12.75-.13,1,0,.08,5.04,3.31,8.59,8,10,.3.35.7.64,1,1,.64,6.53,6.16,10.56,9.46,15.04,1.79,2.44,1.34,6.81,5.54,6.96.05.65.01,1.34,0,2-.02.87-1.55,1.46-.55,5.02.42,1.48,3.31,9.4,5.55,8.98,1.26,4.36,1.27,9.19,4,13-.11.62.07,1.35,0,2-1.68,15.51.62,31.34-4.05,46.45-1.49,4.82-6.21,11.93-6.95,16.55-.05.33.06.68,0,1-2.57-.54-2.05,1.24-2.72,2.73-1.49,3.32-2.78,7.01-4.28,10.27-10.07,6.45-15.43,18.09-30,26-3.17,1.72-9.12,4.97-12.54,5.03-1.36.02-2.27-.63-3.45-1.03,1.22,6.02-2.38,3.32-5.29,5.02-1.08.63-.59,1.83-.72,1.98-.11.12-1.71-.46-2.01.67-.21.78-.21,3.8.13,4.22,1.94,2.38,37.6.5,43.36,1.09,7.66-1.46,14.92-28.6,19.94-35.06,7.72-20.74,13.04-39.39,15.58-60.92.15-1.3-.1-2.69,0-4,4.52-3.79,4.84-10.71,5.05-16.5.07-1.88.84-4.09-2.05-3.5.06-.66-.06-1.34,0-2,3.56-3.04,1.39-8.41,2.06-12.44,5.07-30.53,2.65-73.79-5.14-103.98-1.27-4.92-3.83-10.51-3.93-15.59l-1.98,1.01c-2.34-12.41-10.6-22.39-13.96-34.3l-9.05-9.7c-.12-.28.12-.71,0-1-2.66-6.67-8.68-14.37-13.97-19.53-1.2-1.18-2.13-2.45-4.03-2.47-.11-.29.12-.71,0-1-3.03-7.53-8.54-13.21-15-18-5.17-7.77-9.51-12.42-16.38-18.13-1.23-1.02-1.56-2.62-2.87-3.21-1.43-.64-4.57-.5-4.75-.66-.14-.12.08-2.13-.93-3.53-.88-1.21-9.16-6.38-10.69-6.5-1.44-.11-2.15,1-2.38,1.02-.35.04-.73-.08-1,0ZM706.52,1132.37c-1.58-1.25-4.77-1.95-6.56-3.94-3.04-3.36-13.68-18.8-15.29-22.71-2.06-5.01-.87-15.14-8.14-9.52-16.91,13.06-26.97,27.7-40.1,43.85-1.03,1.26-2.96,1.83-3.95,3.05-4.89,6.04-8.95,13.18-13.59,19.42,24.97,3.87,51.31-1.09,76.47,3.58,115.63.56,233.47-.51,349.97,2.97,43.91-2.26,90.5,2.83,134.09,0,4.09-.27,10.23-1.42,10.41-6.59.29-8.61-7.97-8.45-14.41-9.49l-377.09.09c-11.23-4.77-22.7-1.32-33.91-.02-22.02,2.55-41.41-7.61-57.89-20.66ZM541.89,1178c-37.16-.34-74.38-.32-111.55-.95-81.06-1.39-162.51-4.99-244.02-4.1-7.82-1.25-7.76,14.92-1.91,16.03,10.45,1.98,26.76-1.31,38,0,60.72,7.83,128.37-3.35,189.01,1.99,9.63.85,7.98,1.22,17.93.01,15.55-1.89,34.64.82,49.99,2.07,13.63,1.11,39.56,1.25,53.09,0,9.05-.83,9.58-7.11,9.46-15.05ZM679.88,1253c.52,17.87.5,34.48-6.82,51.68-4.11,9.67-19.36,28.15-27.98,33.99-7.09,4.8-28.23,12.71-36.71,13.32-6.54.47-31.29-1.3-34.82.93-2.59,1.64-1.59,12.98,1.76,15.15,3.05,1.98,11.9.64,16.11.89,58.37,3.42,117.5-.89,175.99,1.01,65.09,2.11,130.79,2.1,195.93,4.07,52.92,1.6,106.18-1.65,159.06.44,59.64-7.25,95.44-46.85,91.52-107.01-1.03-15.8-7.49-30.26-15.58-43.42-1.41-2.29-4.99-4.31-6.5-6.5-1.08-1.57-.83-3.61-1.91-5.09-2.52-3.47-20.18-14.91-24.68-17.33-17.49-9.42-29.72-11.46-49.84-12.16-32.3-1.13-65.13.87-97.01,1.09-13.26.09-24.11-2.88-35.99-2.99-61.43-.56-122.67-.33-184.09-1.01-5.96-.07-13.95-2.01-19.92-2.08-55.99-.72-112.03.61-168.02.06-3.82.66-9.55,13.34-7.4,15.87,4.19,2.12,7.59.07,11.38.03,9.53-.12,27.17,9.39,34.84,15.24,15.34,11.7,19.58,22.47,27.82,39.23.71,1.45.48,3.12,2.84,2.61-.01.66-.02,1.34,0,2ZM654.3,1231.59c-2.37-2.81-6.5-7.98-9.97-8.53-15.37-2.41-35.59,2.08-51.49-.61-2.1.43-4.35.59-5.23,2.77.58,6.06-7.29,17.62,1.73,18.82,8.56-1.22,69.5,1.88,71.52-1.08.04-4.65-3.87-8.19-6.56-11.37ZM576.38,1283h88c5.31,0,6.57-18.06.81-19.81-22.54-1.53-46.48,1.37-68.84-.16-4.78-.33-12.11-3.73-16.48-1.55-2.56,1.28-7.19,20.36-3.48,21.51ZM577.62,1299.23c-2.53.29-5.19,1.63-5.71,4.3-.82,4.23-1.23,17.76,3.63,19.16,19.21.32,38.59.27,57.89.27,4.99,0,7.09,2.35,12.52-1.39,2.92-2.01,13.49-14.11,13.8-17.23.1-1.01-.51-1.84-1.28-2.4-2.95-2.14-36.22-.58-43.11-.89-3.58-.16-6.63-1.81-9.97-2.03-7.61-.49-20.32-.63-27.76.22ZM511.83,1353.05l-328.48-6.13c-5.58,3.21-8.3,12.83-.94,16.05h42.01c60.8,6.02,124.15-1.99,184.92,4.08,31.04-2.93,68.87,3.72,99.1,0,6.18-.76,2.6-8.98,3.4-14ZM517.76,1401.88c1.24-1.98-3.19-12.56-3.81-15.43-32.69-1.67-65.9,1.17-98.52-1.48-36.64,3.77-80.37-5.33-116.07-.99-10.04,1.22-11.42,12.62-4.46,18.51l217.53.56,5.33-1.17ZM578.88,1392c.16.48.75,1.01,1,2-2.87,1.59.32,12,2.5,12h150c2.82,0,10.04,3.79,14.5,2,32.4,9.8,58.61,48.62,56.04,82.54-2.19,28.84-17.25,50.43-41.54,64.46-8.02,4.63-8.59,3.81-16.95,3.95-10.67.18-68.25-1.45-72.89,1.24-1.29.74-1.41,2.28-1.9,2.63-.73.51-5.66-1.68-4.76,2.19,4.67-.63,7.9,2.49,12.5,3,7.72.87,23.25-.74,32.05-.96,67.78-1.71,135.17-3.37,202.92-7.08,55.66-3.05,101.99-12.16,146.85-45.65,4.37-3.26,16.91-6.48,22.05-10.45,2.97-2.29,6.95-8.02,10.42-10.86,14.14-11.59,29.98-21.96,43.7-33.97,7-6.13,13.32-13.3,20.52-19.02,4.35-3.45,4.65-1.2,7-7,.36-.19,1.76.07,2.94-.52,3.98-2,3.64-5.69,5.06-8.48,8.32-6.44,11.08-9.29,16-19,.72-.44,1.76,0,3.02-1.44,5.79-6.59,1.94-9.88-5.7-10.17-28.79-1.1-59.66,1.16-88.87.66-91.03-1.56-181.72-4.59-273-4-3.66.02-4.28-.55-8.46-.05-.63.08-1.35,0-2,0l-123-1c-.67,0-1.33,0-2,0l-6.47-2.04-100.92-.02c-1.71,1.87-1.19,3.35-.62,5.06ZM1290.46,1412.43c-10.7-9.14-23.94-12.43-37.57-13.99-5.44,5.23-7.38,12.65-11.19,18.89-19.09,31.27-42.88,61.9-70.3,86.7-8.75,7.91-20.38,13.86-29.02,21.98-4.11,3.87-7.89,9.41-12.49,13.51-2.66,2.37-8.61,5.15-10.47,7.53-1.75,2.25-.83,4.59-3.15,6.85-7.52,7.35-26.51,16.45-36.5,20.5-4.86,1.97-10.76,1.95-14.89,6.1,3.43,3.41,7.58,1.42,11.45,1.45,62.11.52,125.22,1.49,186.84-2.16,12.1-4.99,21.6-8.08,32.62-16.38,30.8-23.21,40.18-55.93,35.14-92.96-1.47-10.78-9.69-27.45-16.62-36.38-6.59-8.51-15.14-15.52-23.86-21.64ZM770.58,1439.31c-1.57-1.47-8.01-5.08-10.17-5.33l-168.52-.97c-1.43,1.44,5.31,18.19,8.43,20.07,4.5,2.7,9.74-.21,14.07-.16,33.97.41,68.07,1.74,101.95,2.13,20.34.23,40.7-.25,61.04-.04.86.01,2.37-.83,2.51-1.52.17-.85-8.03-12.97-9.31-14.17ZM610.59,1472.2c-1.88.85-2.81,1.71-2.31,3.8.25,1.02,7.82,14.88,8.57,15.53,1.12.98,1.85,1.66,3.48,1.52,55.1-1.61,109.16,2.6,164.1,2,7.52.19,5.76-20.16.97-21.06l-174.8-1.78ZM779.89,1513c-47.38-1.96-95.02-.39-142.54-.96-2.56-.03-14.59-2.67-14.49,2.42.04,2.15,8.74,20.44,13.58,19.48,41.52-1.48,83.6,1.83,124.95.86,6.79-.16,4.86-2.52,6.79-4.55.43-.45,1.86-.03,2.74-.92,2.19-2.19,11.67-13.56,8.96-16.32ZM577.88,1568c.25-3.59-4.12-7.67-7.45-8.05-75.59-.81-151.74,1.35-227.05-.15-3.02-.06-20.42-1.83-21.5-.79-.1,1.08.51,4.45,1.15,4.85.96.6,13.3.36,16.14,1.13,1.14.31,1.59,3.01,2.21,3.01h236.5Z"/>
      <path class="cls-1" d="M539.88,0c-2.59,25.15-18.35,37.55-43.55,35.05-7.71-.76-18.95-9.89-25.31-14.72-4.77-3.62-10.52-7.5-14.1-12.87-1.39-2.08-2.95-4.89-3.04-7.46h86Z"/>
      <path class="cls-1" d="M992.88,331h-16v-56l-21.46,56.07c-3.73-.75-11.15,1.52-13.45-1.66l-19.09-54.41v56h-16v-91h20.5l22.99,64.01,20.64-63.88c6.57,0,13.3-.46,19.87-.13.66.03,1.39-.1,2,0-1.32,29.55,1.77,60.63,0,90-.02.33.04.67,0,1Z"/>
      <path class="cls-1" d="M993.88,533h-19c-3.38-8.31-6.3-26.19-12.76-32.02-1.47-1.33-9.08-4.98-10.74-4.98h-17c-.11,0-1.5,1.39-1.5,1.5v35.5h-16.5c-.11,0-1.5-1.39-1.5-1.5v-89c0-.11,1.39-1.5,1.5-1.5h49c9.63,0,20.46,8.64,23.22,17.78,4.3,14.26-.76,25.73-12.7,33.72,10.11,10.34,12.73,27.24,17.98,40.5ZM932.88,481h29.5c.9,0,5.55-2.54,6.55-3.45,6.34-5.82,2.2-20.55-5.55-20.55h-30.5v24Z"/>
      <path class="cls-1" d="M1095.21,454.71c7.44,13.42,12.53,30.09,18.45,45.02,1.17,2.94,3.75,5.25,4.91,8.09,2.03,4.98,6.99,16.49,8.06,20.98,2.1,8.84-15.12,6.87-20.05,5.02-6.59-2.47-4.99-23.14-14.24-24.76-4.93-.87-18.17-1.66-23.01-1.1-1.43.16-2.64.1-3.36,1.64-1.17,4.61-3.99,9.17-5.6,13.4-.94,2.48-.92,7.84-2.74,9.77-5.19,5.49-15.19.61-21.75.24l35.51-91.98c1.78-3.16,14.9-1.35,17.26-.27,4.19,1.92,4.51,10.28,6.56,13.97Z"/>
      <path class="cls-1" d="M889.88,332h-17.5c-5.34-8.09-6.86-26.45-13.8-32.7-.4-.36-7.74-4.3-8.2-4.3h-20c-.11,0-1.5,1.39-1.5,1.5v35.5h-17v-92h50.5c3.82,0,11.85,3.46,14.97,6.03,13.69,11.22,11.32,35.94-4.4,44.6,8.11,12.3,13.59,27.09,16.92,41.38ZM855.38,255c-8.27-.93-18.05.69-26.5,0v25h29.5c4.49,0,9.55-5.15,10.27-9.75,1.57-10.04-4.01-14.21-13.27-15.25Z"/>
      <path class="cls-1" d="M1102.88,332v-92h39.5c16.68,0,32.63,13.82,36.22,29.78,6.79,30.16-5.55,62.22-40.22,62.22h-35.5ZM1138.38,255c-4.96-.59-11.76,0-17,0-1.1,0-1.43,2.44-1.55,3.45-1.66,14.14-.15,37.67,1.1,52.11.1,1.2-1.61,5.44.45,5.44h21c5.54,0,15.02-7.53,17.24-12.76,3.68-8.65,3.39-28.95-1.17-37.32-3.09-5.67-13.95-10.2-20.07-10.92Z"/>
      <path class="cls-1" d="M1082.88,240v14.5c0,.11-1.39,1.5-1.5,1.5h-48.5v21h47v14.5c0,.11-1.39,1.5-1.5,1.5h-45.5v23h52v16h-70v-92h68Z"/>
      <path class="cls-1" d="M580.88,441v16h-50v21h45.5c.11,0,1.5,1.39,1.5,1.5v14.5h-47v23h50.5c.11,0,1.5,1.39,1.5,1.5v14.5h-70v-92h68Z"/>
      <path class="cls-1" d="M848.66,440.28c65.93-7.65,68,104.86-5.04,93.48-43.97-6.85-47.34-87.4,5.04-93.48ZM870.45,461.43c-8.94-7.39-22.87-7.79-32.07-.42-17.61,14.11-13.52,54.09,11.26,57.74,31.83,4.69,40.23-41.25,20.81-57.31Z"/>
      <path class="cls-1" d="M658.88,315c11.69,8.05,38.89.34,29.01-14.51-8.62-12.95-53.33-5.29-52.73-34.72.77-37.49,70.35-34.32,68.72,4.23h-16c-.6,0-1.25-7.64-4.45-11.05-9.58-10.18-38.29-3.87-30.6,9.6,5.66,9.91,38.95,6.55,49.3,22.7,10.84,16.93-.63,35.28-18.46,40.02-24.68,6.57-50.52-4.55-51.78-32.28.21-.1.64.05,1,0,1.86-.26,15.46-.59,16,0,.15.16-.14,3.11.2,4.32.45,1.61,1.56,2.13,1.8,2.68.34.78.53,1.25,1,2,1.24,1.96,1.26,4.76,5,5,1.11,3.17.9,1.24,2,2Z"/>
      <path class="cls-1" d="M799.88,441v16h-28v76h-17l-1-76h-27c-1.16-2.43-2.02-16,.5-16h72.5Z"/>
      <path class="cls-1" d="M541.88,240v74.5c0,.11,1.39,1.5,1.5,1.5h39c2.27,0,2.27,16,0,16h-57c-3.08,0-.46-8.08-.5-9.5-.77-25.52-2.16-51.58-.1-77.11.1-1.19-1.7-5.39.6-5.39h16.5Z"/>
      <path class="cls-1" d="M1152.88,441v76c.98-.32,2.17,1,2.5,1h39.5v15h-59v-92h17Z"/>
      <path class="cls-1" d="M712.88,533h-15.5c-1.1,0-1.43-2.44-1.55-3.45-3.07-26.17,2.44-58.28,0-85.1-.22-1.02.72-3.45,1.55-3.45h15c.5,0,1.65,1.65,1.53,2.49l-1.03,89.51Z"/>
      <rect class="cls-1" x="1010.88" y="441" width="17" height="92"/>
      <path class="cls-1" d="M615.88,240v92h-15.5c-.11,0-1.5-1.39-1.5-1.5v-90.5h17Z"/>
      <path class="cls-1" d="M728.38,329c-.97-.16-3.03-1.32-2.6-2.49l1.12-85.5c3.33-.86,1.46,2.45,1.99,3,1.65,1.72,1.69-1.88,3.42-2.09,13.84-1.65,34.95.25,49.12,1.13,6.18.39,7.97-4.22,7.6,5.35-.1,2.55,2.6,4.08-2.59,4.65-6.84.75-45.19-1.29-47.54.96-.05,4.83.01,9.69.04,14.53.01,2.09-1.19,4.22-1.02,5.91.03.29,1.68,5.55,1.98,5.55h41.5c.35,0,1.05-1.25,2.47-.58,2.93,1.39,3.39,10.58-.47,10.58h-38.5c-.22,0,.38-3.75-2.84-1.82-.73.44-2.88,6.03-3.07,7.4-.56,3.88-1.34,25.19,4.22,24.28.72-.12,1.43-1.52,2.97-1.61,9.43-.53,22.05.98,32.27.79,9.3-.17,13.7-4.29,12.46,9.96h-62.5Z"/>
      <path class="cls-1" d="M653.88,528c-.54.09-1.83-.71-3.1-.46-14.48,2.85-29.48,5.23-44.46,3.51-4.16-.48-4.17-2.93-4.49-6.51-1.68-19.01-1.55-54.98,0-74.09.31-3.79.26-7,4.48-7.52,10.56-1.29,43.99.57,52.86,6,1.05.64,1.46,2.67,2.6,3.65,1.35,1.16,3.24,1.06,4.16,2.1,3.25,3.69,9.01,20.86,9.68,26.07,1.32,10.28-3.73,35.19-12.5,41.21-2.61,1.79-7.89,2.11-8.24,6.03-.33.05-.68-.05-1,0ZM617.88,456v62h16.5c3.2,0,13.01-3.18,15.83-5.17,11-7.74,11.1-28.85,7.83-40.49-4.91-17.53-25.57-15.32-40.17-16.34Z"/>
    </g>
  </g>
</svg>